<svg width="33" height="35" viewBox="0 0 33 35" fill="none" xmlns="http://www.w3.org/2000/svg">
<path d="M16.5098 4.36133C13.6855 4.36133 10.9878 5.36612 8.81802 7.18758C8.22265 7.68633 8.13189 8.60652 8.60352 9.23798C9.07514 9.86944 9.9414 9.9657 10.5368 9.46549C12.2239 8.04945 14.3111 7.27799 16.5098 7.27799C21.8255 7.27799 26.1348 11.8484 26.1348 17.4863H23.3848L27.5098 23.3196L31.6348 17.4863H28.8848C28.8848 10.2369 23.3449 4.36133 16.5098 4.36133ZM5.50977 11.653L1.38477 17.4863H4.13477C4.13477 24.7357 9.67464 30.6113 16.5098 30.6113C19.3354 30.6113 22.0318 29.608 24.2015 27.785C24.7969 27.2863 24.8876 26.3661 24.416 25.7346C23.9444 25.1032 23.0781 25.0069 22.4828 25.5071C20.7943 26.9246 18.7098 27.6946 16.5098 27.6946C11.194 27.6946 6.88477 23.1242 6.88477 17.4863H9.63477L5.50977 11.653Z" fill="#E47911"/>
</svg>
