<svg width="34" height="34" viewBox="0 0 34 34" fill="none" xmlns="http://www.w3.org/2000/svg">
<path d="M16.9902 0C7.60653 0 0 7.6109 0 17C0 26.3891 7.60653 34 16.9902 34C25.6213 34 32.8659 27.5264 33.8751 19.0196C33.9839 18.0863 33.3195 17.2176 32.3868 17.1054C31.4557 16.9966 30.5858 17.6613 30.4771 18.5946C29.6701 25.3946 23.8951 30.6 16.9902 30.6C9.48395 30.6 3.39805 24.5106 3.39805 17C3.39805 9.4894 9.48395 3.4 16.9902 3.4C18.5584 3.4 20.1113 3.68389 21.5572 4.19729C22.4407 4.51009 23.3667 4.01879 23.681 3.13479C23.9936 2.24909 23.5553 1.26992 22.6718 0.95542C20.864 0.31452 18.9458 0 16.9902 0ZM32.2814 3.4C31.8465 3.4 31.3912 3.55301 31.0599 3.87771L16.2461 18.4875C15.8094 18.9176 15.3694 18.8343 15.0262 18.3277L13.3271 15.8304C12.8072 15.0637 11.7165 14.841 10.9383 15.3527C10.1585 15.8644 9.9393 16.9235 10.4592 17.6902L12.1582 20.1875C13.689 22.4468 16.6844 22.746 18.6366 20.825L33.503 6.26958C34.1657 5.61678 34.1657 4.53051 33.503 3.87771C33.1717 3.55131 32.7164 3.4 32.2814 3.4Z" fill="#E47911"/>
</svg>
