<svg width="139" height="139" viewBox="0 0 139 139" fill="none" xmlns="http://www.w3.org/2000/svg">
<g clip-path="url(#clip0_3557_366)">
<path d="M50.1335 61.3697C50.1335 62.4672 50.2522 63.3571 50.4598 64.0096C50.6971 64.6622 50.9938 65.3741 51.409 66.1453C51.5574 66.3826 51.6167 66.6199 51.6167 66.8276C51.6167 67.1242 51.4387 67.4208 51.0531 67.7175L49.1843 68.9633C48.9174 69.1413 48.6504 69.2303 48.4131 69.2303C48.1165 69.2303 47.8199 69.0819 47.5232 68.815C47.108 68.37 46.752 67.8954 46.4554 67.4208C46.1588 66.9166 45.8621 66.353 45.5358 65.6707C43.2222 68.3997 40.3152 69.7642 36.815 69.7642C34.3234 69.7642 32.336 69.0523 30.8825 67.6285C29.4291 66.2047 28.6875 64.3063 28.6875 61.9333C28.6875 59.4119 29.5774 57.3652 31.3868 55.8228C33.1962 54.2803 35.5989 53.5091 38.6541 53.5091C39.6627 53.5091 40.7008 53.5981 41.7984 53.7464C42.8959 53.8947 44.0231 54.132 45.2096 54.399V52.2336C45.2096 49.9792 44.735 48.4071 43.8154 47.4876C42.8662 46.568 41.2644 46.1231 38.9804 46.1231C37.9422 46.1231 36.8744 46.2417 35.7769 46.5087C34.6793 46.7757 33.6115 47.102 32.5733 47.5172C32.0987 47.7249 31.7427 47.8435 31.5351 47.9029C31.3275 47.9622 31.1792 47.9918 31.0605 47.9918C30.6452 47.9918 30.4376 47.6952 30.4376 47.0723V45.6188C30.4376 45.1442 30.4969 44.7883 30.6452 44.5806C30.7935 44.373 31.0605 44.1654 31.4758 43.9577C32.514 43.4238 33.7598 42.9789 35.2133 42.6229C36.6667 42.2373 38.2092 42.0593 39.8406 42.0593C43.3705 42.0593 45.9511 42.8602 47.6122 44.462C49.2437 46.0638 50.0742 48.4961 50.0742 51.759V61.3697H50.1335ZM38.0905 65.8784C39.0694 65.8784 40.0779 65.7004 41.1458 65.3445C42.2136 64.9885 43.1628 64.3359 43.9637 63.4461C44.4383 62.8825 44.7943 62.2595 44.9723 61.5476C45.1502 60.8357 45.2689 59.9755 45.2689 58.967V57.7212C44.4087 57.5135 43.4891 57.3356 42.5399 57.2169C41.5907 57.0983 40.6712 57.0389 39.7516 57.0389C37.7643 57.0389 36.3108 57.4245 35.3319 58.2254C34.3531 59.0263 33.8785 60.1535 33.8785 61.6366C33.8785 63.0308 34.2344 64.069 34.976 64.7809C35.6879 65.5224 36.7261 65.8784 38.0905 65.8784ZM61.9096 69.0819C61.3757 69.0819 61.0197 68.993 60.7824 68.7853C60.5451 68.6073 60.3375 68.1921 60.1595 67.6285L53.1888 44.6993C53.0108 44.106 52.9218 43.7204 52.9218 43.5128C52.9218 43.0382 53.1591 42.7712 53.6337 42.7712H56.5407C57.1043 42.7712 57.4899 42.8602 57.6975 43.0679C57.9348 43.2458 58.1128 43.6611 58.2908 44.2247L63.2741 63.8613L67.9014 44.2247C68.0497 43.6314 68.2277 43.2458 68.465 43.0679C68.7023 42.8899 69.1176 42.7712 69.6515 42.7712H72.0245C72.5881 42.7712 72.9737 42.8602 73.211 43.0679C73.4483 43.2458 73.656 43.6611 73.7746 44.2247L78.4613 64.0986L83.5929 44.2247C83.7709 43.6314 83.9785 43.2458 84.1862 43.0679C84.4235 42.8899 84.8091 42.7712 85.343 42.7712H88.1017C88.5762 42.7712 88.8432 43.0085 88.8432 43.5128C88.8432 43.6611 88.8136 43.8094 88.7839 43.9874C88.7542 44.1654 88.6949 44.4027 88.5763 44.729L81.4276 67.6581C81.2496 68.2514 81.042 68.637 80.8047 68.815C80.5674 68.993 80.1817 69.1116 79.6775 69.1116H77.1265C76.5629 69.1116 76.1773 69.0226 75.94 68.815C75.7027 68.6073 75.4951 68.2217 75.3764 67.6285L70.7787 48.4961L66.2107 67.5988C66.0624 68.1921 65.8844 68.5777 65.6471 68.7853C65.4098 68.993 64.9945 69.0819 64.4606 69.0819H61.9096ZM100.026 69.8828C98.4836 69.8828 96.9411 69.7049 95.458 69.3489C93.9748 68.993 92.818 68.6073 92.0468 68.1624C91.5722 67.8954 91.2459 67.5988 91.1272 67.3319C91.0086 67.0649 90.9493 66.7683 90.9493 66.5013V64.9885C90.9493 64.3656 91.1866 64.069 91.6315 64.069C91.8095 64.069 91.9874 64.0986 92.1654 64.158C92.3434 64.2173 92.6104 64.3359 92.907 64.4546C93.9155 64.8995 95.013 65.2555 96.1699 65.4928C97.3564 65.7301 98.5132 65.8487 99.6997 65.8487C101.568 65.8487 103.022 65.5224 104.03 64.8699C105.039 64.2173 105.573 63.2681 105.573 62.0519C105.573 61.2214 105.306 60.5391 104.772 59.9755C104.238 59.4119 103.23 58.9077 101.776 58.4331L97.475 57.0983C95.3097 56.416 93.7079 55.4075 92.729 54.0727C91.7501 52.7675 91.2459 51.3141 91.2459 49.7716C91.2459 48.5258 91.5128 47.4283 92.0468 46.4791C92.5807 45.5298 93.2926 44.6993 94.1825 44.0467C95.0724 43.3645 96.0809 42.8602 97.2674 42.5043C98.4539 42.1483 99.6997 42 101.005 42C101.657 42 102.34 42.0297 102.992 42.1187C103.675 42.2076 104.297 42.3263 104.92 42.4449C105.514 42.5933 106.077 42.7416 106.611 42.9195C107.145 43.0975 107.56 43.2755 107.857 43.4535C108.272 43.6908 108.569 43.9281 108.747 44.195C108.925 44.4323 109.014 44.7586 109.014 45.1739V46.568C109.014 47.191 108.776 47.5172 108.332 47.5172C108.094 47.5172 107.709 47.3986 107.204 47.1613C105.514 46.3901 103.615 46.0044 101.509 46.0044C99.8184 46.0044 98.4836 46.2714 97.564 46.835C96.6445 47.3986 96.1699 48.2588 96.1699 49.475C96.1699 50.3055 96.4665 51.0174 97.0598 51.581C97.653 52.1446 98.7505 52.7082 100.323 53.2125L104.535 54.5473C106.67 55.2295 108.213 56.1787 109.132 57.3949C110.052 58.611 110.497 60.0052 110.497 61.5476C110.497 62.8231 110.23 63.98 109.726 64.9885C109.192 65.997 108.48 66.8869 107.56 67.5988C106.641 68.3404 105.543 68.8743 104.268 69.2599C102.933 69.6752 101.539 69.8828 100.026 69.8828Z" fill="white"/>
<path fill-rule="evenodd" clip-rule="evenodd" d="M105.632 84.2988C95.8734 91.5068 81.6947 95.3333 69.5034 95.3333C52.4177 95.3333 37.0228 89.0152 25.3951 78.5146C24.4756 77.684 25.3061 76.5568 26.4036 77.2094C38.9806 84.5064 54.4941 88.9262 70.5416 88.9262C81.3684 88.9262 93.2631 86.6718 104.209 82.0444C105.84 81.3029 107.234 83.1123 105.632 84.2988Z" fill="#FF9900"/>
<path fill-rule="evenodd" clip-rule="evenodd" d="M109.696 79.6714C108.45 78.0696 101.449 78.9002 98.2756 79.2858C97.3264 79.4045 97.178 78.5739 98.0383 77.951C103.615 74.0355 112.781 75.1627 113.848 76.4679C114.916 77.8027 113.552 86.9684 108.331 91.3585C107.53 92.0408 106.759 91.6848 107.115 90.7949C108.301 87.8583 110.941 81.2435 109.696 79.6714Z" fill="#FF9900"/>
</g>
<defs>
<clipPath id="clip0_3557_366">
<rect width="139" height="139" fill="white"/>
</clipPath>
</defs>
</svg>
