<svg width="34" height="34" viewBox="0 0 34 34" fill="none" xmlns="http://www.w3.org/2000/svg">
<path d="M16.4661 2.88172C15.2209 3.41297 7.74939 6.60189 6.50555 7.13314C5.9828 7.35556 5.66406 7.84857 5.66406 8.41665C5.66406 14.6216 5.91197 17.3983 7.0368 20.5957C8.50872 24.7819 11.3987 28.1182 16.2891 30.9133C16.724 31.1626 17.2708 31.1626 17.7057 30.9133C22.64 28.0927 25.5427 24.7678 27.0019 20.5957C28.1126 17.421 28.3307 14.7803 28.3307 8.41665C28.3307 7.8514 28.0092 7.35697 27.4892 7.13314L17.6179 2.88172C17.2609 2.72872 16.8231 2.72872 16.4661 2.88172Z" fill="#E47911"/>
</svg>
