<svg width="34" height="34" viewBox="0 0 34 34" fill="none" xmlns="http://www.w3.org/2000/svg">
<path d="M21.2363 4.15063C19.44 4.15063 17.7655 5.32932 17.2427 6.98682L5.65299 6.98397C4.87099 6.98397 4.23633 7.61863 4.23633 8.40063C4.23633 9.18263 4.87099 9.8173 5.65299 9.8173L17.2427 9.81592C17.8774 11.5513 19.44 12.6506 21.2363 12.6506C23.0327 12.6506 24.6108 11.5485 25.2568 9.80459L28.3197 9.8173C29.1017 9.8173 29.7363 9.18263 29.7363 8.40063C29.7363 7.61863 29.1017 6.98397 28.3197 6.98397H25.2455C24.5626 5.25705 23.0327 4.15063 21.2363 4.15063ZM12.7363 12.6506C10.8692 12.6506 9.30657 13.8123 8.73565 15.4868C8.5359 15.4996 5.65299 15.484 5.65299 15.484C4.87099 15.484 4.23633 16.1186 4.23633 16.9006C4.23633 17.6826 4.87099 18.3173 5.65299 18.3173C5.65299 18.3173 8.55998 18.2876 8.74132 18.306C9.31223 19.9805 10.8692 21.1506 12.7363 21.1506C14.5327 21.1506 16.0712 20.0499 16.7441 18.3215L28.3197 18.3173C29.1017 18.3173 29.7363 17.6826 29.7363 16.9006C29.7363 16.1186 29.1017 15.484 28.3197 15.484L16.737 15.4713C16.1165 13.7812 14.5327 12.6506 12.7363 12.6506ZM21.2363 21.1506C19.44 21.1506 17.7967 22.3335 17.2413 23.9698L5.65299 23.984C4.87099 23.984 4.23633 24.6186 4.23633 25.4006C4.23633 26.1826 4.87099 26.8173 5.65299 26.8173L17.2215 26.8187C17.808 28.4974 19.44 29.6506 21.2363 29.6506C23.0327 29.6506 24.5811 28.5272 25.2625 26.8187L28.3197 26.8173C29.1017 26.8173 29.7363 26.1826 29.7363 25.4006C29.7363 24.6186 29.1017 23.984 28.3197 23.984L25.2498 23.9755C24.6392 22.2996 23.0327 21.1506 21.2363 21.1506Z" fill="#E47911"/>
</svg>
