<svg width="57" height="61" viewBox="0 0 57 61" fill="none" xmlns="http://www.w3.org/2000/svg">
<path d="M20.4063 7.62761C20.4441 8.26795 19.9553 8.81736 19.315 8.85511C18.6746 8.89285 18.1247 8.40404 18.087 7.76372C18.0497 7.12339 18.5385 6.57348 19.1788 6.53623C19.8192 6.49847 20.3691 6.98729 20.4063 7.62761Z" fill="white"/>
<path d="M14.966 7.94695C15.0032 8.58728 14.5149 9.1372 13.8741 9.17444C13.2337 9.2122 12.6838 8.72338 12.6466 8.08306C12.6088 7.44273 13.0976 6.89331 13.738 6.85556C14.3788 6.81781 14.9282 7.30663 14.966 7.94695Z" fill="white"/>
<path d="M1.11204 29.0498C1.45332 29.9594 2.11948 30.1835 2.48613 30.2366C2.56064 30.2475 2.63665 30.252 2.71464 30.252C4.47965 30.252 7.16958 27.5859 9.20089 25.2347C8.14974 30.4587 8.1388 37.1377 9.27043 44.5457C9.30471 44.7697 9.43388 44.9684 9.62463 45.0911C9.75379 45.1746 9.90232 45.2173 10.0528 45.2173C10.1249 45.2173 10.1974 45.2074 10.2679 45.187L17.2931 43.2V59.5898C17.2931 60.027 17.6473 60.3812 18.0845 60.3812C18.5216 60.3812 18.8758 60.0275 18.8758 59.5898L18.8763 42.7523L29.676 39.6977L34.577 59.778C34.6655 60.1397 34.9889 60.3816 35.345 60.3816C35.4071 60.3816 35.4707 60.3746 35.5338 60.3592C35.958 60.2559 36.2183 59.8277 36.115 59.4025L31.2005 39.2662L38.4795 37.2075C38.6981 37.1459 38.8794 36.9934 38.9778 36.7887C39.0761 36.5846 39.0816 36.3476 38.9937 36.139C36.6296 30.5434 33.8776 25.7472 30.9858 22.0522C31.2238 22.0855 31.4672 22.1103 31.7225 22.1148C31.7603 22.1158 31.7975 22.1163 31.8353 22.1163C34.1502 22.1163 36.4711 20.8203 38.7427 18.2936L45.3144 20.9632C45.6299 21.1579 45.9687 21.2742 46.3363 21.2742C48.8216 21.2742 50.1222 16.4709 50.1222 11.7264C50.1217 6.9814 48.8212 2.17763 46.3363 2.17763C45.9687 2.17763 45.6299 2.29388 45.3144 2.48861L33.4641 7.30268H31.8635C30.4592 7.30268 29.8303 9.52423 29.8303 11.7258C29.8303 13.9274 30.4587 16.149 31.8635 16.149H33.4641L37.1849 17.6607C35.3593 19.5667 33.563 20.534 31.8343 20.534C31.8124 20.534 31.7915 20.533 31.7702 20.533C30.2715 20.5121 29.1438 19.7491 28.5338 19.217C26.6481 17.2667 24.7346 15.8068 22.8559 14.9135C24.4341 12.7198 25.0407 9.85694 24.2498 7.06069C23.5831 4.70408 22.0381 2.7473 19.9001 1.55163C17.7625 0.356423 15.2862 0.06487 12.9291 0.732469C10.572 1.39863 8.61521 2.94309 7.42006 5.0816C6.22485 7.21961 5.93368 9.69551 6.6004 12.0531C7.39125 14.8489 9.40567 16.9735 11.8984 18.0158C11.2635 18.9949 10.7166 20.1375 10.2521 21.4156C7.49556 25.0634 3.81458 28.8317 2.71226 28.6698C2.66457 28.6629 2.61837 28.5561 2.59502 28.493C1.60845 25.8631 3.00536 17.4643 3.6268 14.4507C3.71473 14.0225 3.43952 13.6038 3.01181 13.5158C2.58112 13.4309 2.16483 13.7026 2.0769 14.1308C1.83846 15.2868 -0.212691 25.5161 1.11219 29.0506L1.11204 29.0498ZM46.3367 3.76056C47.0843 3.76056 48.5398 6.57168 48.5398 11.7262C48.5398 16.8807 47.0844 19.6918 46.3367 19.6918C45.5891 19.6918 44.1341 16.8807 44.1341 11.7262C44.1341 6.57168 45.5891 3.76056 46.3367 3.76056ZM33.9172 14.6248C33.8223 14.587 33.7214 14.5667 33.6191 14.5667H31.9857C31.7691 14.3034 31.4134 13.2856 31.4134 11.7262C31.4134 10.1668 31.7691 9.14893 31.9857 8.88568H33.6191C33.7209 8.88568 33.8223 8.86581 33.9172 8.82756L43.6259 4.88373C42.9175 6.70584 42.5514 9.22052 42.5514 11.7262C42.5514 14.2318 42.9175 16.746 43.6259 18.5686L33.9172 14.6248ZM8.12299 11.6224C7.5711 9.67212 7.81202 7.62351 8.80107 5.85456C9.79012 4.0851 11.4091 2.8069 13.3594 2.25497C15.3102 1.70308 17.3588 1.94499 19.1273 2.93355C20.8962 3.9226 22.1749 5.54158 22.7263 7.49188C23.8649 11.5176 21.5157 15.7202 17.4899 16.8588C13.4601 17.9944 9.26156 15.6487 8.12299 11.6224V11.6224ZM18.3285 19.8234L21.167 23.728L20.0935 26.0618L17.9563 24.6371L18.3285 19.8234ZM13.484 18.5124C14.1174 18.651 14.7677 18.7295 15.4284 18.7295C15.8938 18.7295 16.3643 18.6893 16.8351 18.6153L16.3428 24.9767C16.321 25.2619 16.4546 25.5371 16.693 25.6961L19.9861 27.8923C20.1173 27.9797 20.2703 28.0254 20.4253 28.0254C20.4973 28.0254 20.5698 28.0155 20.6404 27.9951C20.8634 27.9325 21.0472 27.7751 21.1436 27.5649L22.7984 23.9684C22.9181 23.7086 22.8878 23.4041 22.7199 23.1726L18.9663 18.0092C20.0298 17.5641 20.9752 16.9377 21.7719 16.1702C23.4684 16.8939 25.2304 18.1771 26.9904 19.9327C27.0758 20.0241 27.1871 20.1368 27.3227 20.263C30.8338 23.884 34.3107 29.3458 37.182 35.9305L10.7049 43.4193C9.16789 32.5148 10.2225 23.1151 13.4842 18.5115L13.484 18.5124Z" fill="white"/>
<path d="M56.3306 11.7254C56.3306 11.2883 55.9764 10.9341 55.5392 10.9341H53.4007C52.9636 10.9341 52.6094 11.2878 52.6094 11.7254C52.6094 12.1626 52.9636 12.5168 53.4007 12.5168H55.5392C55.9764 12.5168 56.3306 12.1626 56.3306 11.7254Z" fill="white"/>
<path d="M53.7045 19.2334C53.853 19.3596 54.0353 19.4212 54.2161 19.4212C54.4407 19.4212 54.6637 19.3263 54.8202 19.1415C55.1028 18.8086 55.0616 18.3094 54.7288 18.0263L53.0979 16.6433C52.7641 16.3611 52.2649 16.4013 51.9827 16.7352C51.7 17.068 51.7413 17.5672 52.0741 17.8504L53.7045 19.2334Z" fill="white"/>
<path d="M52.5855 7.27854C52.7663 7.27854 52.9481 7.21694 53.0971 7.09076L54.728 5.70676C55.0613 5.42409 55.102 4.92486 54.8194 4.59103C54.5367 4.25969 54.038 4.21796 53.7041 4.49963L52.0733 5.88363C51.74 6.1663 51.6992 6.66553 51.9819 6.99936C52.1384 7.18365 52.3609 7.27854 52.5855 7.27854V7.27854Z" fill="white"/>
</svg>
