<svg width="76" height="80" viewBox="0 0 76 80" fill="none" xmlns="http://www.w3.org/2000/svg">
<path d="M27.2831 9.76547C27.2831 10.6008 26.6136 11.2785 25.7877 11.2785C24.9625 11.2785 24.293 10.6008 24.293 9.76547C24.293 8.9294 24.9625 8.25171 25.7877 8.25171C26.6136 8.25171 27.2831 8.9294 27.2831 9.76547Z" fill="#002225"/>
<path d="M20.2656 9.76547C20.2656 10.6008 19.5961 11.2785 18.7708 11.2785C17.9449 11.2785 17.2754 10.6008 17.2754 9.76547C17.2754 8.9294 17.9449 8.25171 18.7708 8.25171C19.5961 8.25171 20.2656 8.9294 20.2656 9.76547Z" fill="#002225"/>
<path d="M74.7399 40.0024C75.3687 40.0024 75.8781 39.4868 75.8781 38.8503V8.2522C75.8781 7.61574 75.3694 7.10005 74.7399 7.10005H41.2416C40.6129 7.10005 40.1034 7.61574 40.1034 8.2522V28.193C36.2802 27.5189 31.1015 24.8097 30.107 24.2745C29.2796 23.1925 28.4193 22.2291 27.5256 21.422C30.2085 19.2074 31.9268 15.8386 31.9268 12.0689C31.9268 5.41438 26.5788 0 20.0046 0C13.4305 0 8.08251 5.4142 8.08251 12.0689C8.08251 15.8391 9.80087 19.2082 12.4844 21.4228C6.47272 26.8521 1.85696 38.7344 0.00864611 53.7335C-0.0313656 54.0611 0.0686641 54.391 0.284439 54.639C0.500932 54.8864 0.81102 55.0281 1.13827 55.0281H12.788V78.846C12.788 79.4825 13.2968 79.9981 13.9262 79.9981C14.555 79.9981 15.0644 79.4825 15.0644 78.846L15.0637 55.03H24.9446V78.8479C24.9446 79.4843 25.4533 80 26.0828 80C26.7115 80 27.221 79.4843 27.221 78.8479V55.03H38.8707C39.1973 55.03 39.5074 54.8882 39.7246 54.6409C39.9403 54.3928 40.0404 54.063 40.0004 53.7361C39.4781 49.4935 38.7278 45.5106 37.7941 41.8423C39.7333 41.3976 41.7967 40.7936 43.9887 40.0046L74.7399 40.0024ZM10.359 12.0687C10.359 6.68409 14.6859 2.30415 20.0053 2.30415C25.3247 2.30415 29.6517 6.68483 29.6517 12.0687C29.6517 17.4525 25.3247 21.8332 20.0053 21.8332C14.6859 21.8325 10.359 17.4525 10.359 12.0687ZM22.0159 31.8447L20.0053 34.2278L17.9948 31.8447L20.0053 26.3183L22.0159 31.8447ZM2.43527 52.7242C4.35089 38.6542 8.89568 27.364 14.4774 22.7519C15.6842 23.3942 17.0123 23.8266 18.4164 24.0169L15.6277 31.6812C15.4855 32.0725 15.5634 32.5108 15.8299 32.8275L19.1388 36.749C19.3553 37.0058 19.6711 37.1526 20.0047 37.1526C20.3384 37.1526 20.6535 37.0051 20.8707 36.749L24.1796 32.8275C24.4461 32.5108 24.524 32.0718 24.3818 31.6812L21.5931 24.0169C22.9978 23.8259 24.326 23.3941 25.5328 22.7512C29.3061 25.8699 32.6078 32.0297 34.9407 40.0541C19.0296 42.7431 13.2914 33.6244 13.0206 33.1732C12.6948 32.63 11.9989 32.455 11.4616 32.7797C10.9229 33.1059 10.7471 33.814 11.0694 34.36C11.3352 34.8092 16.2966 42.8727 29.2869 42.8727C31.1954 42.8727 33.2852 42.6883 35.5516 42.2905C36.3876 45.5321 37.0728 49.0311 37.575 52.7242L2.43527 52.7242ZM40.1039 38.848C39.1029 39.1424 38.1312 39.3992 37.1953 39.6111C35.9199 35.1572 34.3488 31.2568 32.5503 28.0376C34.7924 29.048 37.6676 30.1611 40.1039 30.5262V38.848ZM42.3803 33.4692H46.3635C46.9923 33.4692 47.5017 32.9535 47.5017 32.3171C47.5017 31.6806 46.993 31.1649 46.3635 31.1649H42.3803V9.40408H73.6013V31.1649H53.7134C53.0846 31.1649 52.5752 31.6806 52.5752 32.3171C52.5752 32.9535 53.0839 33.4692 53.7134 33.4692H73.6013V37.6981H42.3803V33.4692Z" fill="#002225"/>
<path d="M53.1296 26.1752C53.3083 26.2837 53.5112 26.3387 53.7134 26.3387C53.8991 26.3387 54.0849 26.2931 54.2535 26.2005L62.8095 21.5342C63.1775 21.3331 63.4076 20.9433 63.4076 20.5202C63.4076 20.0964 63.1775 19.7065 62.8095 19.5062L54.2535 14.8398C53.9013 14.6467 53.4733 14.6576 53.1296 14.8651C52.786 15.0727 52.5752 15.4488 52.5752 15.8538V25.1865C52.5752 25.5923 52.786 25.9677 53.1296 26.1752V26.1752ZM54.8509 17.7827L59.8688 20.5194L54.8509 23.2569V17.7827Z" fill="#002225"/>
<path d="M50.0366 29.7136C49.4079 29.7136 48.8984 30.2292 48.8984 30.8657V33.7689C48.8984 34.4053 49.4071 34.921 50.0366 34.921C50.6654 34.921 51.1748 34.4053 51.1748 33.7689V30.8657C51.1748 30.2292 50.6654 29.7136 50.0366 29.7136Z" fill="#002225"/>
</svg>
