<svg width="82" height="80" viewBox="0 0 82 80" fill="none" xmlns="http://www.w3.org/2000/svg">
<path d="M26.6294 11.4508C26.6294 12.2668 25.976 12.9283 25.1698 12.9283C24.3637 12.9283 23.7109 12.2668 23.7109 11.4508C23.7109 10.6355 24.3637 9.97401 25.1698 9.97401C25.976 9.97401 26.6294 10.6355 26.6294 11.4508Z" fill="#002225"/>
<path d="M19.7818 11.4509C19.7818 12.2669 19.1283 12.9284 18.3222 12.9284C17.5167 12.9284 16.8633 12.2669 16.8633 11.4509C16.8633 10.6349 17.5167 9.97412 18.3222 9.97412C19.1283 9.97412 19.7818 10.6348 19.7818 11.4509Z" fill="#002225"/>
<path d="M70.1563 10.475C69.7811 10.475 69.4045 10.4927 69.0314 10.5287C68.3285 4.61739 63.3145 0 57.3121 0C51.3097 0 46.2958 4.61739 45.5928 10.5287C45.2183 10.4927 44.8431 10.475 44.4665 10.475C37.9544 10.475 32.6574 15.8371 32.6574 22.4288C32.6574 24.4111 33.1441 26.2782 33.9907 27.925C31.2034 26.3974 28.598 24.4873 28.2311 24.2148C27.7841 23.7171 27.3308 23.2463 26.8657 22.8263C29.4843 20.6648 31.1614 17.3767 31.1614 13.6974C31.1614 7.2024 25.9417 1.91854 19.5251 1.91854C13.1085 1.91854 7.88733 7.20222 7.88733 13.6974C7.88733 17.3765 9.56449 20.6648 12.1837 22.827C6.31683 28.1262 1.81102 39.7244 0.00843893 54.3632C-0.0306136 54.6837 0.0670164 55.0056 0.27762 55.247C0.488923 55.4884 0.791578 55.6268 1.11098 55.6268H12.4815V78.8737C12.4815 79.4949 12.978 79.9982 13.5924 79.9982C14.2061 79.9982 14.7033 79.4956 14.7033 78.8737V55.6286H24.3458V78.8755C24.3458 79.4967 24.8424 80 25.4568 80C26.0704 80 26.5677 79.4974 26.5677 78.8755V55.6286H37.9396C38.2583 55.6286 38.561 55.4902 38.773 55.2488C38.9836 55.0074 39.0812 54.6855 39.0421 54.365C37.7785 44.1124 35.1844 35.3685 31.731 29.2188C33.4514 30.2339 35.367 31.2137 37.0484 31.7192C39.0777 33.383 41.6579 34.3854 44.4677 34.3854H70.1558C76.6679 34.3854 81.965 29.0233 81.965 22.4316C81.9636 15.8392 76.667 10.4771 70.1551 10.4771L70.1563 10.475ZM10.1091 13.6975C10.1091 8.44202 14.333 4.16708 19.5249 4.16708C24.7168 4.16708 28.94 8.44202 28.94 13.6975C28.94 18.953 24.7168 23.2279 19.5249 23.2279C14.333 23.2279 10.1091 18.953 10.1091 13.6975ZM21.4873 32.9994L19.5249 35.3254L17.5611 32.9994L19.5249 27.6055L21.4873 32.9994ZM36.673 53.3784H2.37641C4.2454 39.6471 8.68052 28.628 14.1291 24.1246C15.307 24.7515 16.6033 25.1736 17.9737 25.3593L15.2512 32.8399C15.1124 33.2218 15.1884 33.6488 15.4485 33.9587L18.6788 37.787C18.8901 38.0375 19.1997 38.1809 19.524 38.1809C19.8497 38.1809 20.1572 38.0368 20.3692 37.787L23.5987 33.9587C23.8588 33.6488 23.9349 33.2218 23.7961 32.8399L21.0743 25.3593C22.4453 25.1729 23.7416 24.7515 24.9188 24.1246C30.3675 28.6269 34.8033 39.647 36.673 53.3784H36.673ZM70.1556 32.1338H44.4657C39.1797 32.1338 34.8783 27.7797 34.8783 22.429C34.8783 17.0783 39.1797 12.7242 44.4657 12.7242C45.1156 12.7242 45.7656 12.7898 46.3966 12.9204C46.723 12.9882 47.0584 12.9042 47.3164 12.6945C47.5738 12.4849 47.7251 12.1686 47.73 11.8333C47.7948 6.5482 52.0928 2.24923 57.3111 2.24923C62.5289 2.24923 66.8267 6.5482 66.8922 11.8333C66.8964 12.1679 67.0485 12.4842 67.3058 12.6945C67.5638 12.9042 67.9027 12.9889 68.2256 12.9204C68.8567 12.7898 69.5067 12.7242 70.1553 12.7242C75.4413 12.7242 79.7427 17.0783 79.7427 22.429C79.7427 27.7797 75.4413 32.1338 70.1553 32.1338H70.1556Z" fill="#002225"/>
<path d="M15.708 43.3558C11.832 38.7287 12.816 32.3945 12.8264 32.3309C12.9261 31.7196 12.5182 31.1407 11.9142 31.0377C11.3229 30.9332 10.7385 31.3454 10.6353 31.9582C10.585 32.2568 9.45809 39.3519 13.9958 44.7902C17.2554 48.6974 22.531 50.6782 29.674 50.6782C30.2877 50.6782 30.7849 50.1756 30.7849 49.5537C30.7849 48.9325 30.2884 48.4292 29.674 48.4292C23.2262 48.4285 18.5272 46.7223 15.7079 43.3558L15.708 43.3558Z" fill="#002225"/>
</svg>
