<svg width="88" height="80" viewBox="0 0 88 80" fill="none" xmlns="http://www.w3.org/2000/svg">
<g clip-path="url(#clip0_735_26796)">
<path d="M30.8158 24.7312C32.721 25.0163 35.341 25.2922 38.3831 25.2922C40.9234 25.2922 43.7581 25.0941 46.7132 24.5553C46.6206 24.1942 46.5318 23.8313 46.4466 23.4666C46.2633 23.0944 46.1133 22.7111 46.0022 22.3149C37.4073 23.7869 29.8511 22.2649 28.3847 21.9335C28.2107 21.765 28.0403 21.5817 27.8626 21.4243C30.5788 19.2099 32.3174 15.84 32.3174 12.0703C32.3174 5.41579 26.9035 0 20.249 0C13.5945 0 8.18058 5.41579 8.18058 12.0703C8.18058 15.84 9.91919 19.2099 12.6373 21.4243C6.55121 26.8531 1.8779 38.7363 0.00782927 53.7357C-0.0329049 54.0616 0.0689305 54.3912 0.287414 54.6393C0.505897 54.8874 0.820661 55.0281 1.15209 55.0281H12.9446V78.8465C12.9446 79.4834 13.4594 79.9981 14.0963 79.9981C14.7332 79.9981 15.248 79.4834 15.248 78.8465V55.03H25.25V78.8483C25.25 79.4853 25.7648 80 26.4017 80C27.0386 80 27.5534 79.4853 27.5534 78.8483V55.03H39.3459C39.6773 55.03 39.9902 54.8874 40.2106 54.6411C40.4291 54.393 40.5309 54.0635 40.4902 53.7357C38.9367 41.2711 35.441 30.9765 30.8139 24.7312H30.8158ZM10.4858 12.0684C10.4858 6.6841 14.8665 2.30333 20.2508 2.30333C25.6352 2.30333 30.0159 6.6841 30.0159 12.0684C30.0159 17.4527 25.6352 21.8335 20.2508 21.8335C14.8665 21.8335 10.4858 17.4527 10.4858 12.0684ZM22.2857 31.8448L20.2508 34.2259L18.216 31.8448L20.2508 26.318L22.2857 31.8448ZM2.46484 52.7248C4.40526 38.6549 9.00452 27.3641 14.6536 22.7519C15.8756 23.3944 17.2199 23.8276 18.6418 24.0183L15.8182 31.6838C15.6738 32.0744 15.7534 32.5132 16.0238 32.8299L19.3732 36.7515C19.5917 37.0088 19.912 37.1551 20.249 37.1551C20.586 37.1551 20.9063 37.007 21.1248 36.7515L24.4742 32.8299C24.7446 32.5132 24.8223 32.0744 24.6798 31.6838L21.8561 24.0202C23.2781 23.8295 24.6224 23.3962 25.8444 22.7537C31.4953 27.3659 36.0946 38.6585 38.0331 52.7266H2.46484V52.7248Z" fill="#002225"/>
<path d="M27.6171 9.76506C27.6171 10.6001 26.9395 11.2778 26.1044 11.2778C25.2694 11.2778 24.5898 10.6001 24.5898 9.76506C24.5898 8.93001 25.2675 8.25049 26.1044 8.25049C26.9413 8.25049 27.6171 8.92816 27.6171 9.76506Z" fill="#002225"/>
<path d="M20.5174 9.76506C20.5174 10.6001 19.8398 11.2778 19.0029 11.2778C18.1659 11.2778 17.4883 10.6001 17.4883 9.76506C17.4883 8.93001 18.1659 8.25049 19.0029 8.25049C19.8398 8.25049 20.5174 8.92816 20.5174 9.76506Z" fill="#002225"/>
<path d="M13.4259 50.951C13.6518 51.251 13.9962 51.4084 14.3443 51.4084C14.585 51.4084 14.8312 51.3325 15.0386 51.1732C15.5459 50.79 15.6459 50.066 15.2608 49.5605C10.8504 43.7374 12.9371 31.9152 12.9593 31.7986C13.0741 31.1728 12.6594 30.5729 12.0335 30.4581C11.4096 30.3396 10.8078 30.758 10.693 31.3838C10.5967 31.9097 8.39893 44.3206 13.4259 50.951Z" fill="#002225"/>
<path d="M73.3326 47.9033H57.3463C56.2224 47.9033 54.8467 47.2405 54.145 46.3628L44.1762 33.863C43.4745 32.9854 43.1356 31.4949 43.3856 30.3988L46.9443 14.8142C47.1942 13.7181 48.1478 12.5239 49.1606 12.0351L63.5638 5.09915C64.5766 4.61034 66.1041 4.61034 67.1188 5.09915L81.522 12.0332C82.5348 12.5202 83.4884 13.7144 83.7383 14.8105L87.2952 30.3969C87.547 31.4949 87.2044 32.9835 86.5027 33.863L76.5376 46.361C75.834 47.2405 74.4583 47.9033 73.3345 47.9033H73.3307H73.3326ZM45.4075 30.8561C45.2983 31.3356 45.4908 32.1818 45.7982 32.5651L55.7669 45.0649C56.0724 45.4482 56.8575 45.8259 57.3482 45.8259H73.3345C73.827 45.8259 74.6083 45.45 74.9157 45.0649L84.8807 32.5669C85.1881 32.1818 85.3806 31.3356 85.2733 30.8561L81.7164 15.2716C81.6072 14.792 81.0647 14.1144 80.6222 13.9014L66.2189 6.96551C65.7746 6.75074 64.9062 6.75259 64.4637 6.96551L50.0586 13.9014C49.6161 14.1144 49.0736 14.7939 48.9643 15.2716L45.4056 30.8561H45.4093H45.4075Z" fill="#002225"/>
<path d="M65.3377 25.9347C64.7637 25.9347 64.3008 25.4718 64.3008 24.8978V12.4517C64.3008 11.8777 64.7637 11.4148 65.3377 11.4148C65.9116 11.4148 66.3745 11.8777 66.3745 12.4517V24.8978C66.3745 25.4718 65.9116 25.9347 65.3377 25.9347Z" fill="#002225"/>
<path d="M63.4542 26.8401C63.2284 26.8401 63.0006 26.766 62.8099 26.6142L53.0782 18.8543C52.6282 18.497 52.556 17.8452 52.9134 17.3971C53.2726 16.9491 53.9225 16.875 54.3705 17.2324L64.1023 24.9922C64.5522 25.3496 64.6244 26.0013 64.2671 26.4494C64.0616 26.7068 63.7597 26.8401 63.4542 26.8401Z" fill="#002225"/>
<path d="M50.8567 31.6485C50.3846 31.6485 49.9568 31.3245 49.8476 30.8431C49.7198 30.2858 50.0698 29.7285 50.6271 29.6026L62.7603 26.8326C63.3158 26.703 63.875 27.053 64.0009 27.6121C64.1286 28.1695 63.7787 28.7268 63.2214 28.8527L51.0881 31.6226C51.0104 31.6411 50.9326 31.6485 50.8567 31.6485Z" fill="#002225"/>
<path d="M58.8923 41.7246C58.7404 41.7246 58.5886 41.6931 58.4423 41.6227C57.9257 41.3746 57.7091 40.7543 57.9572 40.2378L63.3563 29.0248C63.6063 28.5082 64.2266 28.2934 64.7413 28.5397C65.2579 28.7878 65.4745 29.408 65.2264 29.9246L59.8273 41.1376C59.6477 41.5079 59.2774 41.7246 58.8923 41.7246Z" fill="#002225"/>
<path d="M71.7854 41.7247C71.4003 41.7247 71.03 41.5099 70.8504 41.1377L65.4494 29.9266C65.2013 29.4118 65.4179 28.7916 65.9345 28.5416C66.4511 28.2954 67.0695 28.5101 67.3195 29.0267L72.7204 40.2379C72.9686 40.7526 72.7519 41.3729 72.2353 41.6228C72.0891 41.6932 71.9372 41.7247 71.7854 41.7247Z" fill="#002225"/>
<path d="M79.8209 31.6468C79.745 31.6468 79.6672 31.6394 79.5894 31.6209L67.4562 28.851C66.8989 28.7232 66.5489 28.1696 66.6767 27.6104C66.8045 27.0513 67.3581 26.7013 67.9172 26.8309L80.0505 29.6009C80.6078 29.7286 80.9577 30.2841 80.83 30.8414C80.7207 31.3228 80.293 31.6468 79.8209 31.6468Z" fill="#002225"/>
<path d="M67.2198 26.8401C66.9161 26.8401 66.6124 26.7068 66.4069 26.4494C66.0496 26.0013 66.1236 25.3496 66.5717 24.9922L76.3035 17.2324C76.7515 16.875 77.4033 16.9491 77.7606 17.3971C78.118 17.8452 78.0439 18.497 77.5958 18.8543L67.8659 26.6142C67.6752 26.766 67.4475 26.8401 67.2216 26.8401H67.2198Z" fill="#002225"/>
<path d="M67.7467 27.3048C67.7467 28.6343 66.669 29.7119 65.3396 29.7119C64.0102 29.7119 62.9326 28.6343 62.9326 27.3048C62.9326 25.9754 64.0102 24.8978 65.3396 24.8978C66.669 24.8978 67.7467 25.9754 67.7467 27.3048Z" fill="#002225"/>
<path d="M65.3377 40.6082C58.0037 40.6082 52.0361 34.6407 52.0361 27.3067C52.0361 19.9727 58.0037 14.0051 65.3377 14.0051C72.6717 14.0051 78.6392 19.9727 78.6392 27.3067C78.6392 34.6407 72.6717 40.6082 65.3377 40.6082ZM65.3377 16.0789C59.1461 16.0789 54.1099 21.1151 54.1099 27.3067C54.1099 33.4983 59.1461 38.5345 65.3377 38.5345C71.5293 38.5345 76.5655 33.4983 76.5655 27.3067C76.5655 21.1151 71.5293 16.0789 65.3377 16.0789Z" fill="#002225"/>
</g>
<defs>
<clipPath id="clip0_735_26796">
<rect width="87.3784" height="80" fill="white"/>
</clipPath>
</defs>
</svg>
