<svg width="43" height="61" viewBox="0 0 43 61" fill="none" xmlns="http://www.w3.org/2000/svg">
<path d="M0.784563 42.3488C0.755906 42.5765 0.826792 42.8053 0.979124 42.9777C1.13146 43.1496 1.34965 43.2482 1.57942 43.2482H5.06396C4.9976 44.7228 4.98151 46.2537 5.03128 47.8272C5.04486 48.2611 5.4003 48.603 5.83115 48.603C5.8397 48.603 5.84775 48.603 5.8568 48.6025C6.29922 48.5884 6.64612 48.2189 6.63204 47.777C6.58327 46.224 6.60237 44.7097 6.67175 43.2481H38.297V59.5807C38.297 60.0231 38.6555 60.3816 39.0979 60.3816C39.5403 60.3816 39.8988 60.0231 39.8988 59.5807V42.4476C39.8988 42.0051 39.5403 41.6467 39.0979 41.6467H31.9483C31.349 37.1546 30.427 33.037 29.2399 29.4489C29.4234 29.456 29.6089 29.466 29.7879 29.466C32.4445 29.466 34.5907 28.6913 36.1825 27.1544C39.1045 24.3329 39.1598 19.8826 39.1171 18.6855C39.7083 17.8685 40.2684 16.9238 40.7586 15.7902C43.9475 8.41333 40.9481 3.37725 40.8194 3.16656C40.7334 3.02578 40.6057 2.91519 40.4544 2.84983L34.8964 0.447174C34.7019 0.363215 34.4807 0.359695 34.2831 0.437622C34.0855 0.516052 33.9276 0.669393 33.8432 0.864458L31.3838 6.55461C31.2083 6.96083 31.3953 7.43191 31.801 7.60788L35.9618 9.40678L33.1936 15.8098L29.0329 14.0109C28.6256 13.836 28.1556 14.0225 27.9796 14.4282L25.5482 20.052C25.4643 20.247 25.4608 20.4677 25.5387 20.6653C25.6171 20.8629 25.7705 21.0208 25.9655 21.1052L30.8618 23.2218C30.9594 23.264 31.0644 23.2861 31.1705 23.2876H31.1891C31.5058 23.2876 34.5444 23.2042 37.4252 20.5944C37.2342 22.2227 36.6706 24.4615 35.0632 26.0095C33.5766 27.4408 31.4203 28.0376 28.6668 27.8068C26.9247 23.1051 24.7061 19.4511 22.1757 17.2349C24.3169 15.5331 25.696 12.9128 25.696 9.97109C25.696 4.85303 21.5327 0.689821 16.4147 0.689821C11.2977 0.68781 7.13398 4.85161 7.13398 9.96968C7.13398 12.9108 8.51305 15.5316 10.6543 17.233C5.90073 21.3968 2.24475 30.644 0.784726 42.3484L0.784563 42.3488ZM31.3352 21.6801L27.3363 19.9516L29.1321 15.7979L33.2929 17.5968C33.6986 17.7708 34.1702 17.5853 34.3461 17.1795L37.7503 9.30591C37.8342 9.11084 37.8377 8.89013 37.7598 8.69255C37.6814 8.49496 37.528 8.33711 37.333 8.25264L33.1717 6.45374L34.9957 2.23364L39.5652 4.20952C40.0459 5.16324 41.8044 9.33311 39.2882 15.1534C38.8121 16.2544 38.2696 17.1679 37.696 17.9285C37.6935 17.9315 37.6915 17.9356 37.689 17.9386C35.1697 21.2754 32.0542 21.6409 31.3352 21.68L31.3352 21.6801ZM8.73593 9.97005C8.73593 5.73541 12.1808 2.28999 16.416 2.28999C20.6506 2.28999 24.0955 5.7349 24.0955 9.97005C24.0955 14.2047 20.6506 17.6496 16.416 17.6496C12.1808 17.6496 8.73593 14.2042 8.73593 9.97005ZM18.1042 25.3528L16.416 27.3296L14.7273 25.3528L16.416 20.7682L18.1042 25.3528ZM12.0556 18.1589C13.0425 18.6868 14.1365 19.0367 15.2948 19.177L13.0621 25.2392C12.962 25.5112 13.0168 25.8159 13.2049 26.0361L15.8071 29.0822C15.9595 29.2607 16.1817 29.3628 16.416 29.3628C16.6503 29.3628 16.8725 29.2602 17.0248 29.0822L19.6266 26.0361C19.8146 25.8159 19.8694 25.5112 19.7694 25.2392L17.5366 19.177C18.6944 19.0367 19.7884 18.6868 20.7753 18.1589C25.2182 21.7445 28.8329 30.6065 30.3392 41.6474L6.77084 41.648C7.45208 32.4482 10.0196 25.7298 10.0513 25.65C10.2111 25.2377 10.007 24.7737 9.59476 24.6133C9.1825 24.4539 8.71897 24.6565 8.55859 25.0688C8.42587 25.4097 5.82464 32.2029 5.15847 41.6485H2.49133C3.99704 30.6086 7.61235 21.7457 12.0552 18.1599L12.0556 18.1589Z" fill="white"/>
<path d="M21.9515 8.18154C21.9515 8.8311 21.4251 9.35747 20.7755 9.35747C20.126 9.35747 19.5996 8.8311 19.5996 8.18154C19.5996 7.53248 20.126 7.0061 20.7755 7.0061C21.4251 7.0061 21.9515 7.53248 21.9515 8.18154Z" fill="white"/>
<path d="M16.4354 8.18154C16.4354 8.8311 15.909 9.35747 15.2594 9.35747C14.6104 9.35747 14.084 8.8311 14.084 8.18154C14.084 7.53248 14.6104 7.0061 15.2594 7.0061C15.909 7.0061 16.4354 7.53248 16.4354 8.18154Z" fill="white"/>
</svg>
