<svg width="82" height="80" viewBox="0 0 82 80" fill="none" xmlns="http://www.w3.org/2000/svg">
<path d="M25.2743 9.6741C25.2743 10.6896 24.4612 11.5092 23.4639 11.5092C22.4667 11.5092 21.6541 10.6897 21.6541 9.6741C21.6541 8.65852 22.4667 7.83904 23.4639 7.83904C24.4612 7.83904 25.2743 8.6586 25.2743 9.6741Z" fill="#002225" stroke="#002225" stroke-width="0.4"/>
<path d="M18.2382 9.6741C18.2382 10.6897 17.4257 11.5092 16.4277 11.5092C15.4305 11.5092 14.618 10.6897 14.618 9.6741C14.618 8.65852 15.4305 7.83904 16.4277 7.83904C17.4257 7.83904 18.2382 8.65856 18.2382 9.6741Z" fill="#002225" stroke="#002225" stroke-width="0.4"/>
<path d="M16.2305 40.4942L16.2305 40.4944C16.2289 40.54 16.1068 42.9477 14.1457 45.2481L14.0997 45.302L14.0433 45.2591C13.2382 44.6474 11.8957 43.3283 11.2652 41.0084C10.6346 38.6882 10.719 35.377 12.749 30.7866C12.9628 30.3025 12.7487 29.7354 12.2719 29.5188C11.7948 29.3067 11.2353 29.5189 11.0213 30.0027M16.2305 40.4942L8.85419 48.5641M16.2305 40.4942C16.2466 39.9841 16.6405 39.5694 17.1369 39.5651L17.1369 39.5653L17.2068 39.5676C17.7276 39.5844 18.1385 40.0267 18.1219 40.5561L18.1219 40.5562C18.1131 40.8429 17.7993 47.8062 9.40632 50.3981L9.40602 50.3982C9.31421 50.427 9.22111 50.4402 9.12961 50.4402C8.72489 50.4402 8.34912 50.1745 8.22475 49.7614M16.2305 40.4942L8.22475 49.7614M11.0213 30.0027L10.9527 29.9723M11.0213 30.0027L10.9527 29.9723M11.0213 30.0027C8.84788 34.9176 8.72458 38.6 9.40566 41.2773C10.0869 43.9553 11.5751 45.6367 12.6399 46.5451L12.7107 46.6055L12.6366 46.6618C11.66 47.4046 10.4337 48.076 8.85419 48.5641M10.9527 29.9723C11.1836 29.4504 11.7877 29.2213 12.3027 29.4504M10.9527 29.9723L12.3027 29.4504M8.85419 48.5641C8.35488 48.7186 8.07223 49.2536 8.22475 49.7614M8.85419 48.5641L8.22475 49.7614M12.3027 29.4504C12.8176 29.6841 13.0478 30.2956 12.8176 30.8169C8.76787 39.9745 12.497 43.9901 14.0887 45.1994L12.3027 29.4504Z" fill="#002225" stroke="#002225" stroke-width="0.15"/>
<mask id="path-4-inside-1_735_26823" fill="white">
<path d="M80.498 39.492H70.6568V36.1476H78.1169C78.66 36.1476 79.1077 35.7172 79.1372 35.168L80.1587 15.7164C80.1735 15.4334 80.0728 15.1562 79.8798 14.9498C79.6867 14.744 79.4187 14.6278 79.1384 14.6278H51.74C51.1968 14.6278 50.7491 15.0582 50.7197 15.6074L49.6981 35.059C49.6833 35.342 49.784 35.6192 49.977 35.8256C50.1701 36.0314 50.4381 36.1476 50.7184 36.1476H57.7521V39.492H37.0239C36.0106 35.9886 34.8172 32.8344 33.4807 30.0949C36.1139 31.5497 40.1623 33.49 45.0702 34.8675C45.1613 34.8928 45.253 34.9051 45.3434 34.9051C45.7911 34.9051 46.2021 34.6052 46.3278 34.1476C46.4785 33.5971 46.1598 33.0265 45.616 32.874C37.9827 30.7324 32.379 27.0822 31.4845 26.4793C30.1775 24.3993 28.7719 22.6785 27.2937 21.364C30.0256 19.1666 31.7859 15.7826 31.7859 11.9839C31.7859 5.37549 26.4746 0 19.947 0C13.4179 0 8.10684 5.37632 8.10684 11.9845C8.10684 15.7821 9.86594 19.1661 12.5973 21.3635C6.53376 26.7392 1.87032 38.6797 0.0079628 53.7923C-0.0285915 54.087 0.0618299 54.383 0.256139 54.605C0.450452 54.827 0.728771 54.9543 1.02185 54.9543H12.828V78.9659C12.828 79.5371 13.2853 80 13.8496 80C14.414 80 14.8712 79.5378 14.8712 78.9659L14.8706 54.9543H25.0209V78.9659C25.0209 79.5371 25.4782 80 26.0425 80C26.6069 80 27.0641 79.5378 27.0641 78.9659V54.9543H29.9327V78.9659C29.9327 79.5371 30.3899 80 30.9543 80H35.9447C36.5091 80 36.9663 79.5378 36.9663 78.9659V69.9628H57.7537V78.9659C57.7537 79.5371 58.2109 80 58.7752 80H77.4119C77.9763 80 78.4335 79.5378 78.4335 78.9659L78.4329 46.8479H80.4998C81.0641 46.8479 81.5214 46.3857 81.5214 45.8138V40.5259C81.5214 39.954 81.0641 39.4918 80.4998 39.4918L80.498 39.492ZM51.796 34.0795L52.7085 16.6952H78.0615L77.1489 34.0795H51.796ZM68.6153 36.1476V39.492H59.7962V36.1476H68.6153ZM10.1507 11.9847C10.1507 6.51702 14.5449 2.06832 19.9471 2.06832C25.3487 2.06832 29.7436 6.51635 29.7436 11.9847C29.7436 17.4525 25.3493 21.9011 19.9471 21.9011C14.5449 21.9005 10.1507 17.4525 10.1507 11.9847ZM22.1006 31.8468L19.9471 34.3992L17.7937 31.8468L19.9471 25.9272L22.1006 31.8468ZM29.9333 52.8871H2.18515C4.10578 38.6319 8.71735 27.1887 14.3845 22.5589C15.6434 23.2405 17.0388 23.6923 18.5164 23.8734L15.6683 31.7009C15.5407 32.0521 15.6106 32.4449 15.8505 32.7298L19.1692 36.6637C19.3635 36.8941 19.647 37.0259 19.9458 37.0259C20.2446 37.0259 20.5281 36.8935 20.7224 36.6637L24.0411 32.7298C24.281 32.4449 24.3509 32.0521 24.2233 31.7009L21.3752 23.8734C22.8566 23.6917 24.2553 23.2379 25.5173 22.5537C29.229 25.5872 32.5221 31.5367 34.8942 39.4926H27.8651C27.3007 39.4926 26.8435 39.9548 26.8435 40.5267V45.8147C26.8435 46.3859 27.3007 46.8488 27.8651 46.8488H29.932L29.9333 52.8871ZM34.9238 77.9324H31.9764V53.9224C31.9764 53.9218 31.9771 53.9205 31.9771 53.9198C31.9771 53.9192 31.9764 53.9179 31.9764 53.9172V46.848H34.9238V77.9324ZM57.7534 67.8953H36.9661V65.5766H57.7534V67.8953ZM57.7534 63.5085H36.9661V46.8487H57.7534V63.5085ZM76.3901 77.9326H59.7974V46.8499H76.3901V77.9326ZM79.4785 44.7809H28.8892V41.5605H36.25C36.2545 41.5605 36.2577 41.5624 36.2622 41.5624C36.2666 41.5624 36.2718 41.5605 36.2769 41.5605H79.4785L79.4785 44.7809Z"/>
</mask>
<path d="M80.498 39.492H70.6568V36.1476H78.1169C78.66 36.1476 79.1077 35.7172 79.1372 35.168L80.1587 15.7164C80.1735 15.4334 80.0728 15.1562 79.8798 14.9498C79.6867 14.744 79.4187 14.6278 79.1384 14.6278H51.74C51.1968 14.6278 50.7491 15.0582 50.7197 15.6074L49.6981 35.059C49.6833 35.342 49.784 35.6192 49.977 35.8256C50.1701 36.0314 50.4381 36.1476 50.7184 36.1476H57.7521V39.492H37.0239C36.0106 35.9886 34.8172 32.8344 33.4807 30.0949C36.1139 31.5497 40.1623 33.49 45.0702 34.8675C45.1613 34.8928 45.253 34.9051 45.3434 34.9051C45.7911 34.9051 46.2021 34.6052 46.3278 34.1476C46.4785 33.5971 46.1598 33.0265 45.616 32.874C37.9827 30.7324 32.379 27.0822 31.4845 26.4793C30.1775 24.3993 28.7719 22.6785 27.2937 21.364C30.0256 19.1666 31.7859 15.7826 31.7859 11.9839C31.7859 5.37549 26.4746 0 19.947 0C13.4179 0 8.10684 5.37632 8.10684 11.9845C8.10684 15.7821 9.86594 19.1661 12.5973 21.3635C6.53376 26.7392 1.87032 38.6797 0.0079628 53.7923C-0.0285915 54.087 0.0618299 54.383 0.256139 54.605C0.450452 54.827 0.728771 54.9543 1.02185 54.9543H12.828V78.9659C12.828 79.5371 13.2853 80 13.8496 80C14.414 80 14.8712 79.5378 14.8712 78.9659L14.8706 54.9543H25.0209V78.9659C25.0209 79.5371 25.4782 80 26.0425 80C26.6069 80 27.0641 79.5378 27.0641 78.9659V54.9543H29.9327V78.9659C29.9327 79.5371 30.3899 80 30.9543 80H35.9447C36.5091 80 36.9663 79.5378 36.9663 78.9659V69.9628H57.7537V78.9659C57.7537 79.5371 58.2109 80 58.7752 80H77.4119C77.9763 80 78.4335 79.5378 78.4335 78.9659L78.4329 46.8479H80.4998C81.0641 46.8479 81.5214 46.3857 81.5214 45.8138V40.5259C81.5214 39.954 81.0641 39.4918 80.4998 39.4918L80.498 39.492ZM51.796 34.0795L52.7085 16.6952H78.0615L77.1489 34.0795H51.796ZM68.6153 36.1476V39.492H59.7962V36.1476H68.6153ZM10.1507 11.9847C10.1507 6.51702 14.5449 2.06832 19.9471 2.06832C25.3487 2.06832 29.7436 6.51635 29.7436 11.9847C29.7436 17.4525 25.3493 21.9011 19.9471 21.9011C14.5449 21.9005 10.1507 17.4525 10.1507 11.9847ZM22.1006 31.8468L19.9471 34.3992L17.7937 31.8468L19.9471 25.9272L22.1006 31.8468ZM29.9333 52.8871H2.18515C4.10578 38.6319 8.71735 27.1887 14.3845 22.5589C15.6434 23.2405 17.0388 23.6923 18.5164 23.8734L15.6683 31.7009C15.5407 32.0521 15.6106 32.4449 15.8505 32.7298L19.1692 36.6637C19.3635 36.8941 19.647 37.0259 19.9458 37.0259C20.2446 37.0259 20.5281 36.8935 20.7224 36.6637L24.0411 32.7298C24.281 32.4449 24.3509 32.0521 24.2233 31.7009L21.3752 23.8734C22.8566 23.6917 24.2553 23.2379 25.5173 22.5537C29.229 25.5872 32.5221 31.5367 34.8942 39.4926H27.8651C27.3007 39.4926 26.8435 39.9548 26.8435 40.5267V45.8147C26.8435 46.3859 27.3007 46.8488 27.8651 46.8488H29.932L29.9333 52.8871ZM34.9238 77.9324H31.9764V53.9224C31.9764 53.9218 31.9771 53.9205 31.9771 53.9198C31.9771 53.9192 31.9764 53.9179 31.9764 53.9172V46.848H34.9238V77.9324ZM57.7534 67.8953H36.9661V65.5766H57.7534V67.8953ZM57.7534 63.5085H36.9661V46.8487H57.7534V63.5085ZM76.3901 77.9326H59.7974V46.8499H76.3901V77.9326ZM79.4785 44.7809H28.8892V41.5605H36.25C36.2545 41.5605 36.2577 41.5624 36.2622 41.5624C36.2666 41.5624 36.2718 41.5605 36.2769 41.5605H79.4785L79.4785 44.7809Z" fill="#002225" stroke="#002225" stroke-width="0.3" mask="url(#path-4-inside-1_735_26823)"/>
</svg>
