<svg width="59" height="61" viewBox="0 0 59 61" fill="none" xmlns="http://www.w3.org/2000/svg">
<path d="M33.8098 7.74719C33.8098 8.38582 34.3273 8.90333 34.9659 8.90333C35.6046 8.90333 36.1221 8.38582 36.1221 7.74719C36.1221 7.10907 35.6046 6.59155 34.9659 6.59155C34.3273 6.59155 33.8098 7.10907 33.8098 7.74719Z" fill="white"/>
<path d="M39.2331 7.74719C39.2331 8.38582 39.7507 8.90333 40.3893 8.90333C41.0274 8.90333 41.5449 8.38582 41.5449 7.74719C41.5449 7.10907 41.0274 6.59155 40.3893 6.59155C39.7507 6.59155 39.2331 7.10907 39.2331 7.74719Z" fill="white"/>
<path d="M31.4248 21.1791C31.3971 21.2908 28.6869 32.352 34.0637 37.0494C34.3914 37.3356 34.4245 37.8328 34.1383 38.1605C33.9831 38.338 33.7647 38.4294 33.5457 38.4294C33.3618 38.4294 33.1765 38.3657 33.0277 38.2347C26.9326 32.9092 29.7743 21.2863 29.8984 20.794C30.0047 20.3719 30.4312 20.1183 30.8544 20.2226C31.275 20.3294 31.531 20.758 31.4248 21.1791L31.4248 21.1791Z" fill="white"/>
<path d="M29.1793 15.4331C27.8112 13.8371 26.9787 11.7689 26.9787 9.50659C26.9787 4.4747 31.0724 0.381592 36.1037 0.381592C38.9736 0.381592 41.5349 1.71618 43.2085 3.79418C49.4094 4.83959 57.6945 7.16374 58.0931 12.1486C58.2123 13.6423 57.7461 14.9526 56.7077 16.0421C53.8839 19.0033 47.4062 19.5234 44.3737 19.6005C47.762 24.3876 50.317 32.0792 51.4717 41.3396C51.4994 41.564 51.4302 41.7894 51.2809 41.9585C51.1311 42.1275 50.9166 42.2244 50.6902 42.2244H43.572V59.5942C43.572 60.0292 43.22 60.3816 42.7846 60.3816C42.3496 60.3816 41.9972 60.0297 41.9972 59.5942V42.2244H32.7579V59.5942C32.7579 60.0292 32.406 60.3816 31.9705 60.3816C31.5355 60.3816 31.1831 60.0297 31.1831 59.5942L31.1836 42.2244H21.5178C21.2919 42.2244 21.0774 42.1275 20.9271 41.9585C20.7778 41.7894 20.7086 41.564 20.7363 41.3396C20.7546 41.1938 20.7773 41.0534 20.7961 40.9081C20.3092 41.0816 19.8397 41.1607 19.3715 41.1607C18.2382 41.1607 17.1048 40.7222 15.7084 40.1835C14.6319 39.7668 13.411 39.2952 11.8208 38.8538C6.86851 37.4792 2.18017 40.7662 2.13373 40.7993C1.82382 41.0208 1.40119 40.9886 1.12786 40.7242C0.855515 40.4602 0.809544 40.0401 1.01961 39.7233C13.357 21.1589 25.1313 16.5264 29.1793 15.4331L29.1793 15.4331ZM42.3468 5.26708C40.0746 4.89587 37.9946 4.67541 36.5439 4.57952C36.1094 4.55085 35.7812 4.17569 35.8094 3.7422C35.8386 3.30772 36.2167 2.98643 36.6467 3.00769C37.1539 3.0413 38.6047 3.15004 40.5209 3.39619C39.2773 2.49412 37.7534 1.95582 36.103 1.95582C31.9397 1.95582 28.5523 5.34272 28.5523 9.50656C28.5523 13.6694 31.9392 17.0563 36.103 17.0563C40.2663 17.0563 43.6538 13.6694 43.6538 9.50656C43.6538 7.93623 43.1708 6.47662 42.3469 5.26705L42.3468 5.26708ZM34.4432 24.6298L36.1029 26.5728L37.7627 24.6298L36.1029 20.1219L34.4432 24.6298ZM55.5686 14.9552C56.2942 14.194 56.6076 13.3166 56.5235 12.2746C56.2482 8.83138 50.0899 6.75149 44.3508 5.62543C44.9083 6.80529 45.2296 8.11758 45.2296 9.50659C45.2296 12.3977 43.8733 14.9744 41.7686 16.6471C42.2371 17.0574 42.6924 17.5274 43.1382 18.0356C44.8322 18.0484 52.7135 17.9496 55.5685 14.9552H55.5686ZM49.7938 40.6499C48.3124 29.7954 44.758 21.0821 40.3905 17.5568C39.4198 18.0758 38.3447 18.4198 37.2058 18.5577L39.401 24.5183C39.4994 24.7857 39.4455 25.0847 39.2611 25.3017L36.7032 28.2966C36.5534 28.4721 36.3349 28.5724 36.1041 28.5724C35.8733 28.5724 35.6553 28.4716 35.505 28.2966L32.9471 25.3017C32.7627 25.0847 32.7088 24.7857 32.8072 24.5183L35.0023 18.5577C33.864 18.4198 32.7884 18.0758 31.8182 17.5568C27.4506 21.082 23.8963 29.7954 22.4149 40.6499H49.7938ZM12.2425 37.3361C13.9073 37.7982 15.2211 38.3064 16.2769 38.7142C18.5408 39.5891 19.5585 39.9638 21.0612 39.0192C22.6483 28.7435 26.0011 20.6624 30.2782 16.7891C27.652 17.3931 16.3249 20.8897 4.12667 37.9866C6.18886 37.1622 9.12984 36.4741 12.2424 37.3367L12.2425 37.3361Z" fill="white"/>
</svg>
