<svg width="78" height="80" viewBox="0 0 78 80" fill="none" xmlns="http://www.w3.org/2000/svg">
<path d="M1.08467 58.4151H51.0159V78.8994C51.0159 79.5066 51.5012 79.9986 52.1018 79.9986C52.7017 79.9986 53.1877 79.5066 53.1877 78.8994V57.3146C53.1877 56.7074 52.7024 56.2154 52.1018 56.2154H42.263C41.7347 52.2083 41.0251 48.4146 40.1471 44.8994H47.754C48.3539 44.8994 48.84 44.4074 48.84 43.8002C48.84 43.193 48.3546 42.701 47.754 42.701H39.5677C39.1655 41.2567 38.7299 39.876 38.2725 38.5407H52.1018C52.7017 38.5407 53.1878 38.0487 53.1878 37.4414C53.1878 36.8342 52.7024 36.3422 52.1018 36.3422L37.4762 36.3429C35.1667 30.3162 32.2845 25.6079 29.0131 22.7077C31.9164 20.3719 33.7863 16.7755 33.7863 12.7387C33.7863 5.71407 28.1405 0 21.2018 0C14.2636 0 8.61795 5.71495 8.61795 12.7387C8.61795 16.7755 10.4885 20.3726 13.3912 22.7077C6.94456 28.4227 1.98721 41.1146 0.00824916 57.179C-0.0299252 57.4916 0.0655094 57.8056 0.271377 58.0423C0.477929 58.2789 0.773777 58.4142 1.08531 58.4142L1.08467 58.4151ZM10.7884 12.739C10.7884 6.92687 15.4594 2.19797 21.2004 2.19797C26.9422 2.19797 31.6139 6.92616 31.6139 12.739C31.6139 18.5511 26.9429 23.2793 21.2004 23.2793C15.4594 23.2793 10.7884 18.5511 10.7884 12.739ZM23.4909 33.8521L21.2004 36.5645L18.9114 33.8514L21.2004 27.559L23.4909 33.8521ZM15.2889 23.9778C16.627 24.7023 18.1104 25.1825 19.6803 25.3751L16.6528 33.6956C16.5172 34.0689 16.5915 34.4871 16.8458 34.7893L20.3735 38.9702C20.5801 39.2152 20.8814 39.3553 21.1997 39.3553C21.5167 39.3553 21.8187 39.2145 22.0259 38.9702L25.5551 34.7893C25.8093 34.4871 25.8836 34.0682 25.748 33.6956L22.7199 25.3751C24.2898 25.1826 25.7731 24.7023 27.1113 23.9778C31.2048 27.3217 34.7809 33.9985 37.2923 42.7026L14.8169 42.7032V33.4603C14.8169 32.853 14.3316 32.361 13.731 32.361C13.1311 32.361 12.6451 32.853 12.6451 33.4603V43.8025C12.6451 44.4098 13.1304 44.9018 13.731 44.9018H37.8886C38.7966 48.4148 39.5397 52.2099 40.0796 56.2177L2.32058 56.217C4.36358 41.0639 9.26561 28.9 15.2883 23.9786L15.2889 23.9778Z" fill="#002225"/>
<path d="M27.7974 9.77658C27.8799 10.6633 27.2364 11.4506 26.3604 11.5341C25.4837 11.6183 24.7059 10.9669 24.6234 10.0795C24.5403 9.19212 25.1838 8.40547 26.0604 8.3213C26.9371 8.2378 27.7149 8.88919 27.7974 9.77658Z" fill="#002225"/>
<path d="M20.3501 10.4884C20.4326 11.3758 19.7891 12.1631 18.9131 12.2466C18.0365 12.3301 17.2587 11.6794 17.1762 10.792C17.093 9.90464 17.7365 9.1173 18.6132 9.03381C19.4898 8.94963 20.2676 9.60102 20.3501 10.4884Z" fill="#002225"/>
<path d="M65.3867 17.4908L56.5847 49.7434H45.1289C44.529 49.7434 44.043 50.2354 44.043 50.8426C44.043 51.4498 44.5283 51.9418 45.1289 51.9418H63.1699V77.8015H59.5816C58.9817 77.8015 58.4957 78.2935 58.4957 78.9007C58.4957 79.508 58.981 80 59.5816 80L76.2113 79.9993C76.8112 79.9993 77.2972 79.5073 77.2972 78.9C77.2972 78.2928 76.8119 77.8008 76.2113 77.8008H75.0197V50.8601L76.3231 17.8267C76.3347 17.5279 76.2256 17.2367 76.0211 17.0214C75.8166 16.8054 75.5344 16.684 75.2385 16.684H66.4339C65.9445 16.684 65.5171 17.0138 65.3868 17.4906L65.3867 17.4908ZM72.8478 77.8005H65.341V51.9409H72.8478V77.8005ZM74.1075 18.8828L72.89 49.7434H58.8379L67.2594 18.8828H74.1075Z" fill="#002225"/>
</svg>
