<svg width="320" height="578" viewBox="0 0 320 578" fill="none" xmlns="http://www.w3.org/2000/svg">
<path d="M0.602573 21.4143C0.500406 19.6118 1.79399 18.0286 3.57969 17.7761C5.61639 17.4788 8.19465 17.1129 9.84974 16.8876C11.1836 16.7156 12.528 16.5238 13.8536 16.2716C15.5855 16.198 17.2993 16.0339 18.9871 15.6793C33.1162 14.4459 47.2074 12.6315 61.3499 11.7085C84.2562 10.2194 107.225 9.58179 130.122 8.03251C149.113 6.75122 168.025 4.48805 187.009 3.05658C202.998 1.85223 219.017 0.638516 235.033 0.514979C248.569 0.409323 262.106 2.12411 275.65 2.52876C282.717 2.73728 289.808 2.29616 296.887 1.92481C299.627 2.45248 302.505 2.56298 305.173 2.69906C306.802 2.78329 309.712 2.79444 310.882 2.79902C311.212 2.80596 311.519 2.93244 311.755 3.15744L312.147 3.54576C312.46 3.85241 312.662 4.26674 312.702 4.70769C312.873 6.60168 313.34 11.9827 313.456 15.0058C313.555 17.4284 313.84 19.5749 314.487 21.6289C315.323 45.6418 316.008 69.6715 316.744 93.6922C316.958 100.658 317.191 107.625 317.395 114.591C317.534 119.385 317.624 124.177 317.753 128.971C317.987 137.368 318.25 145.755 318.454 154.152C318.454 154.152 318.599 156.755 318.772 160.44C318.849 160.601 318.865 160.772 318.791 160.95C319.024 166.056 319.309 172.984 319.342 178.035C319.372 178.066 319.371 178.106 319.34 178.135C319.361 180.957 319.304 183.186 319.134 184.132C319.062 192.803 318.93 201.472 318.748 210.15C318.531 220.478 318.034 230.8 318.077 241.123C318.182 266.101 318.817 291.079 318.683 316.052C318.55 339.514 317.777 362.973 317.164 386.426C316.701 404.15 316.089 421.861 315.447 439.581C314.686 460.54 313.656 481.493 313.105 502.466C312.928 508.974 314.241 515.503 314.294 522.025C314.41 535.541 314.146 549.058 314.162 562.572C313.776 565.264 314.005 568.169 313.96 570.759C313.945 571.469 313.955 572.439 313.975 573.38C314.011 575.021 312.732 576.375 311.1 576.45C308.587 576.567 305.052 576.753 302.828 576.957C301.996 577.009 301.155 577.081 300.313 577.134C299.787 576.963 299.158 576.879 298.448 576.874C292.788 576.836 287.123 576.997 281.473 576.958C240.569 576.708 199.666 576.439 158.762 576.18C158.757 576.41 158.753 576.63 158.748 576.859C139.182 576.448 119.615 576.097 100.051 575.606C77.8178 575.059 55.5874 574.372 33.354 573.824C33.284 573.823 33.1938 573.831 33.1136 573.839C31.03 573.515 28.9819 573.402 26.9407 573.44C24.8036 573.275 22.6444 573.219 20.5027 573.274C20.1024 573.286 19.7143 573.188 19.3686 572.98L17.9262 572.13C15.8023 570.865 14.5717 568.499 14.8036 566.033C15.0611 563.298 15.2352 559.771 14.7603 557.62C14.4009 552.351 14.0118 547.072 13.3218 541.826C12.8482 538.186 11.2925 534.632 11.1986 531.009C10.7746 514.537 11.2215 498.033 10.3667 481.591C9.37081 462.346 6.5528 443.182 5.98681 423.946C5.397 403.94 7.08882 383.881 6.83936 363.861C6.3979 328.704 5.28594 293.563 4.33416 258.415C4.02507 246.946 3.07564 235.484 2.82653 224.016C2.54112 210.467 2.80602 196.909 2.6208 183.352C2.38289 165.163 1.78484 146.977 1.6269 128.79C1.50235 113.774 1.86792 98.758 1.85357 83.7344C1.84158 72.8817 1.58939 62.034 1.41744 51.178C1.33665 46.4553 1.26587 41.7328 1.11509 37.0085C1.44878 33.5048 0.845174 29.8613 0.778513 26.3691C0.756269 25.0484 0.657494 23.0859 0.562394 21.4235L0.602573 21.4143Z" fill="#00AABB"/>
</svg>
