<svg width="320" height="578" viewBox="0 0 320 578" fill="none" xmlns="http://www.w3.org/2000/svg">
<path d="M319.34 556.258C319.442 558.06 318.148 559.644 316.363 559.896C314.326 560.193 311.748 560.559 310.093 560.785C308.759 560.957 307.414 561.148 306.089 561.401C304.357 561.474 302.643 561.638 300.955 561.993C286.826 563.226 272.735 565.041 258.592 565.964C235.686 567.453 212.718 568.09 189.82 569.64C170.829 570.921 151.917 573.184 132.933 574.616C116.944 575.82 100.925 577.034 84.909 577.157C71.3738 577.263 57.8368 575.548 44.2923 575.143C37.2251 574.935 30.1343 575.376 23.0549 575.747C20.3154 575.22 17.4371 575.109 14.7694 574.973C13.1408 574.889 10.2304 574.878 9.06022 574.873C8.7303 574.866 8.42289 574.74 8.18756 574.515L7.79563 574.126C7.48201 573.82 7.28067 573.405 7.23992 572.964C7.06968 571.07 6.60263 565.689 6.48611 562.666C6.38699 560.244 6.10202 558.097 5.45503 556.043C4.61935 532.03 3.93405 508.001 3.19855 483.98C2.98485 477.014 2.75116 470.047 2.54747 463.082C2.40815 458.288 2.31883 453.495 2.18952 448.701C1.95588 440.304 1.69203 431.917 1.48839 423.521C1.48839 423.521 1.34306 420.917 1.17043 417.233C1.0938 417.071 1.07738 416.9 1.15115 416.722C0.91837 411.616 0.63385 404.688 0.599979 399.637C0.570616 399.606 0.571456 399.566 0.60208 399.537C0.581344 396.716 0.638193 394.486 0.808119 393.54C0.880295 384.869 1.01246 376.2 1.19482 367.522C1.41185 357.194 1.90881 346.873 1.86569 336.549C1.76043 311.572 1.12509 286.593 1.25978 261.62C1.39274 238.158 2.16577 214.699 2.77862 191.246C3.2411 173.522 3.85334 155.811 4.49577 138.091C5.25627 117.132 6.28671 96.1792 6.83746 75.2061C7.01423 68.6984 5.70111 62.1694 5.64813 55.6468C5.53206 42.1314 5.79611 28.6139 5.78001 15.1006C6.16667 12.4081 5.93766 9.50269 5.98208 6.91302C5.99699 6.20316 5.98738 5.23277 5.96714 4.29214C5.93161 2.65101 7.21032 1.29757 8.84227 1.22186C11.3553 1.10465 14.89 0.918858 17.1147 0.715554C17.946 0.663 18.7877 0.590702 19.629 0.538358C20.1555 0.709431 20.7839 0.79272 21.494 0.797629C27.1544 0.836543 32.819 0.67555 38.4695 0.714254C79.3733 0.96369 120.277 1.23302 161.18 1.49246C161.185 1.26253 161.19 1.04255 161.195 0.81262C180.76 1.22377 200.327 1.57495 219.891 2.0661C242.125 2.61335 264.355 3.30052 286.588 3.84777C286.658 3.84924 286.749 3.84113 286.829 3.8328C288.912 4.15668 290.96 4.26974 293.002 4.2326C295.139 4.39753 297.298 4.45285 299.44 4.39786C299.84 4.38625 300.228 4.48445 300.574 4.69177L302.016 5.54227C304.14 6.80714 305.371 9.17354 305.139 11.6392C304.881 14.3744 304.707 17.9015 305.182 20.052C305.541 25.3207 305.931 30.6001 306.621 35.8457C307.094 39.4865 308.65 43.0399 308.744 46.6627C309.168 63.1352 308.721 79.6395 309.576 96.0811C310.572 115.326 313.39 134.49 313.956 153.726C314.545 173.733 312.854 193.791 313.103 213.811C313.544 248.968 314.656 284.109 315.608 319.257C315.917 330.726 316.867 342.189 317.116 353.656C317.401 367.205 317.136 380.763 317.322 394.32C317.559 412.509 318.158 430.695 318.315 448.883C318.44 463.898 318.074 478.914 318.089 493.938C318.101 504.79 318.353 515.638 318.525 526.494C318.606 531.217 318.677 535.939 318.827 540.664C318.494 544.167 319.097 547.811 319.164 551.303C319.186 552.624 319.285 554.586 319.38 556.249L319.34 556.258Z" fill="#002225"/>
</svg>
