<svg width="320" height="578" viewBox="0 0 320 578" fill="none" xmlns="http://www.w3.org/2000/svg">
<path d="M319.34 21.4143C319.442 19.6118 318.148 18.0286 316.363 17.7761C314.326 17.4788 311.748 17.1129 310.093 16.8876C308.759 16.7156 307.414 16.5238 306.089 16.2716C304.357 16.198 302.643 16.0339 300.955 15.6793C286.826 14.4459 272.735 12.6315 258.592 11.7085C235.686 10.2194 212.718 9.58179 189.82 8.03251C170.829 6.75122 151.917 4.48805 132.933 3.05658C116.944 1.85223 100.925 0.638516 84.909 0.514979C71.3738 0.409323 57.8368 2.12411 44.2923 2.52876C37.2251 2.73728 30.1343 2.29616 23.0549 1.92481C20.3154 2.45248 17.4371 2.56298 14.7694 2.69906C13.1408 2.78329 10.2304 2.79444 9.06022 2.79902C8.7303 2.80596 8.42289 2.93244 8.18756 3.15744L7.79563 3.54576C7.48201 3.85241 7.28067 4.26674 7.23992 4.70769C7.06968 6.60168 6.60263 11.9827 6.48611 15.0058C6.38699 17.4284 6.10202 19.5749 5.45503 21.6289C4.61935 45.6418 3.93405 69.6715 3.19855 93.6922C2.98485 100.658 2.75116 107.625 2.54747 114.591C2.40815 119.385 2.31883 124.177 2.18952 128.971C1.95588 137.368 1.69203 145.755 1.48839 154.152C1.48839 154.152 1.34306 156.755 1.17043 160.44C1.0938 160.601 1.07738 160.772 1.15115 160.95C0.91837 166.056 0.63385 172.984 0.599979 178.035C0.570616 178.066 0.571456 178.106 0.60208 178.135C0.581344 180.957 0.638193 183.186 0.808119 184.132C0.880295 192.803 1.01246 201.472 1.19482 210.15C1.41185 220.478 1.90881 230.8 1.86569 241.123C1.76043 266.101 1.12509 291.079 1.25978 316.052C1.39274 339.514 2.16577 362.973 2.77862 386.426C3.2411 404.15 3.85334 421.861 4.49577 439.581C5.25627 460.54 6.28671 481.493 6.83746 502.466C7.01423 508.974 5.70111 515.503 5.64813 522.025C5.53206 535.541 5.79611 549.058 5.78001 562.572C6.16667 565.264 5.93766 568.169 5.98208 570.759C5.99699 571.469 5.98738 572.439 5.96714 573.38C5.93161 575.021 7.21032 576.375 8.84227 576.45C11.3553 576.567 14.89 576.753 17.1147 576.957C17.946 577.009 18.7877 577.081 19.629 577.134C20.1555 576.963 20.7839 576.879 21.494 576.874C27.1544 576.836 32.819 576.997 38.4695 576.958C79.3733 576.708 120.277 576.439 161.18 576.18C161.185 576.41 161.19 576.63 161.195 576.859C180.76 576.448 200.327 576.097 219.891 575.606C242.125 575.059 264.355 574.372 286.588 573.824C286.658 573.823 286.749 573.831 286.829 573.839C288.912 573.515 290.96 573.402 293.002 573.44C295.139 573.275 297.298 573.219 299.44 573.274C299.84 573.286 300.228 573.188 300.574 572.98L302.016 572.13C304.14 570.865 305.371 568.499 305.139 566.033C304.881 563.298 304.707 559.771 305.182 557.62C305.541 552.351 305.931 547.072 306.621 541.826C307.094 538.186 308.65 534.632 308.744 531.009C309.168 514.537 308.721 498.033 309.576 481.591C310.572 462.346 313.39 443.182 313.956 423.946C314.545 403.94 312.854 383.881 313.103 363.861C313.544 328.704 314.656 293.563 315.608 258.415C315.917 246.946 316.867 235.484 317.116 224.016C317.401 210.467 317.136 196.909 317.322 183.352C317.559 165.163 318.158 146.977 318.315 128.79C318.44 113.774 318.074 98.758 318.089 83.7344C318.101 72.8817 318.353 62.034 318.525 51.178C318.606 46.4553 318.677 41.7328 318.827 37.0085C318.494 33.5048 319.097 29.8613 319.164 26.3691C319.186 25.0484 319.285 23.0859 319.38 21.4235L319.34 21.4143Z" fill="#002225"/>
</svg>
