<?xml version="1.0" standalone="no"?>
<!DOCTYPE svg PUBLIC "-//W3C//DTD SVG 20010904//EN"
 "http://www.w3.org/TR/2001/REC-SVG-20010904/DTD/svg10.dtd">
<svg version="1.0" xmlns="http://www.w3.org/2000/svg"
 width="1216.000000pt" height="1216.000000pt" viewBox="0 0 1216.000000 1216.000000"
 preserveAspectRatio="xMidYMid meet">
<metadata>
Created by potrace 1.14, written by Peter Selinger 2001-2017
</metadata>
<g transform="translate(0.000000,1216.000000) scale(0.100000,-0.100000)"
fill="#000000" stroke="none">
<path d="M6007 10124 c-2 -3 -31 -7 -63 -9 -56 -4 -114 -12 -159 -22 -11 -2
-29 -6 -40 -7 -35 -6 -120 -26 -135 -33 -8 -3 -25 -7 -37 -9 -54 -7 -250 -83
-378 -147 -123 -62 -160 -82 -163 -89 -2 -5 -10 -8 -18 -8 -8 0 -14 -4 -14
-10 0 -5 -5 -10 -11 -10 -16 0 -214 -143 -285 -205 -12 -11 -46 -40 -74 -65
-47 -41 -136 -129 -222 -221 -75 -80 -248 -302 -248 -319 0 -5 -6 -13 -12 -17
-7 -4 -22 -24 -32 -43 -11 -19 -22 -37 -25 -40 -9 -8 -61 -89 -61 -95 0 -3
-12 -24 -27 -48 -39 -61 -135 -246 -196 -377 l-16 -35 -178 -1 c-181 -1 -398
-10 -443 -19 -14 -2 -52 -7 -85 -10 -33 -3 -73 -7 -90 -10 -16 -3 -48 -7 -70
-10 -22 -2 -51 -6 -65 -9 -14 -3 -52 -10 -85 -15 -33 -6 -71 -14 -85 -17 -14
-3 -36 -7 -50 -10 -123 -24 -476 -126 -565 -164 -11 -4 -45 -18 -75 -30 -67
-27 -104 -43 -198 -86 -40 -19 -77 -34 -82 -34 -6 0 -10 -3 -10 -8 0 -4 -18
-15 -40 -25 -23 -9 -70 -35 -105 -56 -36 -22 -74 -42 -85 -46 -11 -3 -20 -10
-20 -13 0 -4 -20 -18 -45 -32 -25 -14 -45 -28 -45 -32 0 -5 -5 -8 -11 -8 -13
0 -194 -135 -284 -213 -150 -130 -385 -386 -462 -503 -7 -11 -31 -45 -53 -76
-22 -31 -40 -61 -40 -66 0 -6 -4 -12 -8 -14 -26 -10 -202 -349 -263 -507 -16
-42 -34 -85 -39 -96 -13 -28 -65 -190 -79 -245 -7 -25 -15 -52 -18 -60 -7 -17
-9 -25 -16 -60 -3 -14 -12 -54 -21 -90 -8 -36 -18 -81 -21 -100 -3 -19 -10
-57 -15 -85 -9 -49 -13 -82 -28 -215 -9 -86 -8 -506 1 -595 11 -105 29 -220
52 -325 2 -14 7 -35 9 -47 20 -97 111 -390 127 -407 5 -6 9 -16 9 -24 0 -22
165 -369 181 -382 4 -3 19 -29 35 -57 15 -29 32 -53 36 -53 4 0 8 -5 8 -11 0
-14 122 -190 144 -208 9 -8 16 -17 16 -22 0 -4 10 -19 23 -31 12 -13 37 -41
55 -63 68 -82 226 -237 309 -303 33 -26 70 -56 98 -80 11 -9 41 -30 65 -47 25
-16 47 -33 50 -36 3 -3 21 -14 40 -25 19 -10 43 -27 54 -37 11 -9 23 -17 27
-17 4 0 40 -19 81 -43 87 -52 310 -161 353 -173 6 -1 45 -16 87 -33 42 -16
130 -46 195 -66 65 -20 132 -40 149 -45 17 -6 39 -10 50 -10 11 0 25 -5 32
-12 7 -7 12 -9 12 -6 0 3 28 0 62 -9 35 -8 74 -16 88 -18 14 -2 39 -7 55 -10
17 -3 53 -10 80 -15 78 -15 214 -33 344 -45 252 -25 747 -25 881 0 14 2 50 7
80 10 57 6 132 19 210 37 25 5 56 12 70 14 14 2 48 9 75 16 28 6 51 11 52 10
2 -1 21 5 43 13 22 8 42 14 45 14 3 0 30 8 60 16 30 9 57 16 60 16 12 -1 292
101 365 133 44 19 80 31 80 28 0 -4 4 -2 8 3 4 6 23 17 42 27 170 80 453 237
504 279 6 5 43 32 81 59 102 73 112 80 184 139 177 143 473 436 741 732 41 45
100 110 130 143 30 33 69 75 85 94 17 18 55 60 85 92 30 33 72 79 92 102 20
24 63 71 95 105 32 34 94 101 138 149 246 267 566 587 775 774 52 47 100 90
106 95 6 6 30 26 54 45 24 19 54 44 66 55 13 11 38 31 55 45 18 14 42 33 53
42 32 27 146 110 196 143 25 16 55 38 68 49 12 11 22 15 22 10 0 -5 4 -4 8 2
4 5 43 32 87 58 44 26 87 52 95 57 50 30 231 113 285 130 22 7 45 16 50 20 6
4 26 10 45 15 44 10 37 8 85 22 55 15 98 22 185 28 41 3 77 7 79 10 2 2 12 -1
22 -6 12 -7 20 -7 24 0 4 6 11 8 16 4 5 -3 37 -7 71 -9 92 -6 291 -40 313 -53
6 -4 19 -8 29 -9 32 -5 156 -52 226 -85 144 -69 250 -145 370 -268 77 -78 130
-137 130 -145 0 -1 20 -33 45 -69 25 -37 45 -74 45 -82 0 -8 3 -14 8 -14 8 0
30 -48 69 -150 47 -121 76 -247 88 -374 4 -33 8 -64 11 -68 3 -4 0 -8 -6 -8
-6 0 -9 -4 -6 -8 13 -22 4 -203 -15 -306 -6 -34 -13 -70 -14 -81 -4 -28 -54
-182 -72 -225 -39 -89 -107 -220 -115 -220 -4 0 -8 -5 -8 -11 0 -18 -98 -139
-169 -208 -63 -62 -202 -171 -217 -171 -4 0 -15 -6 -23 -14 -22 -20 -215 -116
-233 -116 -8 0 -18 -4 -23 -9 -15 -13 -205 -73 -278 -87 -10 -2 -27 -6 -37 -9
-10 -3 -31 -8 -46 -10 -16 -2 -38 -6 -49 -8 -55 -12 -114 -20 -220 -33 -157
-18 -486 -23 -700 -10 -192 11 -215 13 -270 20 -27 4 -66 8 -85 10 -63 6 -158
18 -245 31 -16 3 -48 7 -70 10 -22 2 -53 8 -70 13 -16 4 -40 7 -52 6 -13 -1
-23 2 -23 6 0 5 -8 7 -17 6 -10 -2 -33 1 -53 5 -19 4 -51 11 -70 14 -19 3 -42
8 -51 11 -9 2 -32 7 -50 9 -19 3 -49 9 -68 14 -18 6 -36 10 -40 9 -3 0 -8 1
-11 2 -6 2 -24 6 -70 14 -19 4 -39 8 -45 10 -14 4 -207 51 -255 61 -8 2 -53
13 -100 25 -248 63 -242 62 -335 56 -49 -3 -94 -11 -99 -16 -6 -6 -17 -10 -26
-10 -38 0 -132 -63 -202 -135 -27 -28 -74 -105 -69 -114 2 -2 -2 -7 -7 -10
-21 -14 -44 -115 -44 -189 1 -43 3 -84 5 -92 2 -8 7 -28 11 -45 4 -16 9 -34
11 -40 1 -5 3 -14 4 -20 2 -5 8 -17 15 -25 6 -8 18 -28 26 -44 8 -16 41 -55
74 -87 64 -64 149 -111 237 -131 30 -7 57 -17 61 -22 4 -6 10 -8 13 -4 4 4 30
0 58 -9 28 -8 58 -16 66 -18 9 -2 36 -8 61 -14 25 -7 54 -14 65 -16 11 -3 34
-8 50 -12 17 -4 32 -7 35 -8 77 -17 215 -48 245 -55 22 -6 52 -12 68 -15 26
-5 58 -11 105 -20 72 -15 80 -17 152 -29 36 -6 79 -14 115 -21 19 -3 111 -18
255 -40 14 -2 45 -6 70 -9 25 -3 65 -8 90 -12 25 -3 68 -7 95 -9 28 -2 50 -4
50 -5 0 -3 138 -15 314 -27 233 -16 732 -5 926 21 17 2 55 7 85 10 30 4 93 14
140 22 47 9 96 18 110 20 139 25 446 116 560 167 25 11 50 21 55 22 6 2 51 23
100 47 125 63 159 81 165 87 3 3 19 13 35 21 17 8 32 17 35 20 3 3 38 27 78
54 128 85 281 220 407 358 112 122 253 339 335 515 18 37 41 87 52 110 11 24
21 49 22 55 1 7 4 18 7 23 7 11 67 191 74 221 3 10 11 46 20 79 8 33 17 74 20
90 3 17 10 53 15 80 24 130 34 268 33 445 -1 117 -8 255 -13 255 -1 0 -3 15
-5 34 -6 57 -13 105 -19 121 -3 8 -8 31 -11 50 -4 19 -8 42 -9 50 -2 8 -8 33
-14 55 -6 22 -13 49 -15 60 -2 11 -7 27 -10 35 -3 8 -20 58 -38 110 -18 52
-46 124 -63 160 -16 36 -31 67 -31 70 -5 19 -20 48 -33 63 -8 9 -12 17 -9 17
4 0 -11 29 -33 65 -22 36 -40 70 -40 75 0 6 -4 10 -10 10 -5 0 -10 4 -10 10 0
9 -100 155 -140 204 -64 79 -214 235 -300 312 -63 55 -219 171 -252 186 -16 7
-28 16 -28 20 0 5 -6 8 -14 8 -8 0 -16 3 -18 8 -5 12 -216 121 -313 162 -47
19 -141 55 -150 56 -5 1 -30 9 -55 17 -25 9 -83 25 -130 37 -88 23 -101 25
-160 36 -19 4 -44 8 -55 11 -122 23 -304 37 -475 36 -108 -1 -140 -3 -264 -18
-65 -7 -187 -32 -256 -52 -30 -8 -62 -17 -70 -18 -8 -2 -48 -15 -87 -29 -40
-14 -73 -22 -73 -18 0 4 -4 2 -8 -4 -4 -5 -29 -18 -57 -28 -262 -97 -647 -324
-955 -563 -106 -82 -235 -187 -275 -224 -16 -15 -55 -49 -85 -75 -30 -26 -60
-53 -66 -58 -7 -6 -60 -56 -119 -111 -135 -125 -339 -329 -517 -516 -201 -212
-218 -231 -218 -241 0 -5 -4 -6 -10 -3 -5 3 -10 2 -10 -2 0 -5 -22 -32 -49
-61 -27 -30 -80 -88 -118 -129 -37 -42 -82 -91 -99 -110 -18 -18 -56 -61 -85
-94 -30 -33 -72 -79 -94 -103 -22 -23 -76 -82 -120 -131 -235 -260 -534 -558
-633 -632 -20 -16 -46 -36 -57 -46 -30 -28 -263 -182 -320 -212 -27 -14 -57
-30 -65 -35 -92 -59 -452 -199 -605 -235 -190 -45 -193 -46 -305 -65 -184 -32
-345 -39 -605 -27 -137 6 -227 14 -285 24 -19 3 -53 7 -74 9 -22 2 -62 8 -90
13 -28 6 -67 12 -87 15 -20 3 -42 8 -50 10 -8 3 -25 7 -39 10 -14 2 -68 16
-120 30 -52 15 -102 28 -110 30 -23 6 -160 56 -205 74 -77 32 -261 127 -325
169 -138 90 -201 142 -315 258 -117 119 -125 129 -213 260 -131 196 -252 482
-277 660 -2 11 -4 20 -5 20 -4 0 -25 130 -36 220 -7 61 -12 327 -6 338 2 5 6
33 8 63 6 94 28 228 59 354 58 234 179 513 308 710 38 58 73 107 76 110 4 3
22 25 41 50 63 82 158 180 244 254 26 22 62 53 80 68 17 15 34 28 38 28 4 0
13 6 20 13 7 6 33 25 58 42 25 16 48 34 52 40 5 7 8 7 8 0 0 -6 3 -6 8 1 35
50 438 232 622 279 8 2 42 12 75 21 68 18 73 19 175 40 92 19 105 21 155 29
22 3 54 8 70 10 125 20 276 29 500 29 163 0 360 -8 360 -14 0 -1 29 -4 65 -7
218 -21 339 13 460 131 62 60 102 130 135 232 14 44 28 86 32 94 3 8 7 20 8
26 4 15 33 82 51 117 9 15 13 27 10 27 -15 0 144 298 232 435 104 161 285 366
417 470 28 22 52 43 53 48 2 4 7 7 12 7 4 0 34 17 66 39 131 86 333 171 449
187 11 1 20 3 20 4 0 8 171 24 265 24 130 -1 234 -13 345 -40 33 -8 69 -16 80
-18 102 -20 384 -154 462 -221 7 -5 33 -26 59 -45 122 -92 277 -267 380 -430
50 -80 159 -292 183 -360 7 -19 17 -45 22 -57 5 -13 13 -33 18 -45 5 -13 19
-54 30 -93 12 -38 25 -83 31 -100 19 -65 38 -145 46 -200 2 -16 6 -36 9 -44 7
-17 17 -84 30 -192 10 -88 74 -207 147 -276 99 -92 213 -134 347 -129 109 5
121 8 206 51 67 34 155 105 155 125 0 6 3 10 8 10 14 0 71 115 87 176 17 63
18 177 4 259 -5 28 -11 68 -13 90 -2 22 -7 51 -10 65 -7 32 -14 68 -20 100 -2
14 -9 45 -16 70 -13 49 -13 46 -25 105 -12 51 -10 46 -23 78 -7 16 -12 32 -12
36 0 22 -116 344 -139 388 -5 10 -39 79 -75 153 -64 131 -91 183 -130 245 -72
114 -122 191 -126 195 -4 3 -31 39 -62 80 -77 105 -116 149 -248 280 -158 159
-321 286 -490 384 -74 42 -283 144 -313 151 -15 4 -30 11 -33 16 -3 5 -14 9
-25 9 -10 0 -27 4 -37 9 -34 18 -111 44 -162 56 -3 1 -47 11 -99 24 -52 12
-108 24 -125 27 -17 2 -42 6 -56 9 -14 3 -45 8 -70 11 -25 3 -61 8 -80 10 -50
7 -457 14 -463 8z"/>
</g>
</svg>
