<svg width="124" height="87" viewBox="0 0 124 87" fill="none" xmlns="http://www.w3.org/2000/svg">
<g clip-path="url(#clip0_735_32418)">
<path d="M104.236 9.45475V9.60594C102.92 7.18805 101.067 5.10299 98.8191 3.51038C96.5714 1.91777 93.9885 0.859852 91.2683 0.417616C88.548 -0.0246201 85.7625 0.160556 83.125 0.958967C80.4875 1.75738 78.0679 3.14785 76.0515 5.02393C70.6009 9.36172 66.7343 16.4557 64.044 23.5613C63.5943 22.9442 63.104 22.3575 62.5765 21.8052C59.9004 19.0072 56.3196 17.2441 52.4674 16.8278L53.2011 6.53576C53.2482 6.18914 53.2236 5.83656 53.1288 5.49981C53.034 5.16305 52.8711 4.84928 52.6501 4.57788C52.4291 4.30648 52.1547 4.08322 51.8439 3.92188C51.5331 3.76054 51.1924 3.66456 50.843 3.63986C50.4936 3.61517 50.1428 3.66228 49.8123 3.7783C49.4818 3.89431 49.1787 4.07677 48.9216 4.31438C48.6645 4.55199 48.459 4.83972 48.3176 5.15979C48.1763 5.47985 48.1022 5.82546 48.0999 6.17524L47.3196 17.0604C44.2178 17.6895 41.362 19.1941 39.0911 21.3957C36.8202 23.5973 35.2298 26.4033 34.5085 29.4807L23.3745 29.7947C23.038 29.8046 22.7068 29.8806 22.3997 30.0184C22.0927 30.1561 21.8158 30.3529 21.5849 30.5975C21.354 30.8421 21.1736 31.1297 21.054 31.4439C20.9344 31.7581 20.878 32.0928 20.8879 32.4288C20.8979 32.7647 20.974 33.0955 21.112 33.4021C21.2499 33.7087 21.447 33.9852 21.6919 34.2157C21.9369 34.4463 22.2249 34.6264 22.5396 34.7458C22.8543 34.8652 23.1894 34.9216 23.5259 34.9116L34.1358 34.5976C34.3062 36.7662 34.9122 38.8782 35.9177 40.8078C36.0439 41.0751 36.2263 41.3122 36.4524 41.5029C36.6786 41.6936 36.9432 41.8334 37.2283 41.9128C37.5134 41.9923 37.8123 42.0095 38.1046 41.9633C38.397 41.9171 38.6759 41.8086 38.9225 41.6451C39.1526 41.5733 39.3647 41.4531 39.5444 41.2926C39.7241 41.1321 39.8673 40.9351 39.9644 40.7148C40.0615 40.4944 40.1102 40.2559 40.1073 40.0152C40.1043 39.7744 40.0498 39.5371 39.9474 39.3192L39.8542 39.1331C38.9618 37.5149 38.4469 35.7164 38.3478 33.8717C38.2488 32.027 38.5682 30.1838 39.2822 28.4796C39.9962 26.7754 41.0864 25.2542 42.4715 24.0295C43.8565 22.8048 45.5007 21.9082 47.2812 21.4066C49.0618 20.9051 50.9328 20.8115 52.7546 21.1328C54.5764 21.4542 56.3021 22.1822 57.8028 23.2625C59.3035 24.3428 60.5405 25.7476 61.4215 27.372C62.3026 28.9965 62.8049 30.7986 62.891 32.6439C62.828 33.2742 62.828 33.9092 62.891 34.5395C62.8852 34.5781 62.8852 34.6172 62.891 34.6558C62.8833 35.0739 63.0144 35.4827 63.2636 35.8187C63.5532 36.0728 63.9288 36.207 64.314 36.194C64.6992 36.1811 65.065 36.0219 65.3367 35.749C65.7617 35.0407 66.0206 34.2455 66.0937 33.4231C67.6777 25.9221 71.7889 14.8741 78.1595 9.12913C79.4303 7.91733 80.9289 6.96899 82.5689 6.33889C84.2088 5.70879 85.9576 5.40942 87.714 5.45808C89.4705 5.50674 91.1999 5.90246 92.8024 6.62239C94.4048 7.34231 95.8485 8.37217 97.0501 9.65245C99.5111 12.1309 100.942 15.4476 101.054 18.936C101.166 22.4245 99.9522 25.8261 97.6557 28.4573C89.1305 39.075 65.0455 40.6799 65.0455 40.6799C60.8062 41.2926 34.4969 42.5406 22.7223 56.054C20.6156 58.1384 19.0591 60.7115 18.1918 63.5434L6.75495 43.7733L32.086 0H25.3311L0 43.9012L19.799 77.9174V77.8127C20.5308 79.0754 21.4105 80.2466 22.4195 81.3016C25.5934 84.6067 29.9056 86.5855 34.4844 86.8381C39.0633 87.0906 43.5675 85.5982 47.0867 82.6622C52.3509 78.7896 56.1942 72.3818 58.9544 65.6948L62.6464 69.5442C62.6464 69.5442 70.2515 79.3711 91.7626 74.196C97.8886 52.9838 88.3851 44.9828 88.3851 44.9828L84.8911 41.3427C91.4481 38.8889 97.7023 35.3768 101.709 30.4576C103.52 28.4519 104.861 26.0682 105.634 23.4799L117.28 43.5756L92.1702 87H98.995L124.058 43.6337L104.236 9.45475ZM68.3415 68.3812L86.906 50.6114C88.0806 52.8685 88.7032 55.3712 88.7228 57.9147L75.574 70.4978C73.0288 70.3773 70.5492 69.6517 68.3415 68.3812ZM60.8062 60.9268C62.405 56.1369 63.6277 51.2299 64.4632 46.2504C69.7199 45.5927 74.9153 44.5154 79.9996 43.029L81.5253 44.5874L62.5416 62.7293L60.8062 60.9268ZM45.0369 78.7547C39.5398 83.4065 31.8648 82.7087 26.8218 77.4522C21.7789 72.1957 21.2315 63.7527 26.5307 58.4846C35.4752 48.2274 57.9063 46.4248 58.6982 46.7621C58.9777 47.5529 56.136 70.6141 45.0369 78.7547Z" fill="#002225"/>
</g>
<defs>
<clipPath id="clip0_735_32418">
<rect width="124" height="87" fill="white"/>
</clipPath>
</defs>
</svg>
