<svg width="623" height="164" viewBox="0 0 623 164" fill="none" xmlns="http://www.w3.org/2000/svg">
<g clip-path="url(#clip0_735_31934)">
<path d="M196.703 17.8228V18.1077C194.219 13.5499 190.723 9.61943 186.481 6.61727C182.24 3.61511 177.365 1.62087 172.232 0.78723C167.099 -0.0464103 161.842 0.302657 156.865 1.80771C151.888 3.31276 147.322 5.93388 143.516 9.47039C133.231 17.6474 125.934 31.0199 120.857 44.4144C120.009 43.2511 119.083 42.1452 118.088 41.1041C113.038 35.8296 106.281 32.5061 99.011 31.7214L100.396 12.3203C100.484 11.6669 100.438 11.0022 100.259 10.3674C100.08 9.73265 99.7729 9.14118 99.3558 8.62957C98.9388 8.11797 98.421 7.6971 97.8344 7.39296C97.2479 7.08883 96.6051 6.9079 95.9457 6.86135C95.2862 6.8148 94.6243 6.90361 94.0006 7.12231C93.377 7.34101 92.8049 7.68494 92.3198 8.13285C91.8347 8.58077 91.4468 9.12315 91.1801 9.7265C90.9134 10.3298 90.7736 10.9813 90.7692 11.6407L89.2967 32.1599C83.4433 33.3457 78.054 36.1821 73.7687 40.3322C69.4834 44.4823 66.482 49.7718 65.1209 55.5728L44.1099 56.1647C43.4749 56.1834 42.8499 56.3267 42.2704 56.5863C41.691 56.846 41.1685 57.217 40.7328 57.678C40.297 58.1391 39.9566 58.6813 39.731 59.2736C39.5053 59.8659 39.3988 60.4967 39.4176 61.1301C39.4363 61.7634 39.58 62.3869 39.8403 62.9649C40.1006 63.5428 40.4725 64.064 40.9348 64.4986C41.397 64.9332 41.9406 65.2728 42.5344 65.4979C43.1282 65.7229 43.7606 65.8292 44.3956 65.8105L64.4176 65.2186C64.7392 69.3063 65.8828 73.2876 67.7802 76.925C68.0184 77.429 68.3625 77.8759 68.7893 78.2353C69.216 78.5948 69.7154 78.8583 70.2534 79.0081C70.7914 79.1578 71.3554 79.1903 71.9071 79.1032C72.4588 79.0161 72.9852 78.8115 73.4505 78.5034C73.8848 78.368 74.2849 78.1414 74.624 77.839C74.9632 77.5365 75.2334 77.165 75.4167 76.7497C75.5999 76.3343 75.6918 75.8846 75.6863 75.4309C75.6808 74.9771 75.5779 74.5298 75.3846 74.119L75.2088 73.7682C73.5247 70.7178 72.553 67.3274 72.3661 63.8501C72.1792 60.3727 72.7819 56.8982 74.1293 53.6857C75.4768 50.4731 77.5341 47.6056 80.1478 45.2969C82.7615 42.9883 85.8642 41.2982 89.2243 40.3527C92.5843 39.4072 96.1151 39.2308 99.553 39.8366C102.991 40.4423 106.247 41.8147 109.079 43.8512C111.911 45.8877 114.246 48.5358 115.908 51.5979C117.571 54.66 118.519 58.0571 118.681 61.5356C118.562 62.7238 118.562 63.9208 118.681 65.1089C118.67 65.1816 118.67 65.2555 118.681 65.3282C118.667 66.1163 118.914 66.887 119.385 67.5204C119.931 67.9993 120.64 68.2523 121.367 68.2278C122.094 68.2034 122.784 67.9033 123.297 67.3888C124.099 66.0538 124.587 64.5548 124.725 63.0044C127.714 48.8646 135.473 28.0385 147.495 17.2089C149.893 14.9246 152.721 13.1369 155.815 11.9492C158.91 10.7614 162.21 10.1971 165.525 10.2888C168.84 10.3805 172.103 11.1265 175.127 12.4836C178.151 13.8407 180.875 15.782 183.143 18.1954C187.787 22.8674 190.486 29.1196 190.698 35.6955C190.91 42.2714 188.619 48.6837 184.286 53.6436C168.198 73.6586 122.747 76.6839 122.747 76.6839C114.747 77.839 65.0989 80.1914 42.8791 105.665C38.9037 109.594 35.9663 114.445 34.3297 119.783L12.7473 82.5152L60.5495 0H47.8022L0 82.7563L37.3626 146.879V146.681C38.7436 149.062 40.4036 151.269 42.3077 153.258C48.2973 159.489 56.4347 163.219 65.0754 163.695C73.7162 164.171 82.216 161.357 88.8571 155.823C98.7912 148.523 106.044 136.444 111.253 123.839L118.22 131.095C118.22 131.095 132.571 149.619 173.165 139.864C184.725 99.8776 166.791 84.7951 166.791 84.7951L160.198 77.9334C172.571 73.3078 184.374 66.6873 191.934 57.4142C195.353 53.6335 197.883 49.1401 199.341 44.2609L221.319 82.1425L173.934 164H186.813L234.11 82.2521L196.703 17.8228ZM128.967 128.903L164 95.4054C166.217 99.6601 167.392 104.378 167.429 109.173L142.615 132.892C137.812 132.665 133.133 131.297 128.967 128.903ZM114.747 114.85C117.764 105.821 120.072 96.5713 121.648 87.1846C131.568 85.9448 141.372 83.9142 150.967 81.1122L153.846 84.0497L118.022 118.248L114.747 114.85ZM84.989 148.457C74.6154 157.226 60.1319 155.911 50.6154 146.002C41.0989 136.093 40.0659 120.178 50.0659 110.247C66.9451 90.9114 109.275 87.5134 110.769 88.1492C111.297 89.6399 105.934 133.112 84.989 148.457Z" fill="#002225"/>
</g>
<path d="M307.184 113.111C305.512 113.111 304.168 112.43 303.152 111.067L282.456 84.0444L290.609 75.7778L312.022 103.867C312.858 104.993 313.276 106.207 313.276 107.511C313.276 109.17 312.649 110.533 311.395 111.6C310.14 112.607 308.737 113.111 307.184 113.111ZM308.259 50.4444C309.693 50.4444 310.857 51.037 311.753 52.2222C312.709 53.3481 313.187 54.5037 313.187 55.6889C313.187 56.9333 312.649 58.0889 311.574 59.1556L274.034 94.8L273.586 82.0889L303.869 52.4889C305.243 51.1259 306.706 50.4444 308.259 50.4444ZM269.555 113.111C267.882 113.111 266.538 112.607 265.523 111.6C264.508 110.533 264 109.23 264 107.689V56.3111C264 54.7704 264.538 53.4963 265.613 52.4889C266.688 51.4222 268.062 50.8889 269.734 50.8889C271.406 50.8889 272.72 51.4222 273.676 52.4889C274.691 53.4963 275.199 54.7704 275.199 56.3111V107.689C275.199 109.23 274.691 110.533 273.676 111.6C272.661 112.607 271.287 113.111 269.555 113.111Z" fill="#002225"/>
<path d="M365.923 50.8C367.476 50.8 368.731 51.3333 369.686 52.4C370.642 53.4074 371.12 54.6815 371.12 56.2222V88.4C371.12 93.3185 370.045 97.6741 367.895 101.467C365.804 105.259 362.907 108.222 359.204 110.356C355.501 112.489 351.2 113.556 346.303 113.556C341.405 113.556 337.074 112.489 333.312 110.356C329.608 108.222 326.682 105.259 324.531 101.467C322.441 97.6741 321.396 93.3185 321.396 88.4V56.2222C321.396 54.6815 321.933 53.4074 323.008 52.4C324.083 51.3333 325.457 50.8 327.13 50.8C328.503 50.8 329.728 51.3333 330.803 52.4C331.938 53.4074 332.505 54.6815 332.505 56.2222V88.4C332.505 91.363 333.132 93.9407 334.387 96.1333C335.701 98.2667 337.403 99.9259 339.493 101.111C341.644 102.296 343.913 102.889 346.303 102.889C348.871 102.889 351.26 102.296 353.47 101.111C355.68 99.9259 357.472 98.2667 358.846 96.1333C360.219 93.9407 360.906 91.363 360.906 88.4V56.2222C360.906 54.6815 361.354 53.4074 362.25 52.4C363.146 51.3333 364.371 50.8 365.923 50.8Z" fill="#002225"/>
<path d="M565.975 114C561.794 114 558.031 113.496 554.686 112.489C551.341 111.422 548.146 109.585 545.099 106.978C544.323 106.326 543.726 105.585 543.307 104.756C542.889 103.926 542.68 103.096 542.68 102.267C542.68 100.904 543.158 99.7185 544.114 98.7111C545.129 97.6444 546.384 97.1111 547.877 97.1111C549.012 97.1111 550.027 97.4667 550.923 98.1778C553.193 100.015 555.432 101.407 557.642 102.356C559.912 103.304 562.689 103.778 565.975 103.778C568.185 103.778 570.215 103.452 572.067 102.8C573.918 102.089 575.412 101.17 576.547 100.044C577.681 98.8593 578.249 97.5259 578.249 96.0444C578.249 94.2667 577.711 92.7556 576.636 91.5111C575.561 90.2667 573.918 89.2296 571.708 88.4C569.499 87.5111 566.691 86.8296 563.287 86.3556C560.061 85.8815 557.224 85.1704 554.775 84.2222C552.327 83.2148 550.266 81.9704 548.593 80.4889C546.981 78.9481 545.756 77.1704 544.92 75.1556C544.084 73.0815 543.666 70.7704 543.666 68.2222C543.666 64.3704 544.651 61.0815 546.622 58.3556C548.653 55.6296 551.371 53.5556 554.775 52.1333C558.18 50.7111 561.943 50 566.064 50C569.947 50 573.53 50.5926 576.815 51.7778C580.16 52.9037 582.878 54.3556 584.968 56.1333C586.7 57.4963 587.566 59.0667 587.566 60.8444C587.566 62.1481 587.059 63.3333 586.043 64.4C585.028 65.4667 583.833 66 582.46 66C581.564 66 580.757 65.7333 580.041 65.2C579.085 64.3704 577.801 63.6 576.188 62.8889C574.576 62.1185 572.873 61.4963 571.081 61.0222C569.289 60.4889 567.617 60.2222 566.064 60.2222C563.496 60.2222 561.316 60.5481 559.524 61.2C557.792 61.8519 556.478 62.7407 555.582 63.8667C554.686 64.9926 554.238 66.2963 554.238 67.7778C554.238 69.5556 554.746 71.037 555.761 72.2222C556.836 73.3482 558.359 74.2667 560.33 74.9778C562.301 75.6296 564.66 76.2222 567.408 76.7556C570.992 77.4074 574.128 78.1778 576.815 79.0667C579.563 79.9556 581.833 81.1111 583.624 82.5333C585.416 83.8963 586.76 85.6444 587.656 87.7778C588.552 89.8519 589 92.4 589 95.4222C589 99.2741 587.925 102.593 585.775 105.378C583.624 108.163 580.787 110.296 577.263 111.778C573.799 113.259 570.036 114 565.975 114Z" fill="#002225"/>
<path d="M412.609 50.8887C418.343 50.8887 422.614 52.222 425.421 54.8887C428.228 57.5553 429.632 61.4961 429.632 66.7109C429.632 69.4961 428.945 71.9553 427.571 74.0887C426.197 76.1627 424.167 77.7924 421.479 78.9776C418.791 80.1035 415.476 80.6665 411.534 80.6665L411.892 76.6665C413.744 76.6665 415.864 76.9331 418.253 77.4665C420.643 77.9405 422.942 78.8294 425.152 80.1331C427.422 81.3776 429.273 83.1553 430.707 85.4664C432.2 87.7183 432.947 90.622 432.947 94.1776C432.947 98.0887 432.29 101.289 430.976 103.778C429.721 106.266 428.049 108.192 425.958 109.555C423.868 110.918 421.628 111.866 419.239 112.4C416.85 112.874 414.55 113.111 412.34 113.111H390.032C388.479 113.111 387.165 112.607 386.09 111.6C385.074 110.533 384.566 109.229 384.566 107.689V56.3109C384.566 54.7702 385.074 53.4961 386.09 52.4887C387.165 51.422 388.479 50.8887 390.032 50.8887H412.609ZM410.996 61.3776H395.049L396.214 59.9553V76.0442L395.138 75.2442H411.265C412.997 75.2442 414.55 74.6813 415.924 73.5553C417.298 72.4294 417.985 70.7998 417.985 68.6665C417.985 66.1183 417.328 64.2813 416.014 63.1553C414.759 61.9702 413.087 61.3776 410.996 61.3776ZM411.713 85.7331H395.407L396.214 85.022V103.778L395.318 102.889H412.34C415.088 102.889 417.268 102.178 418.881 100.755C420.493 99.2739 421.3 97.0813 421.3 94.1776C421.3 91.5109 420.762 89.585 419.687 88.3998C418.612 87.2146 417.328 86.4739 415.834 86.1776C414.341 85.8813 412.967 85.7331 411.713 85.7331Z" fill="#002225"/>
<path d="M448.74 50.8887H478.753C480.306 50.8887 481.59 51.3924 482.606 52.3998C483.681 53.3479 484.219 54.5924 484.219 56.1331C484.219 57.6146 483.681 58.8294 482.606 59.7776C481.59 60.6665 480.306 61.1109 478.753 61.1109H453.667L454.474 59.5998V76.9331L453.757 76.222H474.722C476.275 76.222 477.559 76.7257 478.574 77.7331C479.649 78.6813 480.187 79.9257 480.187 81.4665C480.187 82.9479 479.649 84.1627 478.574 85.1109C477.559 85.9998 476.275 86.4442 474.722 86.4442H454.026L454.474 85.7331V103.689L453.757 102.889H478.753C480.306 102.889 481.59 103.422 482.606 104.489C483.681 105.496 484.219 106.681 484.219 108.044C484.219 109.526 483.681 110.741 482.606 111.689C481.59 112.637 480.306 113.111 478.753 113.111H448.74C447.187 113.111 445.873 112.607 444.798 111.6C443.782 110.533 443.274 109.229 443.274 107.689V56.3109C443.274 54.7702 443.782 53.4961 444.798 52.4887C445.873 51.422 447.187 50.8887 448.74 50.8887Z" fill="#002225"/>
<path d="M500.011 50.8887H530.024C531.577 50.8887 532.862 51.3924 533.877 52.3998C534.952 53.3479 535.49 54.5924 535.49 56.1331C535.49 57.6146 534.952 58.8294 533.877 59.7776C532.862 60.6665 531.577 61.1109 530.024 61.1109H504.938L505.745 59.5998V76.9331L505.028 76.222H525.993C527.546 76.222 528.83 76.7257 529.845 77.7331C530.92 78.6813 531.458 79.9257 531.458 81.4665C531.458 82.9479 530.92 84.1627 529.845 85.1109C528.83 85.9998 527.546 86.4442 525.993 86.4442H505.297L505.745 85.7331V103.689L505.028 102.889H530.024C531.577 102.889 532.862 103.422 533.877 104.489C534.952 105.496 535.49 106.681 535.49 108.044C535.49 109.526 534.952 110.741 533.877 111.689C532.862 112.637 531.577 113.111 530.024 113.111H500.011C498.458 113.111 497.144 112.607 496.069 111.6C495.053 110.533 494.546 109.229 494.546 107.689V56.3109C494.546 54.7702 495.053 53.4961 496.069 52.4887C497.144 51.422 498.458 50.8887 500.011 50.8887Z" fill="#002225"/>
<path d="M606.412 51.2898V41.8551H611.129C611.589 41.8551 612.05 41.9702 612.51 42.2003C612.979 42.4219 613.366 42.7628 613.673 43.223C613.989 43.6747 614.146 44.2372 614.146 44.9105C614.146 45.5923 613.984 46.1719 613.661 46.6491C613.337 47.1264 612.932 47.4886 612.446 47.7358C611.96 47.983 611.474 48.1065 610.989 48.1065H607.639V46.483H610.401C610.707 46.483 611.01 46.3509 611.308 46.0866C611.615 45.8224 611.768 45.4304 611.768 44.9105C611.768 44.3651 611.615 43.9901 611.308 43.7855C611.01 43.581 610.72 43.4787 610.439 43.4787H608.611V51.2898H606.412ZM612.216 46.8665L614.504 51.2898H612.088L609.889 46.8665H612.216ZM610.03 56.9148C608.615 56.9148 607.29 56.6506 606.054 56.1222C604.818 55.5937 603.732 54.8608 602.794 53.9233C601.857 52.9858 601.124 51.8991 600.595 50.6634C600.067 49.4276 599.803 48.1023 599.803 46.6875C599.803 45.2727 600.067 43.9474 600.595 42.7116C601.124 41.4759 601.857 40.3892 602.794 39.4517C603.732 38.5142 604.818 37.7812 606.054 37.2528C607.29 36.7244 608.615 36.4602 610.03 36.4602C611.445 36.4602 612.77 36.7244 614.006 37.2528C615.241 37.7812 616.328 38.5142 617.266 39.4517C618.203 40.3892 618.936 41.4759 619.464 42.7116C619.993 43.9474 620.257 45.2727 620.257 46.6875C620.257 48.1023 619.993 49.4276 619.464 50.6634C618.936 51.8991 618.203 52.9858 617.266 53.9233C616.328 54.8608 615.241 55.5937 614.006 56.1222C612.77 56.6506 611.445 56.9148 610.03 56.9148ZM610.03 54.3835C611.445 54.3835 612.732 54.0384 613.891 53.348C615.058 52.6491 615.987 51.7202 616.678 50.5611C617.368 49.3935 617.713 48.1023 617.713 46.6875C617.713 45.2727 617.368 43.9858 616.678 42.8267C615.987 41.6591 615.058 40.7301 613.891 40.0398C612.732 39.3409 611.445 38.9915 610.03 38.9915C608.615 38.9915 607.324 39.3409 606.156 40.0398C604.989 40.7301 604.06 41.6591 603.369 42.8267C602.679 43.9858 602.334 45.2727 602.334 46.6875C602.334 48.1023 602.679 49.3935 603.369 50.5611C604.06 51.7202 604.989 52.6491 606.156 53.348C607.324 54.0384 608.615 54.3835 610.03 54.3835Z" fill="#002225"/>
<defs>
<clipPath id="clip0_735_31934">
<rect width="234" height="164" fill="white"/>
</clipPath>
</defs>
</svg>
