<svg width="130" height="52" viewBox="0 0 130 52" fill="none" xmlns="http://www.w3.org/2000/svg">
<path d="M0 15.4079C0 13.6323 0.383324 12.0497 1.15273 10.6601C1.92076 9.26774 2.99214 8.18281 4.36825 7.40667C5.74297 6.63192 7.30247 6.24316 9.04536 6.24316C11.1771 6.24316 13.0027 6.80838 14.5222 7.93604C16.0445 9.06095 17.0607 10.5967 17.5723 12.5405H12.7573C12.396 11.7905 11.8872 11.2198 11.2295 10.8255C10.5745 10.4326 9.82855 10.2355 8.9902 10.2355C7.64029 10.2355 6.54685 10.707 5.7085 11.6471C4.87291 12.5846 4.45649 13.8391 4.45649 15.4079C4.45649 16.9822 4.87291 18.2367 5.7085 19.1741C6.54685 20.1115 7.64029 20.5802 8.9902 20.5802C9.82855 20.5802 10.5745 20.3859 11.2295 19.9957C11.8872 19.6028 12.396 19.0294 12.7573 18.2753H17.5723C17.0607 20.2246 16.0445 21.7575 14.5222 22.8742C13.0027 23.9922 11.1771 24.5505 9.04536 24.5505C7.30247 24.5505 5.74297 24.1631 4.36825 23.387C2.99214 22.6123 1.92076 21.5328 1.15273 20.1501C0.383324 18.7647 0 17.1835 0 15.4079Z" fill="#002225"/>
<path d="M17.3379 17.2773C17.3379 15.7926 17.6412 14.4967 18.2479 13.3897C18.8546 12.28 19.6999 11.4253 20.7851 10.8256C21.8688 10.2273 23.1098 9.92676 24.508 9.92676C26.3019 9.92676 27.8007 10.3982 29.0031 11.3384C30.2082 12.2758 30.9997 13.5993 31.3747 15.3087H26.7142C26.3198 14.2169 25.5587 13.6709 24.4308 13.6709C23.6283 13.6709 22.9885 13.9839 22.5114 14.6084C22.0329 15.2301 21.7944 16.1193 21.7944 17.2773C21.7944 18.4394 22.0329 19.3327 22.5114 19.9572C22.9885 20.5789 23.6283 20.8891 24.4308 20.8891C25.5587 20.8891 26.3198 20.3432 26.7142 19.2514H31.3747C30.9997 20.925 30.2055 22.2387 28.9921 23.1941C27.7787 24.1508 26.284 24.6278 24.508 24.6278C23.1098 24.6278 21.8688 24.33 20.7851 23.7345C19.6999 23.1362 18.8546 22.2815 18.2479 21.1703C17.6412 20.0606 17.3379 18.7634 17.3379 17.2773Z" fill="#002225"/>
<path d="M36.0326 5.47119V24.4237H31.6533V5.47119H36.0326Z" fill="#002225"/>
<path d="M0 35.943C0 34.1674 0.383324 32.5848 1.15273 31.1952C1.92076 29.8029 2.99214 28.718 4.36825 27.9418C5.74297 27.1671 7.30247 26.7783 9.04536 26.7783C11.1771 26.7783 13.0027 27.3435 14.5222 28.4712C16.0445 29.5961 17.0607 31.1318 17.5723 33.0756H12.7573C12.396 32.3257 11.8872 31.7549 11.2295 31.3607C10.5745 30.9678 9.82855 30.7706 8.9902 30.7706C7.64029 30.7706 6.54685 31.2421 5.7085 32.1823C4.87291 33.1197 4.45649 34.3742 4.45649 35.943C4.45649 37.5173 4.87291 38.7718 5.7085 39.7093C6.54685 40.6467 7.64029 41.1154 8.9902 41.1154C9.82855 41.1154 10.5745 40.921 11.2295 40.5309C11.8872 40.138 12.396 39.5645 12.7573 38.8104H17.5723C17.0607 40.7597 16.0445 42.2927 14.5222 43.4093C13.0027 44.5274 11.1771 45.0857 9.04536 45.0857C7.30247 45.0857 5.74297 44.6983 4.36825 43.9222C2.99214 43.1474 1.92076 42.068 1.15273 40.6853C0.383324 39.2998 0 37.7186 0 35.943Z" fill="#002225"/>
<path d="M24.7176 45.1629C23.3167 45.1629 22.055 44.8652 20.934 44.2696C19.8157 43.6713 18.9374 42.8166 18.2976 41.7055C17.6578 40.5958 17.3379 39.2985 17.3379 37.8124C17.3379 36.3456 17.6605 35.0539 18.3086 33.9359C18.9594 32.8193 19.8474 31.9604 20.9726 31.3607C22.1005 30.7624 23.3663 30.4619 24.7672 30.4619C26.1681 30.4619 27.4312 30.7624 28.5563 31.3607C29.6843 31.9604 30.5722 32.8193 31.2203 33.9359C31.8711 35.0539 32.1965 36.3456 32.1965 37.8124C32.1965 39.2834 31.867 40.5778 31.2093 41.6945C30.5502 42.8125 29.6539 43.6713 28.5177 44.2696C27.3815 44.8652 26.1144 45.1629 24.7176 45.1629ZM24.7176 41.3746C25.5518 41.3746 26.2633 41.0686 26.8521 40.4538C27.4395 39.8362 27.7345 38.9566 27.7345 37.8124C27.7345 36.6696 27.4477 35.7914 26.8741 35.1766C26.3033 34.5631 25.6014 34.2557 24.7672 34.2557C23.9137 34.2557 23.2036 34.559 22.6382 35.1656C22.0757 35.7721 21.7944 36.6544 21.7944 37.8124C21.7944 38.9566 22.0715 39.8362 22.6272 40.4538C23.1815 41.0686 23.8792 41.3746 24.7176 41.3746Z" fill="#002225"/>
<path d="M41.1816 30.5171C42.8541 30.5171 44.1889 31.0602 45.1858 32.1438C46.1855 33.2287 46.686 34.7176 46.686 36.6104V44.9589H42.3343V37.2004C42.3343 36.245 42.0861 35.502 41.5897 34.9726C41.0961 34.4432 40.4315 34.1786 39.5931 34.1786C38.7548 34.1786 38.0874 34.4432 37.591 34.9726C37.0974 35.502 36.8519 36.245 36.8519 37.2004V44.9589H32.4727V30.6715H36.8519V32.5629C37.2959 31.9315 37.8944 31.4325 38.6445 31.0685C39.3946 30.7018 40.2398 30.5171 41.1816 30.5171Z" fill="#002225"/>
<path d="M53.4969 45.1629C52.2504 45.1629 51.1391 44.9506 50.1656 44.5233C49.1949 44.0973 48.4255 43.5128 47.8601 42.7697C47.2976 42.0281 46.9832 41.1954 46.917 40.2718H51.2411C51.2921 40.7681 51.5224 41.1706 51.9305 41.4794C52.3414 41.7855 52.8475 41.9371 53.4473 41.9371C53.9906 41.9371 54.4125 41.8309 54.7103 41.6173C55.0109 41.405 55.1626 41.1265 55.1626 40.7846C55.1626 40.3766 54.9489 40.076 54.5228 39.8803C54.0954 39.6818 53.4046 39.4639 52.449 39.2241C51.4231 38.9856 50.5682 38.7333 49.8843 38.4686C49.2032 38.2039 48.6158 37.7876 48.1194 37.2169C47.623 36.6434 47.3748 35.87 47.3748 34.8954C47.3748 34.0765 47.6009 33.3293 48.0532 32.6566C48.5054 31.9811 49.1701 31.4462 50.0498 31.0519C50.9322 30.659 51.9774 30.4619 53.1881 30.4619C54.982 30.4619 56.3953 30.9072 57.4295 31.7964C58.4622 32.6828 59.0565 33.8615 59.211 35.331H55.1626C55.0923 34.8347 54.873 34.4418 54.5063 34.151C54.1422 33.8615 53.6596 33.7153 53.0612 33.7153C52.5497 33.7153 52.1567 33.8146 51.8809 34.0131C51.6079 34.2089 51.4728 34.4763 51.4728 34.8182C51.4728 35.2262 51.6892 35.5337 52.1236 35.7391C52.5607 35.9458 53.2405 36.1513 54.1643 36.3567C55.2233 36.6296 56.0851 36.8971 56.7511 37.1617C57.4157 37.4264 58.0003 37.8538 58.505 38.4411C59.0083 39.0297 59.2689 39.8196 59.2882 40.8122C59.2882 41.6476 59.0524 42.3934 58.5822 43.051C58.1106 43.7099 57.4364 44.2255 56.558 44.6005C55.6783 44.9755 54.6579 45.1629 53.4969 45.1629Z" fill="#002225"/>
<path d="M74.0378 30.6714V44.9588H69.6585V43.0123C69.2131 43.6451 68.6106 44.1538 67.8494 44.5398C67.0911 44.923 66.2513 45.1132 65.3289 45.1132C64.2368 45.1132 63.2716 44.8706 62.4333 44.3854C61.5949 43.8973 60.9455 43.1929 60.4863 42.2734C60.0258 41.3511 59.7969 40.2662 59.7969 39.02V30.6714H64.1486V38.43C64.1486 39.3867 64.3968 40.1283 64.8932 40.6577C65.3896 41.1871 66.0542 41.4518 66.8898 41.4518C67.7419 41.4518 68.4175 41.1871 68.9139 40.6577C69.4103 40.1283 69.6585 39.3867 69.6585 38.43V30.6714H74.0378Z" fill="#002225"/>
<path d="M79.514 26.0063V44.9589H75.1348V26.0063H79.514Z" fill="#002225"/>
<path d="M88.6041 41.2474V44.9585H86.3758C84.7874 44.9585 83.5478 44.5711 82.6584 43.795C81.7718 43.0161 81.3292 41.7478 81.3292 39.9902V34.3049H79.5918V30.671H81.3292V27.186H85.7084V30.671H88.582V34.3049H85.7084V40.0398C85.7084 40.4671 85.8105 40.7759 86.0173 40.9662C86.2228 41.1537 86.5647 41.2474 87.0432 41.2474H88.6041Z" fill="#002225"/>
<path d="M91.1879 29.1826C90.4185 29.1826 89.7925 28.9565 89.3071 28.5043C88.8218 28.0521 88.5791 27.4938 88.5791 26.828C88.5791 26.1442 88.8218 25.5762 89.3071 25.1241C89.7925 24.6719 90.4185 24.4458 91.1879 24.4458C91.9408 24.4458 92.5613 24.6719 93.0466 25.1241C93.532 25.5762 93.7747 26.1442 93.7747 26.828C93.7747 27.4938 93.532 28.0521 93.0466 28.5043C92.5613 28.9565 91.9408 29.1826 91.1879 29.1826ZM93.3665 30.6714V44.9589H88.9872V30.6714H93.3665Z" fill="#002225"/>
<path d="M103.202 30.5171C104.875 30.5171 106.209 31.0602 107.206 32.1438C108.206 33.2287 108.707 34.7176 108.707 36.6104V44.9589H104.355V37.2004C104.355 36.245 104.107 35.502 103.61 34.9726C103.117 34.4432 102.452 34.1786 101.614 34.1786C100.775 34.1786 100.108 34.4432 99.6115 34.9726C99.1179 35.502 98.8724 36.245 98.8724 37.2004V44.9589H94.4932V30.6715H98.8724V32.5629C99.3164 31.9315 99.9149 31.4325 100.665 31.0685C101.415 30.7018 102.26 30.5171 103.202 30.5171Z" fill="#002225"/>
<path d="M115.131 30.4619C116.137 30.4619 117.022 30.6687 117.784 31.0795C118.545 31.4876 119.129 32.0266 119.538 32.6952V30.6715H123.917V44.9313C123.917 46.2465 123.655 47.4376 123.134 48.5046C122.615 49.5702 121.822 50.4194 120.756 51.0522C119.689 51.6836 118.363 52.0006 116.774 52.0006C114.656 52.0006 112.938 51.5002 111.623 50.5007C110.31 49.504 109.56 48.1517 109.373 46.4423H113.697C113.836 46.9895 114.161 47.421 114.673 47.7381C115.183 48.0538 115.816 48.2123 116.57 48.2123C117.475 48.2123 118.195 47.9504 118.732 47.4293C119.269 46.911 119.538 46.0783 119.538 44.9313V42.9076C119.11 43.5776 118.52 44.1207 117.767 44.5398C117.017 44.9562 116.137 45.1629 115.131 45.1629C113.953 45.1629 112.887 44.8597 111.932 44.2531C110.975 43.6465 110.219 42.7849 109.665 41.6669C109.109 40.5503 108.832 39.2572 108.832 37.7904C108.832 36.3208 109.109 35.0319 109.665 33.9249C110.219 32.8151 110.975 31.9604 111.932 31.3607C112.887 30.7624 113.953 30.4619 115.131 30.4619ZM119.538 37.8124C119.538 36.7206 119.234 35.859 118.627 35.2262C118.021 34.5949 117.283 34.2778 116.416 34.2778C115.544 34.2778 114.805 34.5907 114.199 35.2152C113.592 35.8369 113.289 36.6958 113.289 37.7904C113.289 38.8822 113.592 39.7479 114.199 40.3876C114.805 41.0272 115.544 41.3471 116.416 41.3471C117.283 41.3471 118.021 41.0328 118.627 40.4041C119.234 39.7727 119.538 38.9084 119.538 37.8124Z" fill="#002225"/>
<path d="M127.084 45.1628C126.315 45.1628 125.689 44.9367 125.204 44.4845C124.718 44.0323 124.476 43.474 124.476 42.8082C124.476 42.1244 124.718 41.5537 125.204 41.0932C125.689 40.63 126.315 40.3984 127.084 40.3984C127.837 40.3984 128.458 40.63 128.943 41.0932C129.428 41.5537 129.671 42.1244 129.671 42.8082C129.671 43.474 129.428 44.0323 128.943 44.4845C128.458 44.9367 127.837 45.1628 127.084 45.1628Z" fill="#00AABB"/>
<g clip-path="url(#clip0_735_25307)">
<g clip-path="url(#clip1_735_25307)">
<path d="M49.4419 25.1825C49.4261 25.1825 49.4102 25.1825 49.3996 25.1825C43.0749 25.1799 40.4381 22.1042 39.3394 19.5262C38.3387 17.1731 38.3519 14.4839 39.3791 11.9562C41.542 6.64399 46.9984 5.52966 50.4453 5.68847C51.5916 3.00457 54.3264 -0.505147 58.9462 0.0612784C64.2543 0.712403 66.0916 5.82876 66.3193 8.4412C66.3934 9.2776 65.7739 10.0161 64.9373 10.0902C64.106 10.1643 63.3647 9.54758 63.288 8.71382C63.2668 8.50472 62.7505 3.59482 58.5755 3.08133C54.4667 2.57843 53.0027 7.52009 52.9418 7.73184C52.73 8.47031 51.9967 8.94145 51.2369 8.81969C50.9616 8.77734 44.3509 7.82183 42.2039 13.0996C41.4838 14.8704 41.4626 16.7285 42.143 18.3325C43.2179 20.8576 45.6641 22.1386 49.4102 22.1386C49.4208 22.1386 49.4314 22.1386 49.4446 22.1386C49.4711 22.1386 52.4706 22.1519 54.885 20.082C55.5998 19.468 56.5079 18.4675 57.4689 17.4061C60.4764 14.0843 64.2199 9.95254 68.416 10.1114C70.0362 10.1722 71.4738 10.6328 72.689 11.4824C75.4608 13.4173 76.5118 17.0514 75.2437 20.3176C73.9597 23.6262 70.1501 26.9506 59.3062 24.0205C58.4935 23.8008 58.0143 22.9644 58.234 22.1545C58.4538 21.3446 59.2903 20.8628 60.1005 21.0825C64.8817 22.3742 70.8966 23.0994 72.4057 19.2165C73.1655 17.2631 72.5645 15.1086 70.9469 13.9784C70.2189 13.4702 69.3294 13.1923 68.3022 13.1552C65.525 13.0388 62.1734 16.7496 59.7272 19.4521C58.7 20.5876 57.7284 21.6595 56.868 22.3954C53.7361 25.0819 50.0005 25.1878 49.4419 25.1878V25.1825Z" fill="#00AABB"/>
</g>
</g>
<defs>
<clipPath id="clip0_735_25307">
<rect width="37.3022" height="25.3144" fill="white" transform="translate(38.6006 0.000488281)"/>
</clipPath>
<clipPath id="clip1_735_25307">
<rect width="37.1777" height="25.1821" fill="white" transform="translate(38.6006 0.000488281)"/>
</clipPath>
</defs>
</svg>
