<svg width="38" height="26" viewBox="0 0 38 26" fill="none" xmlns="http://www.w3.org/2000/svg">
<path d="M10.8414 25.5249C10.8255 25.5249 10.8096 25.5249 10.799 25.5249C4.4743 25.5223 1.83747 22.4466 0.738793 19.8686C-0.261933 17.5156 -0.248696 14.8264 0.778504 12.2986C2.94145 6.98639 8.39778 5.87207 11.8447 6.03088C12.9911 3.34698 15.7258 -0.16274 20.3456 0.403686C25.6537 1.05481 27.491 6.17116 27.7187 8.7836C27.7928 9.62001 27.1733 10.3585 26.3367 10.4326C25.5054 10.5067 24.7641 9.88998 24.6874 9.05623C24.6662 8.84713 24.1499 3.93723 19.975 3.42374C15.8662 2.92084 14.4021 7.8625 14.3412 8.07425C14.1295 8.81272 13.3961 9.28386 12.6363 9.1621C12.361 9.11975 5.75036 8.16424 3.6033 13.4421C2.8832 15.2128 2.86202 17.0709 3.54241 18.6749C4.61727 21.2 7.06348 22.481 10.8096 22.481C10.8202 22.481 10.8308 22.481 10.844 22.481C10.8705 22.481 13.87 22.4943 16.2845 20.4244C16.9993 19.8104 17.9073 18.8099 18.8683 17.7485C21.8758 14.4267 25.6193 10.295 29.8154 10.4538C31.4356 10.5146 32.8732 10.9752 34.0884 11.8248C36.8602 13.7597 37.9112 17.3938 36.6431 20.66C35.3591 23.9686 31.5495 27.293 20.7056 24.3629C19.8929 24.1433 19.4137 23.3069 19.6334 22.4969C19.8532 21.687 20.6898 21.2053 21.4999 21.4249C26.2811 22.7166 32.2961 23.4418 33.8051 19.5589C34.5649 17.6055 33.9639 15.451 32.3464 14.3208C31.6183 13.8126 30.7288 13.5347 29.7016 13.4976C26.9244 13.3812 23.5728 17.0921 21.1266 19.7945C20.0994 20.93 19.1278 22.002 18.2674 22.7378C15.1355 25.4243 11.4 25.5302 10.8414 25.5302V25.5249Z" fill="#002225"/>
</svg>
