<svg width="52" height="52" viewBox="0 0 52 52" fill="none" xmlns="http://www.w3.org/2000/svg">
<g clip-path="url(#clip0_3685_548)">
<path d="M17.8365 36.7368C17.8365 36.7368 17.4812 37.8017 16.9482 38.3347C16.7921 38.508 16.6002 38.6453 16.3859 38.7371C16.1715 38.8289 15.9398 38.8731 15.7067 38.8666C14.8321 39.1027 13.9429 39.2808 13.0449 39.3997C13.0449 39.3997 14.2864 39.5762 15.7067 39.7539C16.2386 39.7539 16.2386 39.7539 16.595 39.9316C17.4812 39.9316 17.8365 39.3997 17.8365 39.3997V36.7368Z" fill="#E9654B"/>
<path d="M34.164 36.7368C34.164 36.7368 34.5182 37.8017 35.0512 38.3347C35.2074 38.508 35.3992 38.6453 35.6136 38.7371C35.8279 38.8289 36.0596 38.8731 36.2927 38.8666C37.1676 39.1028 38.0572 39.2808 38.9556 39.3997C38.9556 39.3997 37.713 39.5762 36.1162 39.7539C35.5832 39.7539 35.5832 39.7539 35.2278 39.9316C34.164 39.9316 33.9863 39.3997 33.9863 39.3997L34.164 36.7368Z" fill="#E9654B"/>
<path d="M26.1772 38.3348C36.7631 38.3348 45.3446 29.7533 45.3446 19.1674C45.3446 8.58155 36.7631 0 26.1772 0C15.5913 0 7.00977 8.58155 7.00977 19.1674C7.00977 29.7533 15.5913 38.3348 26.1772 38.3348Z" fill="#B6CFEA"/>
<path d="M26.1766 37.6251C36.3706 37.6251 44.6344 29.3613 44.6344 19.1673C44.6344 8.97333 36.3706 0.709473 26.1766 0.709473C15.9826 0.709473 7.71875 8.97333 7.71875 19.1673C7.71875 29.3613 15.9826 37.6251 26.1766 37.6251Z" fill="#E6F5F8"/>
<path d="M26.1772 34.6069C34.5087 34.6069 41.2626 27.8529 41.2626 19.5215C41.2626 11.19 34.5087 4.43604 26.1772 4.43604C17.8458 4.43604 11.0918 11.19 11.0918 19.5215C11.0918 27.8529 17.8458 34.6069 26.1772 34.6069Z" fill="#D0E8F0"/>
<path d="M17.304 26.6216C17.304 26.6216 18.5465 46.6771 18.5465 47.0319C18.5465 47.2094 18.7239 47.5643 17.8365 47.9193C16.9491 48.2742 14.1094 48.9841 14.1094 48.9841H18.369C20.3212 48.9841 20.3212 47.3868 20.3212 47.032C20.3212 46.6769 20.8537 39.0453 20.8537 39.0453C20.8537 39.0453 21.0311 48.0968 21.0311 48.4518C21.0311 48.8066 20.8537 49.3392 19.6113 49.6941L16.0616 50.404H20.1437C22.6284 50.404 22.6284 48.8067 22.6284 48.8067L23.1609 40.8202C23.1609 40.8202 23.3385 48.8067 23.3385 49.6941C23.3385 50.404 22.806 50.9365 20.8537 51.2915C19.6112 51.6463 18.0139 52.0013 18.0139 52.0013H22.6284C24.9358 51.8239 25.2907 50.2265 25.2907 50.2265L29.1952 30.3487L17.304 26.6216Z" fill="#EE794B"/>
<path d="M35.0514 26.6216C35.0514 26.6216 33.8089 46.6771 33.8089 47.0319C33.8089 47.2094 33.6315 47.5643 34.5189 47.9193C35.4063 48.2742 38.246 48.9841 38.246 48.9841H33.9864C32.0343 48.9841 32.0343 47.3868 32.0343 47.032C32.0343 46.6769 31.5017 39.0453 31.5017 39.0453C31.5017 39.0453 31.3243 48.0968 31.3243 48.4518C31.3243 48.8066 31.5017 49.3392 32.744 49.6941L36.2938 50.404H32.2117C29.727 50.404 29.727 48.8067 29.727 48.8067L29.1945 40.8202C29.1945 40.8202 29.0171 48.8067 29.0171 49.6941C29.0171 50.404 29.5494 50.9365 31.5017 51.2915C32.7442 51.6463 34.3415 52.0013 34.3415 52.0013H29.727C27.4198 51.8239 27.0647 50.2265 27.0647 50.2265L23.1602 30.3487L35.0514 26.6216Z" fill="#EE794B"/>
<path d="M35.2306 16.86C35.2306 21.8293 31.1484 25.734 26.3564 25.734C21.5645 25.734 17.4824 21.6519 17.4824 16.8598C17.4824 12.0679 21.5645 7.98584 26.3564 7.98584C31.1484 7.98584 35.2304 11.8905 35.2304 16.8598L35.2306 16.86Z" fill="#EE794B"/>
<mask id="mask0_3685_548" style="mask-type:luminance" maskUnits="userSpaceOnUse" x="17" y="16" width="19" height="25">
<path d="M35.2302 16.5049L34.1654 40.8197H18.1921L17.3047 16.5049" fill="white"/>
</mask>
<g mask="url(#mask0_3685_548)">
<path d="M26.3563 37.4474C35.08 37.4474 42.152 30.3754 42.152 21.6517C42.152 12.9279 35.08 5.85596 26.3563 5.85596C17.6325 5.85596 10.5605 12.9279 10.5605 21.6517C10.5605 30.3754 17.6325 37.4474 26.3563 37.4474Z" fill="#EE794B"/>
</g>
<g opacity="0.22">
<path d="M34.6978 26.6214C34.6978 26.6214 35.7627 17.2151 34.3427 13.6654C31.6806 7.45367 25.4688 7.98601 25.4688 7.98601C25.4688 7.98601 29.0185 9.40592 29.1959 14.7303C29.3734 18.4575 29.1959 23.9593 29.1959 23.9593L34.6978 26.6214Z" fill="#E34E3B"/>
</g>
<g opacity="0.5">
<path d="M22.6291 13.3104C23.3152 13.3104 23.8715 12.7542 23.8715 12.0681C23.8715 11.3819 23.3152 10.8257 22.6291 10.8257C21.9429 10.8257 21.3867 11.3819 21.3867 12.0681C21.3867 12.7542 21.9429 13.3104 22.6291 13.3104Z" fill="#FBDFC3"/>
</g>
<path d="M29.3736 30.1713C29.3736 33.1884 27.9537 35.1407 26.179 35.1407C24.4041 35.1407 22.9844 32.8335 22.9844 29.8164C22.9844 29.8164 24.4041 32.6561 26.3564 32.6561C28.3087 32.6561 29.3736 30.1713 29.3736 30.1713Z" fill="#010101"/>
<path d="M29.374 30.1712C29.374 32.1233 27.9541 33.1883 26.1793 33.1883C24.4045 33.1883 23.1621 31.7685 23.1621 29.9937C23.1621 29.9937 24.582 31.7685 26.5343 31.7685C28.4864 31.7685 29.374 30.1712 29.374 30.1712Z" fill="white"/>
<path d="M32.3905 27.3313C35.4291 27.3313 37.8923 24.868 37.8923 21.8295C37.8923 18.7909 35.4291 16.3276 32.3905 16.3276C29.3519 16.3276 26.8887 18.7909 26.8887 21.8295C26.8887 24.868 29.3519 27.3313 32.3905 27.3313Z" fill="#E9654B"/>
<path d="M19.9667 27.3313C23.0052 27.3313 25.4685 24.868 25.4685 21.8295C25.4685 18.7909 23.0052 16.3276 19.9667 16.3276C16.9281 16.3276 14.4648 18.7909 14.4648 21.8295C14.4648 24.868 16.9281 27.3313 19.9667 27.3313Z" fill="#E9654B"/>
<path d="M32.3905 26.089C34.743 26.089 36.6501 24.1819 36.6501 21.8294C36.6501 19.4769 34.743 17.5698 32.3905 17.5698C30.0379 17.5698 28.1309 19.4769 28.1309 21.8294C28.1309 24.1819 30.0379 26.089 32.3905 26.089Z" fill="white"/>
<path d="M19.6112 26.089C21.9637 26.089 23.8708 24.1819 23.8708 21.8294C23.8708 19.4769 21.9637 17.5698 19.6112 17.5698C17.2587 17.5698 15.3516 19.4769 15.3516 21.8294C15.3516 24.1819 17.2587 26.089 19.6112 26.089Z" fill="white"/>
<path d="M19.6115 22.5394C20.2977 22.5394 20.8539 21.9832 20.8539 21.2971C20.8539 20.6109 20.2977 20.0547 19.6115 20.0547C18.9254 20.0547 18.3691 20.6109 18.3691 21.2971C18.3691 21.9832 18.9254 22.5394 19.6115 22.5394Z" fill="#010101"/>
<path d="M32.3908 22.5394C33.077 22.5394 33.6332 21.9832 33.6332 21.2971C33.6332 20.6109 33.077 20.0547 32.3908 20.0547C31.7047 20.0547 31.1484 20.6109 31.1484 21.2971C31.1484 21.9832 31.7047 22.5394 32.3908 22.5394Z" fill="#010101"/>
<path d="M6.65445 23.9588C6.53599 23.9659 6.41736 23.9478 6.30641 23.9056C6.19546 23.8635 6.09472 23.7983 6.01086 23.7143C5.92699 23.6304 5.8619 23.5295 5.8199 23.4185C5.77789 23.3075 5.75994 23.1889 5.7672 23.0704V15.9724C5.75992 15.8539 5.77791 15.7351 5.81998 15.6241C5.86204 15.513 5.92723 15.4121 6.01122 15.3281C6.0952 15.2441 6.19608 15.1789 6.30715 15.1369C6.41823 15.0948 6.53698 15.0768 6.65554 15.0841C6.77391 15.0771 6.89242 15.0954 7.00324 15.1376C7.11406 15.1798 7.21466 15.245 7.29841 15.329C7.38215 15.4129 7.44714 15.5137 7.48908 15.6246C7.53102 15.7355 7.54896 15.8541 7.5417 15.9724V23.0715C7.54881 23.1899 7.53073 23.3084 7.48865 23.4193C7.44658 23.5301 7.38147 23.6308 7.29762 23.7147C7.21377 23.7985 7.11309 23.8636 7.00222 23.9057C6.89135 23.9478 6.77282 23.9659 6.65445 23.9588Z" fill="#B6CFEA"/>
<path d="M45.345 23.9588C45.2264 23.966 45.1077 23.9481 44.9966 23.906C44.8855 23.8639 44.7847 23.7987 44.7007 23.7147C44.6167 23.6308 44.5515 23.5299 44.5094 23.4188C44.4674 23.3077 44.4494 23.189 44.4567 23.0704V15.9724C44.4494 15.8539 44.4674 15.7351 44.5094 15.6241C44.5515 15.513 44.6167 15.4121 44.7007 15.3281C44.7847 15.2441 44.8855 15.1789 44.9966 15.1369C45.1077 15.0948 45.2264 15.0768 45.345 15.0841C45.4634 15.0771 45.5819 15.0954 45.6927 15.1376C45.8035 15.1798 45.9041 15.245 45.9879 15.329C46.0716 15.4129 46.1366 15.5137 46.1785 15.6246C46.2205 15.7355 46.2384 15.8541 46.2312 15.9724V23.0715C46.2383 23.1899 46.2202 23.3084 46.1781 23.4193C46.136 23.5301 46.0709 23.6308 45.9871 23.7147C45.9032 23.7985 45.8025 23.8636 45.6917 23.9057C45.5808 23.9478 45.4634 23.9659 45.345 23.9588Z" fill="#B6CFEA"/>
<path d="M20.1431 5.85653C20.6331 5.85653 21.0304 5.4593 21.0304 4.96928C21.0304 4.47927 20.6331 4.08203 20.1431 4.08203C19.6531 4.08203 19.2559 4.47927 19.2559 4.96928C19.2559 5.4593 19.6531 5.85653 20.1431 5.85653Z" fill="white"/>
<path d="M13.7532 28.9284C13.6569 28.9402 13.5592 28.9304 13.4672 28.8997C13.3752 28.8689 13.2912 28.8181 13.2213 28.7507C11.0915 26.089 10.0255 22.7166 10.0255 19.3452C10.0163 16.5414 10.7516 13.7854 12.1564 11.3589C13.5796 9.04793 15.5245 7.10262 17.8352 5.679C17.9832 5.6127 18.1482 5.59418 18.3072 5.62602C18.4663 5.65787 18.6114 5.73849 18.7225 5.85666C18.789 6.0048 18.8077 6.17002 18.7758 6.32927C18.744 6.48851 18.6632 6.63385 18.5448 6.745C16.3433 7.98905 14.5104 9.79373 13.2323 11.9756C11.9542 14.1575 11.2765 16.6389 11.2681 19.1676C11.2638 22.3236 12.3271 25.3883 14.2851 27.8635C14.4628 28.0412 14.4628 28.5731 14.1086 28.7518C13.9309 28.9284 13.9309 28.9284 13.7532 28.9284Z" fill="white"/>
<g opacity="0.25">
<path d="M34.1638 37.2705V35.8507C31.6791 37.2705 29.0169 38.6904 25.8222 38.6904C22.2727 38.6904 19.9654 37.0931 17.6582 35.8506L17.8356 37.2705C17.8356 37.2705 20.4979 40.1103 25.9997 40.1103C31.1466 39.9328 34.1638 37.2705 34.1638 37.2705Z" fill="#E9654B"/>
</g>
</g>
<defs>
<clipPath id="clip0_3685_548">
<rect width="52" height="52" fill="white"/>
</clipPath>
</defs>
</svg>
