<svg width="59" height="59" viewBox="0 0 59 59" fill="none" xmlns="http://www.w3.org/2000/svg">
<path fill-rule="evenodd" clip-rule="evenodd" d="M23.5293 37.4209H26.837V29.9463L33.6109 37.4209H37.9032L29.4883 28.18L37.4865 20.0859H33.0504L26.837 26.351V20.0859H23.5293V37.4209Z" fill="url(#paint0_linear_3681_541)"/>
<path d="M31.4612 14.0235L43.2096 20.6979C43.3072 20.7529 43.3885 20.8327 43.4455 20.9291C43.5024 21.0256 43.533 21.1353 43.5341 21.2473V34.5961C43.5341 34.8173 43.6558 35.0312 43.8586 35.1455L54.3385 41.1008C54.4365 41.1574 54.5476 41.1874 54.6608 41.1878C54.7739 41.1882 54.8852 41.159 54.9836 41.1031C55.082 41.0472 55.1641 40.9665 55.2217 40.8691C55.2793 40.7717 55.3104 40.6609 55.312 40.5477V14.5545C55.3115 14.4419 55.2813 14.3314 55.2243 14.2342C55.1673 14.1371 55.0856 14.0567 54.9875 14.0014L32.1102 1.01032C32.0122 0.953726 31.9011 0.923741 31.7879 0.923344C31.6748 0.922947 31.5634 0.952153 31.465 1.00806C31.3666 1.06397 31.2846 1.14464 31.227 1.24207C31.1694 1.33949 31.1383 1.45028 31.1367 1.56345V13.4741C31.1367 13.7027 31.2621 13.9092 31.4612 14.0235Z" fill="url(#paint1_linear_3681_541)"/>
<path d="M41.5692 37.9369L29.8245 44.6113C29.7256 44.6676 29.6138 44.6971 29.5 44.6971C29.3862 44.6971 29.2744 44.6676 29.1755 44.6113L15.7899 37.0077C15.6918 36.9524 15.6101 36.872 15.5531 36.7749C15.4961 36.6777 15.4658 36.5672 15.4654 36.4546V21.2473C15.4654 21.0187 15.5907 20.8085 15.7899 20.6942L27.5382 14.0198C27.6366 13.9648 27.7185 13.8845 27.7756 13.7873C27.8326 13.6901 27.8627 13.5794 27.8627 13.4667V1.56345C27.8612 1.45028 27.8301 1.33949 27.7725 1.24207C27.7149 1.14464 27.6328 1.06397 27.5344 1.00806C27.436 0.952153 27.3247 0.922947 27.2115 0.923344C27.0984 0.923741 26.9873 0.953726 26.8892 1.01032L4.012 14.0051C3.9139 14.0604 3.83219 14.1407 3.7752 14.2379C3.7182 14.3351 3.68794 14.4456 3.6875 14.5582V43.1437C3.6875 43.3686 3.80919 43.5788 4.012 43.6968L29.1755 57.9896C29.3746 58.1002 29.6254 58.1002 29.8245 57.9896L52.7017 44.9948C52.8 44.9397 52.8818 44.8594 52.9387 44.7622C52.9956 44.665 53.0256 44.5544 53.0256 44.4417C53.0256 44.329 52.9956 44.2184 52.9387 44.1212C52.8818 44.024 52.8 43.9437 52.7017 43.8886L42.2182 37.9333C42.1193 37.877 42.0075 37.8474 41.8937 37.8474C41.7799 37.8474 41.6681 37.877 41.5692 37.9333V37.9369Z" fill="url(#paint2_linear_3681_541)"/>
<defs>
<linearGradient id="paint0_linear_3681_541" x1="39.4224" y1="36.4289" x2="31.4205" y2="17.088" gradientUnits="userSpaceOnUse">
<stop stop-color="#426DDB"/>
<stop offset="1" stop-color="#3B4BDB"/>
</linearGradient>
<linearGradient id="paint1_linear_3681_541" x1="57.8674" y1="38.881" x2="35.2003" y2="-0.785486" gradientUnits="userSpaceOnUse">
<stop stop-color="#426DDB"/>
<stop offset="1" stop-color="#3B4BDB"/>
</linearGradient>
<linearGradient id="paint2_linear_3681_541" x1="34.7842" y1="54.9584" x2="10.0742" y2="10.6199" gradientUnits="userSpaceOnUse">
<stop stop-color="#2775FF"/>
<stop offset="1" stop-color="#188DFF"/>
</linearGradient>
</defs>
</svg>
