<svg width="180" height="90" viewBox="0 0 180 90" fill="none" xmlns="http://www.w3.org/2000/svg">
<g filter="url(#filter0_i_1622_3329)">
<path d="M75.4559 46.5264H79.4737L77.4557 40.6812L75.4559 46.5264ZM81.0441 51.3302L79.9828 48.1514H74.9253L73.9022 51.3302H71.6719L76.3016 38.6714H78.7126L83.2727 51.3302H81.0441ZM96.1338 51.3302V45.029C96.1338 44.4685 96.0243 44.0672 95.8054 43.8235C95.5865 43.5797 95.2251 43.4587 94.7276 43.4587C94.3495 43.4587 93.9482 43.5217 93.5221 43.6494C93.1313 43.762 92.7567 43.9247 92.4078 44.1336V51.3302H90.2521V45.029C90.2521 44.4685 90.1426 44.0672 89.9238 43.8235C89.7049 43.5797 89.3434 43.4587 88.8459 43.4587C88.4594 43.4637 88.0755 43.5223 87.7051 43.6328C87.2971 43.7467 86.9066 43.9158 86.5443 44.1352V51.3318H84.3887V42.0359H86.1795L86.3785 42.9679C86.9871 42.5533 87.5625 42.2499 88.1031 42.0558C88.627 41.8645 89.1802 41.7657 89.738 41.764C90.8706 41.764 91.65 42.1835 92.0595 43.0242C93.2783 42.1835 94.4473 41.764 95.5666 41.764C96.4289 41.764 97.1005 41.9962 97.5764 42.4671C98.0523 42.938 98.2894 43.6146 98.2894 44.5067V51.3385H96.1338M103.443 50.0683C103.788 50.0683 104.15 49.9937 104.529 49.8395C104.929 49.6763 105.302 49.4526 105.634 49.1762V47.4218C105.003 47.2891 104.446 47.2228 103.975 47.2228C102.74 47.2228 102.123 47.7153 102.123 48.7019C102.123 49.1281 102.239 49.4597 102.48 49.6969C102.72 49.934 103.043 50.0534 103.475 50.0534L103.443 50.0683ZM105.907 51.3285L105.741 50.4331C105.321 50.7956 104.843 51.0859 104.327 51.2921C103.808 51.4993 103.294 51.6021 102.785 51.6021C101.932 51.6021 101.243 51.3468 100.712 50.8344C100.181 50.322 99.9161 49.6736 99.9161 48.8445C99.9161 47.9441 100.241 47.2261 100.911 46.6889C101.581 46.1516 102.437 45.8846 103.531 45.8846C104.194 45.8846 104.882 45.9758 105.65 46.1582V45.0804C105.65 44.4586 105.518 44.0275 105.249 43.7837C104.98 43.5399 104.513 43.4189 103.843 43.4189C102.893 43.4189 101.803 43.6179 100.573 44.0208V42.5052C101.03 42.2731 101.593 42.0907 102.256 41.958C102.914 41.8259 103.583 41.7592 104.254 41.759C105.469 41.759 106.365 42.0028 106.94 42.4886C107.516 42.9745 107.806 43.7373 107.806 44.772V51.3302H105.924M109.19 51.3302V49.7383L114.381 43.6743H109.363V42.016H116.687V43.6046L111.5 49.6687H116.744V51.3269H109.197M122.144 49.9041C123.678 49.9041 124.446 48.8263 124.446 46.6706C124.446 44.5282 123.678 43.457 122.144 43.457C120.611 43.457 119.843 44.5282 119.843 46.6706C119.843 48.8263 120.611 49.9041 122.144 49.9041ZM122.144 51.6038C120.732 51.6038 119.629 51.1693 118.838 50.2971C118.047 49.4249 117.654 48.2211 117.654 46.6706C117.654 45.1202 118.049 43.918 118.841 43.0557C119.634 42.1935 120.735 41.759 122.148 41.759C123.56 41.759 124.662 42.1902 125.454 43.0557C126.247 43.9213 126.641 45.1285 126.641 46.6706C126.641 48.2128 126.243 49.4266 125.454 50.2971C124.665 51.1677 123.56 51.6038 122.148 51.6038M134.584 51.3302V45.1749C134.584 44.578 134.463 44.1435 134.219 43.8683C133.976 43.593 133.586 43.457 133.05 43.457C132.246 43.457 131.425 43.7223 130.585 44.2596V51.3285H128.429V42.031H130.22L130.439 43.0541C131.599 42.1918 132.76 41.7574 134.02 41.7574C134.909 41.7574 135.586 41.9895 136.048 42.4604C136.511 42.9314 136.745 43.6079 136.745 44.5V51.3318H134.589M141.068 51.3302V38.6698H148.54V39.6382H142.146V44.2812H147.626V45.2495H142.146V50.3452H148.54V51.3136H141.068M150.695 51.3136V38.6698H151.773V44.5332L157.582 38.6698H158.971L152.833 44.8433L159.466 51.3103H157.985L151.757 45.2462V51.3103H150.679M162.973 44.9378C162.036 44.573 161.348 44.1369 160.908 43.6328C160.469 43.1287 160.25 42.5052 160.25 41.759C160.25 40.7641 160.611 39.93 161.336 39.3016C162.061 38.6731 163.014 38.3614 164.195 38.3614C164.763 38.3651 165.33 38.4296 165.885 38.5537C166.475 38.6814 167.032 38.8621 167.556 39.0926V40.0245C166.312 39.5868 165.211 39.3662 164.25 39.3662C163.311 39.3662 162.591 39.5702 162.094 39.9798C161.596 40.3893 161.344 40.9697 161.344 41.7242C161.344 42.1504 161.421 42.4953 161.573 42.7556C161.726 43.0159 161.975 43.2531 162.323 43.4686C162.671 43.6842 163.165 43.9114 163.812 44.1535L165.768 44.903C166.647 45.2429 167.284 45.6608 167.687 46.1533C168.09 46.6458 168.289 47.2643 168.289 48.0071C168.305 48.5078 168.205 49.0054 167.998 49.4615C167.79 49.9175 167.481 50.3197 167.093 50.6371C166.297 51.307 165.244 51.6419 163.943 51.6419C162.591 51.6419 161.386 51.3866 160.328 50.8758V49.9439C161.605 50.4082 162.782 50.6404 163.853 50.6404C164.848 50.6404 165.671 50.4033 166.274 49.9273C166.878 49.4514 167.178 48.8064 167.178 47.9906C167.187 47.5161 167.01 47.0568 166.684 46.7121C166.355 46.3589 165.825 46.0422 165.095 45.7619L162.976 44.9395" fill="black" fill-opacity="0.37"/>
<mask id="mask0_1622_3329" style="mask-type:luminance" maskUnits="userSpaceOnUse" x="32" y="35" width="14" height="18">
<path d="M32.4336 35.7085H34.8677V42.8878L41.8768 35.7085H45.0901L37.3993 43.6184L45.5764 52.7457H42.4615L34.8678 44.2272V52.7457H32.4337L32.4336 35.7085Z" fill="white"/>
</mask>
<g mask="url(#mask0_1622_3329)">
<path d="M32.4336 35.7085H34.8677V42.8878L41.8768 35.7085H45.0901L37.3993 43.6184L45.5764 52.7457H42.4615L34.8678 44.2272V52.7457H32.4337V35.7084" fill="black" fill-opacity="0.37"/>
</g>
<mask id="mask1_1622_3329" style="mask-type:luminance" maskUnits="userSpaceOnUse" x="39" y="15" width="26" height="43">
<path d="M40.0609 28.9471L52.0485 35.868C52.1489 35.9261 52.2322 36.0096 52.2902 36.1101C52.3482 36.2106 52.3787 36.3245 52.3788 36.4405V50.2827C52.3788 50.5187 52.5057 50.7371 52.7099 50.8552L63.4075 57.0318C63.8484 57.2866 64.3993 56.9673 64.3993 56.4593V29.5C64.3993 29.264 64.2734 29.0459 64.0697 28.9275L40.7232 15.4482C40.2822 15.1938 39.7305 15.5127 39.7305 16.0216V28.3746C39.7305 28.6111 39.8567 28.8287 40.0616 28.9471H40.0609Z" fill="white"/>
</mask>
<g mask="url(#mask1_1622_3329)">
<path d="M40.0609 28.9471L52.0485 35.868C52.1489 35.9261 52.2322 36.0096 52.2902 36.1101C52.3482 36.2106 52.3787 36.3245 52.3788 36.4405V50.2827C52.3788 50.5187 52.5057 50.7371 52.7099 50.8552L63.4075 57.0318C63.8484 57.2866 64.3993 56.9673 64.3993 56.4593V29.5C64.3993 29.264 64.2734 29.0459 64.0697 28.9275L40.7232 15.4482C40.2822 15.1938 39.7305 15.5127 39.7305 16.0216V28.3746C39.7305 28.6111 39.8567 28.8287 40.0616 28.9471" fill="black" fill-opacity="0.37"/>
</g>
<mask id="mask2_1622_3329" style="mask-type:luminance" maskUnits="userSpaceOnUse" x="11" y="15" width="52" height="60">
<path d="M50.3741 53.7522L38.3866 60.6731C38.1823 60.7915 37.9297 60.7915 37.7253 60.6731L24.0651 52.7864C23.9645 52.7281 23.881 52.6445 23.8229 52.5439C23.7648 52.4433 23.7341 52.3292 23.7339 52.213V36.4392C23.7342 36.3231 23.7649 36.2091 23.823 36.1086C23.8811 36.0082 23.9646 35.9247 24.0651 35.8666L36.0528 28.9461C36.1533 28.8882 36.2368 28.8048 36.2949 28.7043C36.353 28.6039 36.3836 28.4899 36.3837 28.3739V16.0208C36.3837 15.5119 35.8322 15.1937 35.3913 15.4474L12.0445 28.9275C11.8401 29.0459 11.7148 29.2639 11.7148 29.4999V59.1539C11.7148 59.3904 11.8408 59.608 12.0445 59.7272L37.7253 74.5533C37.9296 74.6717 38.1822 74.6717 38.3866 74.5533L61.7332 61.0744C62.1741 60.8197 62.1741 60.1834 61.7332 59.9289L51.0356 53.7522C50.8304 53.6338 50.5785 53.6338 50.3741 53.7522Z" fill="white"/>
</mask>
<g mask="url(#mask2_1622_3329)">
<path d="M50.3741 53.7522L38.3866 60.6731C38.1823 60.7915 37.9297 60.7915 37.7253 60.6731L24.0651 52.7864C23.9645 52.7281 23.881 52.6445 23.8229 52.5439C23.7648 52.4433 23.7341 52.3292 23.7339 52.213V36.4392C23.7342 36.3231 23.7649 36.2091 23.823 36.1086C23.8811 36.0082 23.9646 35.9247 24.0651 35.8666L36.0528 28.9461C36.1533 28.8882 36.2368 28.8048 36.2949 28.7043C36.353 28.6039 36.3836 28.4899 36.3837 28.3739V16.0208C36.3837 15.5119 35.8322 15.1937 35.3913 15.4474L12.0445 28.9275C11.8401 29.0459 11.7148 29.2639 11.7148 29.4999V59.1539C11.7148 59.3904 11.8408 59.608 12.0445 59.7272L37.7253 74.5533C37.9296 74.6717 38.1822 74.6717 38.3866 74.5533L61.7332 61.0744C62.1741 60.8197 62.1741 60.1834 61.7332 59.9289L51.0356 53.7522C50.8304 53.6338 50.5785 53.6338 50.3741 53.7522Z" fill="black" fill-opacity="0.37"/>
</g>
</g>
<defs>
<filter id="filter0_i_1622_3329" x="0" y="0" width="180" height="94" filterUnits="userSpaceOnUse" color-interpolation-filters="sRGB">
<feFlood flood-opacity="0" result="BackgroundImageFix"/>
<feBlend mode="normal" in="SourceGraphic" in2="BackgroundImageFix" result="shape"/>
<feColorMatrix in="SourceAlpha" type="matrix" values="0 0 0 0 0 0 0 0 0 0 0 0 0 0 0 0 0 0 127 0" result="hardAlpha"/>
<feOffset dy="4"/>
<feGaussianBlur stdDeviation="2"/>
<feComposite in2="hardAlpha" operator="arithmetic" k2="-1" k3="1"/>
<feColorMatrix type="matrix" values="0 0 0 0 0 0 0 0 0 0 0 0 0 0 0 0 0 0 0.25 0"/>
<feBlend mode="normal" in2="shape" result="effect1_innerShadow_1622_3329"/>
</filter>
</defs>
</svg>
