<svg width="54" height="47" viewBox="0 0 54 47" fill="none" xmlns="http://www.w3.org/2000/svg">
<g clip-path="url(#clip0_3681_517)">
<path d="M27.0163 47.0086L36.9523 18.1413H17.0801L27.0163 47.0086Z" fill="#E24329"/>
<path d="M27.0153 47.0084L17.0791 18.1411H3.1543L27.0153 47.0084Z" fill="#FC6D26"/>
<path d="M3.15522 18.1411L0.135857 26.9138C0.0016073 27.3038 0.00158878 27.7239 0.135804 28.1139C0.27002 28.5039 0.53158 28.8438 0.882998 29.0849L27.0163 47.0086L3.15501 18.1413L3.15522 18.1411Z" fill="#FCA326"/>
<path d="M3.1543 18.1413H17.0791L11.095 0.754699C10.7871 -0.139972 9.44635 -0.139773 9.13859 0.754699L3.1543 18.1413Z" fill="#E24329"/>
<path d="M27.0158 47.0084L36.9518 18.1411H50.8769L27.0158 47.0084Z" fill="#FC6D26"/>
<path d="M50.8767 18.1411L53.896 26.9138C54.0303 27.3038 54.0302 27.724 53.896 28.114C53.7617 28.504 53.5001 28.8439 53.1487 29.0849L27.0156 47.0086L50.8767 18.1413V18.1411Z" fill="#FCA326"/>
<path d="M50.8762 18.1413H36.9512L42.9355 0.754699C43.2434 -0.139972 44.5842 -0.139773 44.8919 0.754699L50.8762 18.1413Z" fill="#E24329"/>
</g>
<defs>
<clipPath id="clip0_3681_517">
<rect width="54" height="47" fill="white"/>
</clipPath>
</defs>
</svg>
