<svg width="129" height="34" viewBox="0 0 129 34" fill="none" xmlns="http://www.w3.org/2000/svg">
<path fill-rule="evenodd" clip-rule="evenodd" d="M110.831 29.3989C110.831 29.3989 111.222 18.9192 110.831 17.7121C110.441 16.505 109.075 14.42 105.367 14.2554C101.66 14.0908 99.5132 14.9138 97.9521 16.2307L99.3181 17.8767C102.611 16.3812 108.412 15.8999 107.904 20.1811C107.83 20.1811 107.755 20.1811 107.679 20.1811C103.68 20.1794 97.5618 20.1768 97.5618 24.79C97.5618 29.2343 102.245 29.7281 103.221 29.7281C105.758 29.7281 107.904 28.7405 107.904 27.9175C108.06 27.7858 108.229 27.8626 108.294 27.9175L108.49 29.3989H110.831ZM107.904 22.6502V25.613C106.733 27.2591 100.684 28.0821 100.879 24.6254C101.028 21.9896 106.538 21.9918 107.904 22.6502Z" fill="black" fill-opacity="0.37"/>
<path d="M83.7069 10.1403H86.8292V26.9299H96.1959V29.3989H83.7069V10.1403Z" fill="black" fill-opacity="0.37"/>
<path d="M71.9986 10.1403H75.1208V14.7492H80.1944V16.8891H75.1208V24.9546C75.0558 25.613 75.433 26.9957 77.4625 27.2591H80.1944V29.7281H77.4625C75.6412 29.783 71.9986 28.9051 71.9986 24.9546V10.1403Z" fill="black" fill-opacity="0.37"/>
<path d="M64.5833 14.7492H67.7055V29.3989H64.5833V14.7492Z" fill="black" fill-opacity="0.37"/>
<path d="M64.5833 12.6094H67.7055V10.1403H64.5833V12.6094Z" fill="black" fill-opacity="0.37"/>
<path d="M51.7041 18.6997H60.0951V28.4113C59.5747 28.9051 57.5192 29.8927 53.4603 29.8927C39.1067 29.8927 39.1465 9.32466 53.2652 9.64653C55.4117 9.64653 59.1194 10.4695 60.4854 11.6218L59.1194 13.597C58.0786 13.1032 55.4942 12.3488 53.4603 12.2802C43.7034 11.951 43.5667 27.2591 53.4603 27.2591C54.7092 27.2591 56.3224 26.9299 56.9729 26.7653V21.1687H51.7041V18.6997Z" fill="black" fill-opacity="0.37"/>
<path fill-rule="evenodd" clip-rule="evenodd" d="M114.929 10.1403V28.7405C116.36 29.344 119.978 30.0505 123.71 29.2343C128.979 28.0821 132.101 17.7121 124.296 14.5846C122.93 14.0373 120.198 13.9262 117.661 15.7368V10.1403H114.929ZM117.661 26.7653V18.0413C118.442 17.5475 125.076 14.2554 125.467 21.6626C125.779 27.5883 120.393 27.5334 117.661 26.7653Z" fill="black" fill-opacity="0.37"/>
<path d="M2.03906 12.9573H11.0718L7.05723 0.396319C6.59842 -0.321453 6.19697 0.0972473 6.0536 0.396319L2.03906 12.9573Z" fill="black" fill-opacity="0.37"/>
<path d="M32.9238 12.9573H24.1825L28.0675 0.396319C28.5115 -0.321453 28.9 0.0972473 29.0388 0.396319L32.9238 12.9573Z" fill="black" fill-opacity="0.37"/>
<path d="M0.130308 18.9841L2.03964 12.9575L17.6283 33.7494C17.3951 33.7275 17.264 33.6959 17.0302 33.5988C16.7964 33.5016 0.421685 20.9428 0.421685 20.9428C-0.161069 20.4606 -0.0153808 19.4361 0.130308 18.9841Z" fill="black" fill-opacity="0.37"/>
<path d="M34.9654 18.9841L32.9258 12.9575L17.6131 33.7494C17.8463 33.7275 17.9774 33.6959 18.2112 33.5988C18.445 33.5016 34.674 20.9428 34.674 20.9428C35.2568 20.4606 35.1111 19.4361 34.9654 18.9841Z" fill="black" fill-opacity="0.37"/>
<path d="M17.6278 33.7494L2.03906 12.9575H11.2175L17.6278 33.7494Z" fill="black" fill-opacity="0.37"/>
<path d="M17.6265 33.7494L32.9238 12.9575H24.0514L17.6265 33.7494Z" fill="black" fill-opacity="0.37"/>
<path d="M17.6263 33.7494L11.0703 12.9575H17.6263V33.7494Z" fill="black" fill-opacity="0.37"/>
<path d="M17.6276 33.7494L24.1836 12.9575H17.6276V33.7494Z" fill="black" fill-opacity="0.37"/>
</svg>
