<svg width="132" height="51" viewBox="0 0 132 51" fill="none" xmlns="http://www.w3.org/2000/svg">
<path d="M73.0098 15.6841H78.0474L70.3835 42.3968H63.221L55.581 15.6841H60.6186L66.8023 37.9405L73.0098 15.6841ZM92.0143 42.3968H88.1943L87.8361 41.0773C86.1888 42.1976 84.231 42.7951 82.2733 42.7951C78.8591 42.7951 77.3789 40.3554 77.3789 36.9696C77.3789 32.9863 79.0263 31.4677 82.8463 31.4677H87.3586V29.4014C87.3586 27.2355 86.7856 26.4638 83.7774 26.4638C82.0345 26.4886 80.2916 26.6878 78.5965 27.0612L78.0235 23.3269C80.1245 22.7295 82.2732 22.4058 84.4459 22.4058C90.3191 22.4058 92.0859 24.5717 92.0859 29.4761L92.0143 42.3968ZM87.3347 35.0277H83.8729C82.3449 35.0277 81.9151 35.4759 81.9151 36.9696C81.9151 38.289 82.3449 38.9612 83.8251 38.9612C85.0666 38.9363 86.2843 38.5878 87.3586 37.9654L87.3347 35.0277ZM99.3916 22.8539V36.4717C99.3916 37.5173 99.8214 38.0401 100.896 38.0401C101.97 38.0401 104.071 37.3181 105.766 36.397V22.8539H110.446V42.3968H106.865L106.411 40.7537C104.071 41.9735 101.517 42.6706 98.9141 42.7951C95.8104 42.7951 94.6883 40.5047 94.6883 37.0194V22.8539H99.3916ZM112.977 42.3968V14.8874L117.656 14.2152V42.3968H112.977ZM131.647 42.0233C130.334 42.4964 128.925 42.7702 127.54 42.7951C124.126 42.7951 122.383 41.1022 122.383 37.6169V26.7376H119.59V22.8539H122.383V17.9993L127.063 17.3272V22.8539H131.886L131.575 26.7376H127.063V36.9447C126.967 37.6915 127.397 38.3886 128.089 38.6127C128.304 38.6874 128.543 38.7123 128.758 38.6625C129.546 38.6376 130.334 38.4882 131.098 38.2641L131.647 42.0233ZM0 8.33994L20.246 50.7118L40.6352 8.33994H0ZM22.6574 16.8293H25.021V19.2939H22.6574V16.8293ZM17.954 26.6629H15.6143V24.2232H17.954V26.6629ZM17.954 22.9784H15.6143V20.5387H17.954V22.9784ZM17.954 19.2939H15.6143V16.8293H17.954V19.2939ZM21.5114 30.3474H19.1716V27.8828H21.5114V30.3474ZM21.5114 26.6629H19.1716V24.2232H21.5114V26.6629ZM21.5114 22.9784H19.1716V20.5387H21.5114V22.9784ZM21.5114 19.2939H19.1716V16.8293H21.5114V19.2939ZM22.6574 20.5387H25.021V22.9784H22.6574V20.5387ZM22.6574 26.6629V24.2232H25.021V26.6629H22.6574ZM60.5709 9.13659V5.40229H57.2761V9.13659H55.6049V0.124477H57.2761V3.90857H60.5709V0.124477H62.2421V9.13659H60.5709ZM68.4019 9.13659H67.0649L66.9455 8.68848C66.3725 9.06191 65.704 9.26107 65.0355 9.26107C63.8418 9.26107 63.3404 8.46442 63.3404 7.31923C63.3404 5.99978 63.9134 5.50187 65.2504 5.50187H66.8023V4.8297C66.8023 4.10773 66.5874 3.85878 65.5608 3.85878C64.9639 3.85878 64.3431 3.93346 63.7701 4.05794L63.5791 2.81317C64.2954 2.61401 65.0594 2.51443 65.7995 2.51443C67.8289 2.51443 68.4496 3.23639 68.4496 4.85459L68.4019 9.13659ZM66.7784 6.67195H65.5846C65.0594 6.67195 64.8923 6.82132 64.8923 7.34413C64.8923 7.86693 65.0355 8.0163 65.5369 8.0163C65.9666 8.0163 66.3964 7.89183 66.7545 7.69266L66.7784 6.67195ZM71.7921 9.26107C71.0281 9.26107 70.288 9.1117 69.5479 8.88764L69.7627 7.64287C70.3835 7.81714 71.0281 7.91672 71.6728 7.91672C72.389 7.91672 72.5084 7.76735 72.5084 7.24455C72.5084 6.74664 72.4368 6.64706 71.3863 6.39811C69.8105 5.99978 69.6195 5.60145 69.6195 4.35668C69.6195 3.11192 70.1925 2.46464 72.0547 2.46464C72.6994 2.46464 73.3679 2.53933 74.0125 2.6887L73.8454 4.00815C73.2485 3.90857 72.6516 3.83388 72.0547 3.83388C71.3385 3.83388 71.2191 3.98326 71.2191 4.40648C71.2191 4.92928 71.2669 4.95418 72.1264 5.20313C73.9409 5.67614 74.108 5.92509 74.108 7.24455C74.1319 8.58889 73.7499 9.26107 71.7921 9.26107ZM79.2411 9.13659V4.63054C79.2411 4.282 79.0979 4.10773 78.7159 4.10773C78.119 4.18242 77.546 4.35669 77.0208 4.65543V9.16149H75.3972V0L77.0208 0.248953V3.13681C77.7609 2.76338 78.5726 2.53933 79.4083 2.51443C80.4826 2.51443 80.8646 3.28619 80.8646 4.43137V9.13659H79.2411ZM82.2255 1.71778V0.149374H83.849V1.74267L82.2255 1.71778ZM82.2255 9.13659V2.63891H83.849V9.13659H82.2255ZM85.1621 2.6887C85.1621 1.0705 86.1171 0.124477 88.3375 0.124477C89.1493 0.124477 89.961 0.224061 90.7489 0.423224L90.5579 1.86715C89.8416 1.74267 89.1254 1.66799 88.3852 1.64309C87.2154 1.64309 86.8573 2.04142 86.8573 2.96255V6.37321C86.8573 7.31923 87.2154 7.69266 88.3852 7.69266C89.1254 7.66777 89.8416 7.59308 90.5579 7.4686L90.7489 8.91253C89.961 9.1117 89.1493 9.21128 88.3375 9.21128C86.141 9.21128 85.1621 8.26526 85.1621 6.64706V2.6887ZM94.3062 9.26107C92.0859 9.26107 91.4651 8.0412 91.4651 6.69685V5.05376C91.4651 3.7343 92.1097 2.48953 94.3062 2.48953C96.5027 2.48953 97.1474 3.70941 97.1474 5.05376V6.69685C97.1712 8.0412 96.5266 9.26107 94.3062 9.26107ZM94.3062 3.88367C93.4467 3.88367 93.1125 4.282 93.1125 5.00397V6.74664C93.1125 7.4935 93.4467 7.86693 94.3062 7.86693C95.1657 7.86693 95.5 7.4686 95.5 6.74664V5.00397C95.5239 4.282 95.1896 3.88367 94.3062 3.88367ZM101.707 3.98325C101.111 4.2571 100.538 4.58074 99.9885 4.92928V9.1117H98.365V2.61401H99.7498L99.8453 3.33598C100.37 2.98744 100.944 2.6887 101.564 2.48953L101.707 3.98325ZM108.201 6.9707C108.201 8.41463 107.557 9.26107 106.053 9.26107C105.48 9.26107 104.883 9.18638 104.31 9.0868V11.7257L102.686 11.9747V2.63891H103.952L104.119 3.1866C104.716 2.73849 105.432 2.51443 106.172 2.51443C107.438 2.51443 108.178 3.28619 108.178 4.77991L108.201 6.9707ZM104.334 7.69266C104.811 7.79224 105.289 7.86693 105.766 7.86693C106.363 7.86693 106.578 7.59308 106.578 6.99559V4.70522C106.578 4.18242 106.387 3.88367 105.79 3.88367C105.265 3.90857 104.74 4.10773 104.334 4.48116V7.69266Z" fill="black" fill-opacity="0.37"/>
</svg>
