<svg width="66" height="67" viewBox="0 0 66 67" fill="none" xmlns="http://www.w3.org/2000/svg">
<g filter="url(#filter0_i_3646_537)">
<path fill-rule="evenodd" clip-rule="evenodd" d="M22.168 62.8125C20.7861 62.8125 19.4455 62.1718 18.5628 61.0077L5.14001 43.5374C4.6983 42.9665 4.38946 42.3016 4.2366 41.5924C4.08373 40.8832 4.09079 40.1481 4.25726 39.4421L9.06288 17.6377C9.36813 16.1931 10.2921 15.0289 11.5585 14.3883L31.0079 4.67325C31.6266 4.34663 32.3155 4.1875 33.0085 4.1875C33.7015 4.1875 34.3904 4.34663 35.0091 4.66906L54.4503 14.3464C55.7208 14.9871 56.6448 16.1554 56.95 17.6001L61.7556 39.4044C62.0609 40.8491 61.7556 42.3356 60.8729 43.4997L47.4378 60.9951C46.555 62.1174 45.2103 62.8125 43.8284 62.8125H22.168ZM54.0048 38.3784L54.1326 38.4119C54.3067 38.4356 54.474 38.4957 54.624 38.5883C54.7741 38.6809 54.9036 38.8041 55.0043 38.9501C55.1051 39.096 55.175 39.2616 55.2096 39.4364C55.2441 39.6112 55.2426 39.7913 55.2051 39.9655C55.1664 40.1405 55.0919 40.3054 54.9864 40.4493C54.881 40.5933 54.7469 40.7131 54.5929 40.8012C54.439 40.8892 54.2685 40.9434 54.0926 40.9603C53.9166 40.9772 53.7392 40.9564 53.5716 40.8993H53.5551L53.5428 40.8951L53.5304 40.8909L53.4066 40.8616L53.2004 40.8198C52.8155 40.694 52.4382 40.5458 52.0701 40.3759C51.3598 40.0865 50.6235 39.8677 49.8715 39.7226C49.6115 39.7139 49.3584 39.8086 49.1661 39.9864C48.9865 39.9518 48.8063 39.9197 48.6258 39.8901C47.4024 43.7797 44.8125 47.0766 41.3493 49.1529C41.4111 49.3287 41.4813 49.5004 41.5596 49.6679C41.4316 49.8968 41.3975 50.1675 41.4648 50.4217C41.77 51.1336 42.1454 51.8119 42.5826 52.4484C42.8301 52.7751 43.0529 53.1184 43.2591 53.4702L43.3746 53.7089L43.4241 53.8136C43.5618 54.0452 43.6238 54.3152 43.601 54.5848C43.5783 54.8544 43.4721 55.1098 43.2976 55.3143C43.1231 55.5189 42.8893 55.6621 42.6297 55.7235C42.3701 55.7849 42.0981 55.7613 41.8525 55.6561C41.6889 55.5877 41.5413 55.4853 41.4191 55.3555C41.2969 55.2257 41.2029 55.0713 41.143 54.9023C41.1294 54.8743 41.1156 54.8464 41.1018 54.8186L40.9863 54.5757C40.8417 54.1924 40.7192 53.8009 40.6191 53.4032C40.3999 52.6616 40.1098 51.9435 39.7529 51.2592C39.5978 51.0463 39.3668 50.9036 39.1094 50.8614C39.0678 50.7876 39.0265 50.7136 38.9856 50.6394L38.8413 50.3714C35.086 51.8114 30.9405 51.8009 27.1923 50.3421L26.9076 50.8656C26.7037 50.8974 26.514 50.9908 26.3631 51.1336C25.9341 51.8454 25.6041 52.6201 25.3855 53.4283C25.287 53.826 25.1658 54.2175 25.0225 54.6008L24.9194 54.8102L24.8658 54.9233C24.8053 55.091 24.7111 55.2483 24.5892 55.377C24.4672 55.5057 24.3202 55.6072 24.1574 55.675C23.9947 55.7429 23.8198 55.7755 23.6439 55.7709C23.468 55.7664 23.295 55.7246 23.1359 55.6484C22.9768 55.5722 22.8351 55.4631 22.7198 55.3282C22.6046 55.1933 22.5182 55.0355 22.4664 54.8648C22.4145 54.6942 22.3982 54.5144 22.4186 54.337C22.439 54.1596 22.4955 53.9885 22.5846 53.8345L22.6424 53.7089L22.7496 53.4911C22.9559 53.1352 23.1786 52.796 23.4261 52.4694C23.8716 51.8161 24.2511 51.121 24.5688 50.3924C24.6016 50.1446 24.5615 49.8925 24.4533 49.6679L24.6843 49.111C21.2336 47.051 18.6452 43.7799 17.4078 39.9152L16.855 40.0116C16.6416 39.858 16.3901 39.7681 16.129 39.7519C15.3771 39.8971 14.6408 40.1158 13.9304 40.4052C13.5591 40.5727 13.1838 40.7192 12.8001 40.8449L12.5939 40.8909L12.4701 40.9203H12.4578L12.4495 40.9286H12.4289C12.2197 40.9967 11.9968 41.0086 11.7817 40.9632C11.5667 40.9177 11.3669 40.8164 11.202 40.6692C11.037 40.522 10.9124 40.3338 10.8405 40.1232C10.7685 39.9125 10.7515 39.6865 10.7913 39.4672C10.8419 39.2031 10.9731 38.9619 11.1664 38.7777C11.3596 38.5936 11.605 38.4759 11.8679 38.4413L11.8844 38.4371H11.8968L11.9215 38.4287C12.0205 38.4036 12.1443 38.3701 12.235 38.3533C12.6351 38.2989 13.0394 38.2654 13.4436 38.257C14.2109 38.2026 14.9699 38.0769 15.7083 37.8801C15.9271 37.7378 16.1117 37.5475 16.2486 37.3232L16.7766 37.1683C16.2029 33.136 17.1198 29.0309 19.3506 25.6443L18.9505 25.2799C18.9351 25.0148 18.8464 24.7594 18.6948 24.5429C18.1134 24.0368 17.4848 23.5894 16.8179 23.2071C16.4572 23.0211 16.1074 22.8142 15.7701 22.5874C15.6811 22.5207 15.5944 22.4509 15.5103 22.378L15.4938 22.3613C15.2063 22.1534 15.0118 21.8382 14.9531 21.4849C14.8943 21.1316 14.976 20.7691 15.1803 20.4769C15.3016 20.3273 15.456 20.2088 15.6308 20.1309C15.8057 20.0531 15.9961 20.0181 16.1868 20.0288C16.5073 20.0426 16.8152 20.16 17.0654 20.3638L17.1561 20.435C17.2221 20.4894 17.2964 20.5439 17.3459 20.5899C17.6388 20.8705 17.9193 21.172 18.1791 21.4819C18.6948 22.0556 19.264 22.579 19.8786 23.0396C20.1096 23.1652 20.3778 23.1904 20.6294 23.115L21.0831 23.4416C23.8452 20.4678 27.5967 18.6412 31.6101 18.3161L31.639 17.7759C31.8355 17.6012 31.9786 17.3731 32.0515 17.1185C32.0794 16.3424 32.0324 15.5654 31.9113 14.7986C31.8307 14.3975 31.7728 13.9921 31.738 13.5842V13.3623V13.2576V13.2409V13.2241C31.7194 13.0449 31.7383 12.8638 31.7934 12.6925C31.8485 12.5212 31.9385 12.3637 32.0576 12.2301C32.1767 12.0966 32.3222 11.99 32.4847 11.9174C32.6471 11.8448 32.8228 11.8078 33.0003 11.8087C33.177 11.8091 33.3517 11.8469 33.5132 11.9197C33.6747 11.9925 33.8195 12.0987 33.9383 12.2315C34.057 12.3643 34.1472 12.5208 34.2031 12.691C34.2589 12.8612 34.2791 13.0413 34.2625 13.2199V13.5842C34.2293 13.992 34.1728 14.3975 34.0934 14.7986C33.9713 15.5639 33.9229 16.3395 33.949 17.1143C33.9987 17.3744 34.1468 17.6044 34.3615 17.755V17.7843L34.3904 18.3287C38.3793 18.693 42.1041 20.5146 44.8679 23.45L45.3464 23.1024C45.6048 23.1479 45.8706 23.1189 46.1136 23.0187C46.7283 22.5581 47.2975 22.0346 47.8131 21.4568C48.0736 21.1433 48.3519 20.8455 48.6464 20.5648L48.8568 20.3973L48.9269 20.3387C49.1518 20.1237 49.4463 19.9992 49.7551 19.9887C50.0639 19.9781 50.3659 20.0822 50.6046 20.2813C50.8433 20.4805 51.0024 20.7612 51.0519 21.0708C51.1015 21.3804 51.0382 21.6978 50.8739 21.9634C50.7774 22.114 50.651 22.2424 50.5026 22.3403C50.4696 22.3613 50.4325 22.3906 50.3995 22.4241L50.2221 22.5623C49.8849 22.7891 49.5351 22.996 49.1744 23.182C48.5074 23.5658 47.8788 24.0146 47.2975 24.522C47.1279 24.721 47.042 24.9796 47.0583 25.2422C46.99 25.3042 46.9212 25.3656 46.852 25.4265L46.6128 25.6484C48.8485 29.0236 49.7849 33.1147 49.2404 37.1431L49.7478 37.2939C49.8756 37.5284 50.0654 37.7168 50.2923 37.8466C51.0348 38.0476 51.7938 38.1733 52.561 38.2235C52.9611 38.2361 53.3654 38.2654 53.7655 38.324L54.0048 38.3784ZM42.1454 25.3972L36.7499 29.2706L36.7334 29.2622C36.571 29.3838 36.3791 29.4584 36.1783 29.4779C35.9774 29.4974 35.7751 29.4611 35.5929 29.373C35.4108 29.2848 35.2557 29.1481 35.1441 28.9774C35.0326 28.8067 34.9688 28.6084 34.9596 28.4038L34.5843 21.708C37.4347 22.0664 40.0908 23.3596 42.1454 25.3972ZM31.9855 32.7379H34.015L35.2773 34.3333L34.8235 36.3266L33.0003 37.2101L31.1729 36.3182L30.7191 34.3291L31.9855 32.7379ZM30.0715 21.9425C30.5129 21.842 30.9625 21.7624 31.4163 21.708L31.045 28.408L31.012 28.4248C31.006 28.5771 30.9694 28.7266 30.9045 28.8641C30.8397 29.0016 30.7479 29.1243 30.6348 29.2246C30.5217 29.3249 30.3896 29.4008 30.2467 29.4476C30.1037 29.4944 29.9529 29.5111 29.8034 29.4968C29.6025 29.4794 29.41 29.407 29.2465 29.2874L29.2383 29.2916L23.8098 25.3972C25.5381 23.6803 27.7079 22.4827 30.0715 21.9425ZM21.8463 27.9013L26.8004 32.3861L26.7963 32.4154C26.9473 32.5494 27.0597 32.7225 27.1216 32.9162C27.1834 33.1099 27.1924 33.317 27.1476 33.5155C27.1027 33.714 27.0057 33.8964 26.8668 34.0433C26.728 34.1903 26.5525 34.2963 26.359 34.3501L26.3549 34.371L20.0024 36.2261C19.6864 33.3201 20.3354 30.3903 21.8463 27.9013ZM28.4793 39.8189L25.9548 45.9913C23.5359 44.4233 21.6944 42.0888 20.716 39.3499L27.2253 38.2319L27.2376 38.2444C27.4915 38.1945 27.7546 38.2375 27.9801 38.3659C28.2198 38.5017 28.4015 38.7226 28.4906 38.9861C28.5797 39.2496 28.5698 39.5373 28.4628 39.7938L28.4793 39.8189ZM35.929 47.7584C33.5695 48.3028 31.1028 48.1772 28.8093 47.3899L32.0144 41.5274C32.1095 41.348 32.2548 41.1979 32.427 41.0932C32.5993 40.9885 32.7962 40.9329 32.997 40.9325C33.1977 40.9321 33.3949 40.9868 33.5676 41.0907C33.7402 41.1947 33.882 41.3442 33.9779 41.5233H34.0026L37.216 47.3941C36.7932 47.537 36.3636 47.6585 35.929 47.7584ZM40.0705 46.0164L37.5213 39.7812L37.5254 39.7687C37.4468 39.5815 37.4197 39.3761 37.4469 39.1745C37.4741 38.9729 37.5546 38.7825 37.6798 38.6236C37.805 38.4647 37.9703 38.3432 38.1581 38.272C38.3459 38.2008 38.5492 38.1826 38.7464 38.2193L38.7588 38.2026L45.3299 39.329C44.3584 42.09 42.5076 44.4433 40.0705 46.0164ZM46.0188 36.2051L39.6415 34.3417L39.6333 34.3166C39.4885 34.2759 39.3534 34.206 39.236 34.1109C39.1186 34.0159 39.0213 33.8978 38.95 33.7636C38.8787 33.6294 38.8349 33.482 38.8212 33.3302C38.8074 33.1784 38.8241 33.0254 38.8701 32.8803C38.9332 32.6855 39.0473 32.5118 39.2001 32.3777L39.1878 32.3694L44.1171 27.9013C45.6269 30.3887 46.291 33.3032 46.0146 36.2051H46.0188Z" fill="black" fill-opacity="0.25"/>
</g>
<defs>
<filter id="filter0_i_3646_537" x="0" y="0" width="66" height="71" filterUnits="userSpaceOnUse" color-interpolation-filters="sRGB">
<feFlood flood-opacity="0" result="BackgroundImageFix"/>
<feBlend mode="normal" in="SourceGraphic" in2="BackgroundImageFix" result="shape"/>
<feColorMatrix in="SourceAlpha" type="matrix" values="0 0 0 0 0 0 0 0 0 0 0 0 0 0 0 0 0 0 127 0" result="hardAlpha"/>
<feOffset dy="4"/>
<feGaussianBlur stdDeviation="2"/>
<feComposite in2="hardAlpha" operator="arithmetic" k2="-1" k3="1"/>
<feColorMatrix type="matrix" values="0 0 0 0 0 0 0 0 0 0 0 0 0 0 0 0 0 0 0.25 0"/>
<feBlend mode="normal" in2="shape" result="effect1_innerShadow_3646_537"/>
</filter>
</defs>
</svg>
