<svg width="60" height="60" viewBox="0 0 60 60" fill="none" xmlns="http://www.w3.org/2000/svg">
<path d="M29.7977 1.70178C29.282 1.72776 28.7767 1.85562 28.3114 2.07788L8.02961 11.7687C7.50468 12.0194 7.04345 12.3842 6.68018 12.836C6.3169 13.2878 6.06092 13.8149 5.93124 14.3783L0.927514 36.1464C0.811974 36.6479 0.799047 37.1673 0.889496 37.6739C0.979945 38.1805 1.17193 38.6639 1.4541 39.0956C1.52251 39.2012 1.59608 39.3033 1.67456 39.4018L15.7128 56.8561C16.0762 57.3077 16.5375 57.6724 17.0624 57.923C17.5874 58.1736 18.1625 58.3036 18.7451 58.3035L41.2577 58.2984C41.84 58.2988 42.415 58.1692 42.94 57.919C43.4649 57.6689 43.9263 57.3048 44.2899 56.8536L58.3231 39.3965C58.6866 38.9446 58.9428 38.4173 59.0726 37.8537C59.2023 37.2901 59.2023 36.7047 59.0726 36.1411L54.0613 14.373C53.9316 13.8097 53.6756 13.2826 53.3123 12.8308C52.949 12.3791 52.4878 12.0143 51.9629 11.7636L31.6784 2.07779C31.0931 1.79823 30.4465 1.66894 29.7977 1.70178Z" fill="#326CE5"/>
<path d="M29.9987 9.10938C29.3282 9.10946 28.7846 9.71332 28.7847 10.4582C28.7847 10.4697 28.787 10.4806 28.7872 10.4919C28.7863 10.5932 28.7814 10.7151 28.7847 10.8032C28.8007 11.2328 28.8943 11.5617 28.9507 11.9575C29.0528 12.8047 29.1383 13.507 29.0856 14.1597C29.0341 14.4059 28.8529 14.631 28.6913 14.7874L28.6628 15.3011C27.9243 15.3619 27.191 15.4745 26.4683 15.6382C23.3162 16.354 20.6023 17.9777 18.5361 20.1698C18.3887 20.068 18.2425 19.9642 18.0978 19.8586C17.881 19.8879 17.662 19.9548 17.3766 19.7885C16.8334 19.4229 16.3386 18.9181 15.7399 18.31C15.4655 18.0192 15.2669 17.7422 14.9409 17.4618C14.867 17.3981 14.754 17.312 14.6712 17.2465C14.4163 17.0433 14.1159 16.9373 13.8256 16.9275C13.4524 16.9147 13.0932 17.0606 12.8581 17.3554C12.4401 17.8796 12.5739 18.6809 13.1563 19.1452C13.1622 19.1499 13.1685 19.1536 13.1745 19.1582C13.2545 19.2231 13.3525 19.3062 13.4261 19.3605C13.772 19.6159 14.0879 19.7467 14.4325 19.9494C15.1586 20.3978 15.7605 20.7695 16.2379 21.2178C16.4243 21.4165 16.4569 21.7667 16.4818 21.9182L16.8708 22.2657C14.788 25.4003 13.8239 29.2722 14.3937 33.2172L13.8853 33.3651C13.7512 33.5381 13.5619 33.8104 13.3638 33.8917C12.7392 34.0884 12.0363 34.1606 11.1876 34.2496C10.7892 34.2828 10.4453 34.2629 10.0229 34.343C9.92991 34.3606 9.80042 34.3943 9.69866 34.4182L9.68828 34.4208C9.68272 34.4221 9.67542 34.4248 9.6701 34.426C8.9546 34.5989 8.495 35.2565 8.64292 35.9045C8.79091 36.5526 9.48982 36.9468 10.2096 36.7916C10.2149 36.7905 10.2224 36.7902 10.2278 36.789C10.236 36.7872 10.2431 36.7832 10.2511 36.7812C10.3516 36.7592 10.4772 36.7348 10.5651 36.7113C10.9803 36.6 11.2811 36.4367 11.6545 36.2936C12.4577 36.0056 13.123 35.7648 13.7711 35.6711C14.0417 35.6499 14.327 35.8381 14.4689 35.9175L14.998 35.8267C16.2157 39.602 18.7676 42.6534 21.999 44.5682L21.7785 45.0974C21.858 45.3028 21.9457 45.5808 21.8864 45.7838C21.6508 46.3947 21.2473 47.0397 20.7877 47.7587C20.5651 48.0909 20.3374 48.3487 20.1366 48.7289C20.0885 48.8198 20.0273 48.9596 19.9809 49.0556C19.6689 49.7233 19.8978 50.492 20.4971 50.7807C21.1003 51.0709 21.8488 50.7647 22.1728 50.0959C22.1733 50.0949 22.1749 50.0942 22.1753 50.0932C22.1757 50.0925 22.175 50.0914 22.1753 50.0907C22.2215 49.9958 22.2869 49.8712 22.3258 49.7819C22.4978 49.3879 22.5551 49.0502 22.676 48.6692C22.9973 47.8624 23.1736 47.0158 23.6158 46.4883C23.7369 46.3439 23.9343 46.2882 24.139 46.2335L24.4139 45.7354C27.2309 46.8167 30.3842 47.1069 33.5341 46.3918C34.2421 46.2308 34.938 46.021 35.617 45.764C35.6942 45.901 35.8379 46.1646 35.8764 46.2309C36.0844 46.2985 36.3114 46.3335 36.4964 46.607C36.8272 47.1723 37.0534 47.8409 37.329 48.6484C37.45 49.0295 37.5098 49.3672 37.6818 49.7612C37.721 49.851 37.7861 49.9774 37.8322 50.0725C38.1555 50.7436 38.9065 51.0508 39.5106 50.7599C40.1098 50.4712 40.3389 49.7024 40.0267 49.0349C39.9803 48.9388 39.9165 48.7991 39.8685 48.7081C39.6676 48.3279 39.4399 48.0727 39.2174 47.7406C38.7578 47.0216 38.3766 46.4243 38.1409 45.8132C38.0424 45.4981 38.1575 45.3021 38.2343 45.0974C38.1883 45.0447 38.0899 44.7471 38.032 44.6071C41.3901 42.6242 43.8671 39.459 45.0303 35.8034C45.1875 35.8281 45.4605 35.8764 45.5491 35.8942C45.7317 35.7738 45.8996 35.6166 46.2288 35.6426C46.8769 35.7363 47.5422 35.9771 48.3454 36.2651C48.7188 36.4081 49.0195 36.5741 49.4348 36.6853C49.5226 36.7088 49.6483 36.7307 49.7487 36.7528C49.7567 36.7547 49.7639 36.7587 49.772 36.7605C49.7775 36.7617 49.785 36.7619 49.7902 36.7631C50.51 36.918 51.2091 36.5241 51.3569 35.876C51.5047 35.228 51.0453 34.5702 50.3297 34.3975C50.2256 34.3738 50.078 34.3336 49.9769 34.3145C49.5545 34.2345 49.2107 34.2541 48.8123 34.2211C47.9636 34.1321 47.2606 34.0598 46.636 33.8631C46.3813 33.7643 46.2001 33.4613 46.112 33.3365L45.6217 33.1939C45.8759 31.3549 45.8074 29.4411 45.3676 27.5262C44.9236 25.5935 44.1391 23.8258 43.0927 22.2684C43.2184 22.154 43.456 21.9437 43.5233 21.8818C43.543 21.664 43.526 21.4357 43.7516 21.1944C44.2289 20.7462 44.8309 20.3744 45.5569 19.926C45.9016 19.7233 46.2201 19.5926 46.5659 19.3372C46.6441 19.2794 46.751 19.188 46.8331 19.1219C47.4154 18.6574 47.5495 17.8562 47.1314 17.3321C46.7134 16.808 45.9032 16.7586 45.3209 17.2231C45.238 17.2888 45.1255 17.3745 45.0511 17.4385C44.7252 17.7188 44.5239 17.9957 44.2496 18.2867C43.6509 18.8948 43.1561 19.4021 42.6128 19.7678C42.3774 19.9048 42.0326 19.8575 41.8761 19.8482L41.4145 20.1776C38.7815 17.4169 35.197 15.6518 31.3371 15.3089C31.3263 15.1471 31.3122 14.8547 31.3086 14.7667C31.1505 14.6155 30.9596 14.4865 30.9117 14.1597C30.8589 13.507 30.9471 12.8047 31.0492 11.9575C31.1055 11.5617 31.1992 11.2329 31.2152 10.8032C31.2188 10.7056 31.213 10.5638 31.2126 10.4582C31.2125 9.71332 30.6691 9.10938 29.9987 9.10938ZM28.4786 18.5253L28.118 24.8933L28.0921 24.9063C28.0679 25.476 27.5991 25.9309 27.0234 25.9309C26.7876 25.9309 26.57 25.8552 26.3931 25.726L26.3827 25.7312L21.1612 22.0296C22.7659 20.4517 24.8186 19.2855 27.1842 18.7484C27.6116 18.652 28.0436 18.5775 28.4786 18.5253ZM31.5212 18.5253C34.2832 18.865 36.8373 20.1156 38.7946 22.0323L33.6067 25.7104L33.5886 25.7027C33.1281 26.039 32.4794 25.9555 32.1204 25.5056C31.9786 25.329 31.8968 25.1118 31.887 24.8855L31.8818 24.883L31.5212 18.5253ZM19.2676 24.4083L24.0352 28.6727L24.03 28.6986C24.4604 29.0727 24.5239 29.7219 24.1649 30.172C24.0234 30.3497 23.829 30.4778 23.6098 30.5377L23.6046 30.5584L17.4933 32.3223C17.1823 29.4781 17.8527 26.7134 19.2676 24.4083ZM40.696 24.4108C41.4043 25.559 41.9407 26.8415 42.26 28.2317C42.5755 29.6053 42.6547 30.9764 42.5247 32.3015L36.3823 30.5325L36.377 30.5065C35.827 30.3563 35.489 29.7968 35.617 29.2356C35.6669 29.0148 35.7859 28.8158 35.9569 28.6675L35.9543 28.6545L40.696 24.4109V24.4108ZM29.0207 29.0021H30.974L32.1879 30.5196L31.7522 32.4131L29.9987 33.2561L28.24 32.4105L27.8042 30.5169L29.0207 29.0021ZM35.2824 34.1951C35.3655 34.191 35.448 34.1985 35.5289 34.2133L35.5393 34.2003L41.8606 35.269C40.9354 37.8682 39.1652 40.1198 36.7999 41.6267L34.3461 35.6996L34.3538 35.6892C34.1284 35.1655 34.354 34.5512 34.8726 34.3015C35.0054 34.2375 35.1441 34.2021 35.2824 34.1951ZM24.6656 34.221C25.1479 34.2278 25.5806 34.5627 25.6928 35.0537C25.7452 35.2837 25.7197 35.5113 25.633 35.7126L25.6513 35.7359L23.2234 41.6034C20.9533 40.1467 19.1453 37.9657 18.1781 35.2897L24.445 34.2263L24.4554 34.2392C24.5256 34.2263 24.5966 34.2201 24.6656 34.221ZM29.9597 36.7917C30.1327 36.7857 30.3046 36.8221 30.4603 36.898C30.6728 37.0003 30.8369 37.1614 30.9402 37.3545H30.9636L34.0529 42.9366C33.6473 43.0721 33.2353 43.1873 32.8182 43.2816C30.4555 43.8181 28.1003 43.6555 25.9678 42.9289L29.0493 37.3571H29.0545C29.1428 37.192 29.2729 37.0529 29.4317 36.9536C29.5905 36.8544 29.7726 36.7986 29.9597 36.7916L29.9597 36.7917Z" fill="white" stroke="white" stroke-width="0.276684"/>
</svg>
