<svg width="147" height="37" viewBox="0 0 147 37" fill="none" xmlns="http://www.w3.org/2000/svg">
<path d="M59.6565 13.8771C64.0424 13.8771 65.0242 16.4346 65.0242 19.386V22.3256H57.3812V23.0311C57.4106 24.6656 57.9985 25.3123 60.0798 25.3123C61.4994 25.3051 62.9102 25.0872 64.2658 24.6656L64.8008 27.2524C63.187 27.8342 61.4837 28.1287 59.7682 28.1227C55.4704 28.1227 53.9771 26.1295 53.9771 22.8312V19.2155C53.9771 16.3229 55.2705 13.8771 59.6565 13.8771ZM88.4766 13.8712C92.7744 13.8712 94.0443 15.3881 94.0443 18.8157L94.0325 27.8404H91.2222L90.9694 26.9114C89.757 27.7005 88.3417 28.1212 86.8951 28.1226C84.3964 28.1226 83.3264 26.4058 83.3264 24.0482C83.3264 21.2673 84.5375 20.1973 87.3184 20.1973H90.6049V18.7628C90.6049 17.2459 90.1816 16.7109 87.9886 16.7109C86.7128 16.725 85.4429 16.8673 84.1965 17.1342L83.7732 14.5179C85.3054 14.0946 86.8871 13.8771 88.4766 13.8712ZM111.259 13.8712C115.95 13.8712 117.215 16.4581 117.215 19.2684V22.7254C117.22 25.5357 115.95 28.1226 111.259 28.1226C106.555 28.1226 105.303 25.5357 105.303 22.7254V19.2684C105.303 16.4581 106.567 13.8712 111.259 13.8712ZM56.852 9.12078V12.2427H51.6195V27.8404H48.0919L48.0802 12.2427H42.8535V9.12078H56.852ZM101.987 7.99777C102.98 7.99444 103.969 8.12698 104.927 8.39175L104.568 11.0315C103.921 10.8923 103.261 10.8174 102.599 10.8081C101.252 10.8081 101.052 11.3961 101.052 12.4367V14.1534H104.539L104.345 16.8814H101.058V27.8404H97.6306V16.8814H95.4377V14.1534H97.6306V12.2427C97.6306 9.40298 98.9535 7.99777 101.987 7.99777ZM138.397 15.3352C140.108 14.4589 141.987 13.9597 143.906 13.8712C146.182 13.8712 146.999 15.4704 146.999 17.9162V27.8404H143.571V18.2866C143.571 17.5575 143.26 17.193 142.478 17.193C141.219 17.3318 140.004 17.7323 138.909 18.3689V27.8404H135.458V18.2866C135.458 17.5575 135.146 17.193 134.364 17.193C133.108 17.3423 131.895 17.7421 130.796 18.3689V27.8404H127.368V14.1534H129.984L130.319 15.3293C132.028 14.465 133.898 13.9683 135.811 13.8712C136.894 13.7689 137.927 14.3533 138.397 15.3352ZM73.8372 13.8712L74.19 17.0225C72.9275 17.5923 71.7108 18.2586 70.5507 19.0156V27.8345H67.1231V14.1534H70.0157L70.2391 15.6703C71.3544 14.9154 72.5642 14.3105 73.8372 13.8712ZM82.2211 13.8712L82.5621 17.0225C81.3035 17.5927 80.0908 18.259 78.9346 19.0156V27.8345H75.507V14.1534H78.3996L78.623 15.6703C79.7383 14.9154 80.948 14.3105 82.2211 13.8712ZM125.698 13.8712L126.039 17.0225C124.781 17.5927 123.568 18.259 122.412 19.0156V27.8345H118.984V14.1534H121.877L122.1 15.6703C123.215 14.9153 124.425 14.3104 125.698 13.8712ZM90.6049 22.6666H88.0768C86.9539 22.6666 86.6423 22.9782 86.6423 24.013C86.6423 25.0477 86.9539 25.3887 88.018 25.3887C88.9259 25.3748 89.8157 25.1322 90.6049 24.6832V22.6666ZM111.259 16.7932C109.43 16.7932 108.731 17.6104 108.731 19.1449V22.8253C108.731 24.3716 109.436 25.1771 111.259 25.1771C113.081 25.1771 113.787 24.3598 113.787 22.8253V19.1567C113.787 17.6104 113.087 16.7932 111.259 16.7932ZM59.6859 16.6815C57.9985 16.6815 57.4106 17.581 57.4106 18.8745V19.5682H61.7671V18.8745C61.7671 17.581 61.3732 16.6815 59.6859 16.6815Z" fill="black" fill-opacity="0.37"/>
<path d="M21.4004 23.7602L31.0424 18.1984V7.05716L21.4004 12.6307V23.7602Z" fill="black" fill-opacity="0.37"/>
<path d="M10.7003 7.05716L20.3423 12.6307V23.7602L10.7003 18.1925M0 11.9781L9.642 17.5458V6.41044L0 0.842773M10.7003 30.5507L20.3423 36.1184V24.983L10.7003 19.4154" fill="black" fill-opacity="0.37"/>
</svg>
