<svg width="114" height="114" viewBox="0 0 114 114" fill="none" xmlns="http://www.w3.org/2000/svg">
<g clip-path="url(#clip0_735_25671)">
<path d="M113.373 46.5279C109.18 22.57 92.0389 9.31701 69.1457 1.58772C62.1104 -0.789065 54.3716 0.0665764 46.8039 0.579961C24.6808 2.0916 8.90851 17.0748 2.38662 34.8056C0.000328738 41.318 0.0858928 48.4769 0.00983581 55.3505C-0.0852355 63.8784 0.314064 72.701 4.231 80.4684C15.3639 102.487 34.1404 113.791 62.3101 113.8C69.0031 114.846 76.4186 111.766 83.9673 108.267C89.548 105.52 94.5487 101.831 98.7224 97.4006C103.932 92.5614 108.02 86.7716 110.749 80.3923C113.078 74.4884 112.365 68.3373 113.335 62.3478C114.209 57.1094 114.219 51.7759 113.373 46.5374V46.5279ZM110.977 57.9745C110.568 67.8904 109.884 77.7588 104.522 87.1994C97.0967 100.281 85.1937 109.009 71.1517 110.444C52.1469 112.393 31.7161 112.203 17.4649 95.908C12.6448 90.3938 7.51096 85.0984 4.53523 78.2722C3.49895 75.3631 2.93803 72.3303 2.87148 69.2595C1.90175 59.4766 -0.370449 49.6463 2.03485 39.7874C7.87223 15.8959 27.514 1.84441 52.5843 2.90921C53.1357 2.92822 53.6871 2.90921 55.4839 2.90921C66.0369 1.63525 75.3063 6.66452 85.0891 12.1787C95.7561 18.1301 103.866 27.3901 108.03 38.3613C110.435 44.6455 111.443 51.3195 110.977 57.9745Z" fill="#002225"/>
</g>
<path d="M43.8902 80.0922C44.1056 64.0433 39.3829 48.2982 38.0396 32.2661C37.8427 31.1792 38.3893 30.0904 39.471 29.4136C40.782 28.4655 41.7826 29.346 42.627 30.0719C51.6128 37.7992 63.0929 42.5683 74.5513 47.3772C76.1182 48.0605 77.5774 48.8901 78.8988 49.8475C84.584 53.8564 84.1983 56.1534 78.2201 59.8265C68.7178 65.6651 57.5897 69.9397 50.4026 78.0529V78.0539C49.8617 78.6298 49.0986 79.0464 48.2311 79.2408C46.9051 79.5075 45.8547 80.5417 43.8893 80.0917L43.8902 80.0922ZM47.9552 74.9991C55.968 69.03 64.2704 63.7842 72.6669 58.5975C78.5593 54.958 78.2477 52.8526 71.7821 49.5213C65.2736 46.1679 58.6643 42.8994 51.814 40.0293C48.1845 38.509 46.2945 35.3398 41.4812 33.7982C43.2068 47.9057 47.1709 61.1789 47.955 74.9996L47.9552 74.9991Z" fill="#002225"/>
<path d="M38.1507 36.4113C47.5575 32.8171 53.2646 31.8772 53.2646 31.8772L38.1507 44.1826L60.0658 37.167L37.2061 53.3863L69.8899 39.4341L40.7484 63.3569L75.9354 44.1826L40.7484 71.0267L83.4924 49.2581L44.9992 77.9294L77.5885 63.3569L56.2874 80.2416" stroke="#002225" stroke-width="3" stroke-linecap="round" stroke-linejoin="round"/>
<defs>
<clipPath id="clip0_735_25671">
<rect width="114" height="114" fill="white"/>
</clipPath>
</defs>
</svg>
