<svg xmlns="http://www.w3.org/2000/svg" xmlns:xlink="http://www.w3.org/1999/xlink" width="1080" zoomAndPan="magnify" viewBox="0 0 810 809.999993" height="1080" preserveAspectRatio="xMidYMid meet" version="1.0"><defs><clipPath id="38acc5e23d"><path d="M 201 193 L 587 193 L 587 782.796875 L 201 782.796875 Z M 201 193 " clip-rule="nonzero"/></clipPath></defs><g clip-path="url(#38acc5e23d)"><path fill="#ffffff" d="M 355.109375 198.839844 C 422.425781 182.011719 497.554688 206.050781 542.632812 258.34375 C 587.707031 311.234375 599.128906 388.765625 572.082031 452.476562 C 567.875 462.695312 561.863281 472.910156 557.054688 482.527344 C 553.449219 488.539062 549.84375 495.148438 546.839844 501.761719 C 535.417969 525.203125 533.015625 551.648438 533.015625 571.480469 C 532.414062 592.515625 524 612.351562 509.574219 626.175781 C 515.585938 632.183594 519.792969 641.199219 518.589844 650.214844 C 517.988281 660.433594 511.980469 670.652344 502.363281 678.464844 C 506.570312 683.273438 508.972656 689.882812 507.769531 696.496094 C 507.171875 703.707031 502.363281 710.921875 495.75 716.332031 C 499.355469 720.539062 500.558594 725.945312 499.957031 731.957031 C 498.757812 738.570312 494.546875 745.179688 487.9375 749.988281 C 483.128906 753.59375 477.71875 755.398438 472.910156 756.597656 C 472.308594 764.414062 467.503906 772.226562 460.890625 777.035156 C 456.082031 780.640625 450.070312 782.445312 444.0625 782.445312 C 439.855469 782.445312 435.648438 781.242188 432.042969 779.4375 C 424.226562 775.832031 418.820312 768.621094 416.414062 760.207031 C 413.410156 759.605469 409.804688 759.003906 406.796875 758.402344 C 400.1875 757.199219 392.972656 754.796875 387.566406 748.785156 C 384.558594 745.179688 382.757812 739.769531 383.957031 733.761719 C 383.957031 732.558594 384.558594 731.355469 384.558594 730.152344 C 382.15625 729.554688 379.75 728.351562 377.347656 727.148438 C 370.734375 723.542969 365.925781 716.929688 364.726562 710.320312 C 364.125 706.714844 364.125 701.90625 365.925781 698.300781 C 361.121094 697.097656 356.3125 695.894531 352.105469 693.492188 C 345.492188 689.882812 340.082031 684.476562 338.28125 678.464844 C 335.875 671.855469 337.078125 664.039062 340.683594 656.828125 C 341.886719 653.824219 344.289062 651.417969 346.09375 648.414062 C 323.253906 637.59375 318.445312 619.5625 315.441406 609.347656 C 315.441406 608.144531 314.839844 607.542969 314.839844 606.339844 C 306.425781 579.894531 298.011719 566.671875 279.378906 537.824219 C 273.367188 528.808594 265.554688 519.191406 257.140625 508.972656 C 232.5 478.921875 201.246094 441.65625 201.246094 386.363281 C 201.246094 340.683594 217.472656 296.207031 244.519531 267.359375 C 276.375 234.300781 317.84375 207.855469 355.109375 198.839844 Z M 438.050781 769.222656 C 443.460938 771.625 450.070312 771.023438 454.878906 768.019531 C 457.285156 766.214844 459.6875 763.210938 460.890625 760.207031 C 453.078125 761.40625 444.664062 762.609375 436.25 762.609375 C 434.445312 762.609375 432.640625 762.609375 430.839844 762.609375 C 432.042969 765.613281 434.445312 768.019531 438.050781 769.222656 Z M 397.179688 742.175781 C 400.1875 745.179688 404.996094 746.984375 409.804688 747.585938 C 427.832031 751.191406 446.464844 751.191406 463.894531 746.984375 C 464.496094 746.382812 465.699219 745.78125 466.902344 745.78125 C 467.503906 745.78125 468.101562 745.78125 468.703125 745.78125 C 472.910156 744.578125 477.71875 743.375 481.324219 740.371094 C 484.933594 737.96875 487.335938 734.359375 487.9375 730.753906 C 488.539062 727.75 486.734375 724.746094 484.933594 723.542969 C 481.925781 724.746094 478.921875 725.945312 476.519531 727.148438 C 459.085938 733.160156 440.457031 736.164062 422.425781 736.164062 C 414.011719 736.164062 405.59375 735.5625 396.582031 734.359375 C 396.582031 734.960938 395.980469 735.5625 395.980469 736.765625 C 395.980469 739.167969 396.582031 741.574219 397.179688 742.175781 Z M 377.347656 709.71875 C 377.949219 712.722656 380.351562 715.730469 383.957031 718.132812 C 388.164062 720.539062 392.972656 721.136719 397.78125 722.339844 C 423.027344 726.546875 448.871094 724.144531 472.910156 716.332031 C 477.71875 714.527344 483.730469 712.121094 488.539062 708.515625 C 492.746094 704.910156 495.75 700.703125 496.351562 696.496094 C 496.953125 692.289062 495.148438 688.683594 492.144531 686.878906 C 486.734375 689.882812 480.726562 691.6875 475.917969 693.492188 C 454.28125 700.703125 430.839844 704.308594 408 704.308594 C 398.382812 704.308594 388.765625 703.707031 379.148438 702.507812 C 377.347656 703.109375 376.746094 706.714844 377.347656 709.71875 Z M 351.503906 663.4375 C 349.097656 667.644531 348.496094 672.453125 349.699219 675.460938 C 350.902344 678.464844 353.90625 682.070312 357.511719 683.875 C 361.71875 685.675781 365.925781 686.878906 371.335938 688.082031 C 404.394531 694.09375 438.652344 691.085938 470.507812 680.871094 C 478.320312 678.464844 486.734375 674.859375 493.949219 669.449219 C 500.558594 664.039062 504.765625 656.828125 505.367188 649.617188 C 505.96875 643.605469 502.964844 637.59375 498.757812 634.589844 C 490.941406 640.601562 481.324219 644.808594 471.710938 647.8125 C 454.878906 652.019531 419.417969 656.226562 405.597656 657.429688 C 400.1875 658.03125 394.777344 658.03125 389.96875 658.03125 C 376.746094 658.03125 366.527344 656.226562 357.511719 653.824219 C 355.710938 657.429688 353.304688 660.433594 351.503906 663.4375 Z M 450.070312 477.71875 C 427.832031 484.332031 403.792969 486.734375 380.351562 484.332031 C 399.585938 535.417969 409.804688 590.714844 409.804688 645.40625 C 418.21875 644.808594 430.839844 643.003906 442.257812 641.199219 C 438.050781 586.507812 440.457031 531.8125 450.070312 477.71875 Z M 266.757812 502.964844 C 275.171875 513.179688 283.585938 523.398438 289.597656 533.015625 C 308.828125 563.066406 317.84375 576.890625 326.257812 604.539062 C 326.859375 605.738281 326.859375 606.339844 327.460938 607.542969 C 329.867188 616.558594 334.671875 632.785156 356.3125 640.601562 C 358.113281 640.601562 359.917969 640.601562 361.121094 641.800781 C 370.734375 644.207031 382.757812 646.007812 398.382812 645.40625 C 398.382812 589.511719 387.566406 533.617188 367.128906 481.925781 C 360.519531 480.726562 354.507812 479.523438 347.898438 477.71875 C 337.078125 474.714844 325.058594 469.90625 319.046875 457.886719 C 315.441406 451.273438 315.441406 443.460938 318.445312 437.449219 C 320.851562 432.042969 325.660156 427.832031 331.667969 426.632812 C 338.882812 424.828125 346.695312 426.632812 353.304688 431.441406 C 360.519531 436.847656 364.726562 444.664062 368.332031 452.476562 C 371.335938 458.488281 373.742188 465.097656 376.746094 471.109375 C 400.789062 474.113281 426.03125 472.308594 449.472656 465.097656 C 450.671875 464.496094 452.476562 463.894531 454.28125 463.894531 C 456.082031 455.480469 458.488281 447.066406 462.695312 439.855469 C 466.300781 434.445312 470.507812 430.238281 475.917969 427.234375 C 480.726562 424.828125 486.132812 425.429688 489.742188 428.433594 C 493.949219 431.441406 495.75 436.25 494.546875 441.65625 C 492.746094 448.871094 488.539062 456.082031 482.527344 462.09375 C 477.117188 466.902344 471.109375 470.507812 464.496094 472.910156 C 453.679688 527.605469 451.273438 583.5 455.480469 638.796875 C 461.492188 637.59375 466.902344 636.992188 471.109375 635.792969 C 480.125 633.386719 488.539062 629.179688 495.75 623.171875 C 496.351562 622.570312 496.953125 621.96875 497.554688 621.96875 C 511.980469 609.945312 521.59375 591.316406 521.59375 570.878906 C 522.195312 549.242188 524 521.59375 536.621094 495.75 C 539.625 489.140625 543.832031 482.527344 546.839844 475.917969 C 552.246094 466.300781 557.054688 456.683594 561.863281 446.464844 C 587.109375 386.964844 576.289062 314.238281 534.21875 264.953125 C 501.160156 226.488281 450.671875 204.25 400.1875 204.25 C 386.363281 204.25 372.539062 206.050781 359.316406 209.058594 C 324.457031 218.074219 284.789062 242.714844 254.734375 275.773438 C 229.492188 302.820312 215.066406 344.289062 215.066406 386.964844 C 213.265625 438.652344 241.511719 472.910156 266.757812 502.964844 Z M 361.121094 469.304688 C 359.316406 465.699219 358.113281 462.09375 356.3125 458.488281 C 353.304688 451.875 350.300781 445.863281 344.890625 441.65625 C 342.488281 439.855469 338.882812 438.652344 335.875 438.652344 C 335.273438 438.652344 334.074219 438.652344 333.472656 438.652344 C 331.066406 439.253906 329.265625 440.457031 328.664062 442.859375 C 327.460938 445.863281 327.460938 449.472656 329.265625 453.078125 C 333.472656 460.890625 342.488281 464.496094 350.902344 466.902344 C 353.90625 467.503906 357.511719 468.703125 361.121094 469.304688 Z M 466.300781 457.886719 C 468.703125 456.683594 470.507812 454.878906 472.308594 453.078125 C 476.519531 448.871094 479.523438 444.0625 480.726562 438.652344 C 480.726562 438.652344 480.726562 438.050781 480.726562 438.050781 C 480.726562 438.050781 480.125 438.050781 480.125 438.050781 C 480.125 438.050781 479.523438 438.050781 479.523438 438.050781 C 475.917969 439.855469 472.910156 442.859375 471.109375 446.464844 C 469.304688 450.070312 467.503906 453.679688 466.300781 457.886719 Z M 466.300781 457.886719 " fill-opacity="1" fill-rule="nonzero"/></g><path fill="#ffffff" d="M 467.503906 255.335938 C 480.726562 251.730469 494.546875 256.539062 505.367188 267.957031 C 517.386719 280.582031 519.191406 301.015625 508.972656 314.839844 C 501.761719 324.457031 489.742188 329.867188 477.71875 329.867188 C 472.910156 329.867188 468.101562 328.664062 463.296875 326.859375 C 448.871094 320.25 435.648438 303.421875 439.855469 285.390625 C 443.460938 269.761719 453.679688 258.945312 467.503906 255.335938 Z M 468.101562 315.441406 C 478.921875 320.25 492.144531 316.644531 499.355469 307.027344 C 505.96875 298.011719 504.765625 284.1875 496.351562 275.773438 C 488.539062 267.359375 478.921875 264.351562 470.507812 266.757812 C 461.492188 269.160156 454.28125 276.972656 451.875 287.792969 C 449.472656 299.210938 458.488281 311.234375 468.101562 315.441406 Z M 468.101562 315.441406 " fill-opacity="1" fill-rule="nonzero"/><path fill="#ffffff" d="M 352.105469 103.277344 C 351.503906 103.277344 351.503906 103.277344 350.902344 103.277344 C 347.898438 103.277344 345.492188 101.472656 344.890625 98.46875 L 331.066406 35.359375 C 330.464844 32.355469 332.269531 28.746094 335.875 28.148438 C 338.882812 27.546875 342.488281 29.347656 343.089844 32.953125 L 356.910156 96.0625 C 357.511719 99.667969 355.710938 102.675781 352.105469 103.277344 Z M 352.105469 103.277344 " fill-opacity="1" fill-rule="nonzero"/><path fill="#ffffff" d="M 514.382812 122.507812 C 513.179688 124.3125 511.378906 125.515625 509.574219 125.515625 C 508.371094 125.515625 507.171875 125.515625 506.570312 124.3125 C 503.5625 122.507812 502.964844 118.902344 504.765625 115.898438 L 545.035156 50.984375 C 546.839844 47.980469 550.445312 47.378906 553.449219 49.183594 C 556.457031 50.984375 557.054688 54.59375 555.253906 57.597656 Z M 514.382812 122.507812 " fill-opacity="1" fill-rule="nonzero"/><path fill="#ffffff" d="M 722.339844 265.554688 L 643.003906 289.597656 C 642.402344 289.597656 641.800781 289.597656 641.199219 289.597656 C 638.796875 289.597656 636.394531 287.792969 635.191406 285.390625 C 633.988281 282.382812 635.792969 278.777344 639.398438 278.175781 L 718.734375 254.136719 C 721.738281 252.933594 725.347656 254.734375 725.945312 258.34375 C 727.75 261.347656 725.945312 264.953125 722.339844 265.554688 Z M 722.339844 265.554688 " fill-opacity="1" fill-rule="nonzero"/><path fill="#ffffff" d="M 656.828125 453.679688 C 657.429688 450.671875 660.433594 448.269531 664.039062 448.871094 L 743.976562 465.699219 C 746.984375 466.300781 749.386719 469.304688 748.785156 472.910156 C 748.183594 475.917969 745.78125 477.71875 742.777344 477.71875 C 742.175781 477.71875 742.175781 477.71875 741.574219 477.71875 L 661.636719 460.890625 C 658.632812 460.289062 656.226562 457.285156 656.828125 453.679688 Z M 656.828125 453.679688 " fill-opacity="1" fill-rule="nonzero"/><path fill="#ffffff" d="M 618.960938 572.683594 L 685.078125 607.542969 C 688.082031 609.347656 689.285156 612.953125 687.480469 615.957031 C 686.277344 617.761719 684.476562 618.960938 682.070312 618.960938 C 680.871094 618.960938 680.269531 618.960938 679.066406 618.363281 L 612.953125 583.5 C 609.945312 581.699219 608.746094 578.09375 610.546875 575.085938 C 612.351562 572.683594 615.957031 571.480469 618.960938 572.683594 Z M 618.960938 572.683594 " fill-opacity="1" fill-rule="nonzero"/><path fill="#ffffff" d="M 257.140625 643.003906 C 258.945312 640.601562 263.152344 640 265.554688 641.800781 C 267.960938 643.605469 268.558594 647.8125 266.757812 650.214844 L 219.875 708.515625 C 218.675781 709.71875 216.871094 710.921875 215.066406 710.921875 C 213.867188 710.921875 212.664062 710.320312 211.460938 709.71875 C 209.058594 707.914062 208.457031 703.707031 210.257812 701.304688 Z M 257.140625 643.003906 " fill-opacity="1" fill-rule="nonzero"/><path fill="#ffffff" d="M 96.664062 560.664062 L 172.394531 526.402344 C 175.398438 525.203125 179.007812 526.402344 180.207031 529.410156 C 181.410156 532.414062 180.207031 536.019531 177.203125 537.222656 L 101.472656 571.480469 C 100.871094 572.082031 99.667969 572.082031 99.070312 572.082031 C 96.664062 572.082031 94.859375 570.878906 93.660156 568.476562 C 92.457031 565.472656 93.660156 561.863281 96.664062 560.664062 Z M 96.664062 560.664062 " fill-opacity="1" fill-rule="nonzero"/><path fill="#ffffff" d="M 68.414062 344.289062 L 138.738281 358.113281 C 141.742188 358.714844 144.144531 361.71875 143.546875 365.328125 C 142.945312 368.332031 140.539062 370.132812 137.535156 370.132812 C 136.933594 370.132812 136.933594 370.132812 136.332031 370.132812 L 66.011719 356.3125 C 63.007812 355.710938 60.601562 352.703125 61.203125 349.097656 C 61.804688 345.492188 64.808594 343.6875 68.414062 344.289062 Z M 68.414062 344.289062 " fill-opacity="1" fill-rule="nonzero"/><path fill="#ffffff" d="M 117.699219 177.804688 C 114.695312 176 114.09375 172.394531 115.296875 169.390625 C 117.097656 166.382812 120.707031 165.785156 123.710938 166.984375 L 185.015625 202.445312 C 188.019531 204.25 188.621094 207.855469 187.421875 210.859375 C 186.21875 212.664062 184.414062 213.867188 182.011719 213.867188 C 180.808594 213.867188 180.207031 213.867188 179.007812 213.265625 Z M 117.699219 177.804688 " fill-opacity="1" fill-rule="nonzero"/></svg>