<svg width="147" height="122" viewBox="0 0 147 122" fill="none" xmlns="http://www.w3.org/2000/svg">
<g filter="url(#filter0_f_3382_726)">
<g clip-path="url(#clip0_3382_726)">
<path d="M122.458 82.8657C123.039 83.6673 123.508 84.6738 123.495 86.024C121.722 86.1084 120.04 86.2295 118.338 86.2728C112.348 86.4321 106.364 86.5192 100.386 86.7231C93.5841 86.9655 86.7826 87.3495 79.967 87.5834C75.3306 87.7387 70.6826 87.6605 66.0434 87.8046C60.3624 87.994 54.6764 88.35 48.99 88.5644C44.5773 88.7352 40.1616 88.8476 35.7485 88.8767C33.1847 88.8969 32.2909 88.1847 31.8889 85.6729C31.315 82.0928 30.0762 78.7246 29.0526 75.2914C27.7731 70.9643 26.4418 66.6619 25.2386 62.316C23.4848 55.9795 21.8181 49.6214 20.1297 43.2686C19.9175 42.4586 19.7354 41.6293 19.6105 40.7976C19.383 39.3178 20.2945 38.4659 21.7109 38.7651C21.9319 38.8167 22.1259 38.946 22.347 38.9976C27.6315 40.5252 32.7482 42.5434 37.8811 44.5339C48.0706 48.4867 58.0568 52.9269 68.0187 57.4559C79.3377 62.606 90.7083 67.637 102.036 72.7733C106.571 74.829 111.064 76.9899 115.545 79.1535C117.176 79.9433 118.736 80.8688 120.336 81.725C120.992 82.0827 121.655 82.4264 122.453 82.8434L122.458 82.8657ZM42.5118 85.2999C43.4909 85.282 44.1619 85.2813 44.8246 85.2472C49.2345 85.018 53.6415 84.7305 58.057 84.5709C67.5534 84.2286 77.0664 83.9532 86.5739 83.6554C91.5813 83.5028 96.5969 83.3364 101.604 83.1839C105.049 83.0755 108.488 82.9921 111.924 82.8504C112.383 82.8315 112.959 83.0079 113.374 82.3496C113.066 82.1779 112.833 82.0345 112.571 81.9104C98.6319 75.0103 84.4404 68.6807 70.3139 62.1932C69.8442 61.9786 69.3339 61.8804 68.9572 61.761C67.1769 63.1234 65.5328 64.4285 63.834 65.6526C56.9081 70.6758 49.9767 75.6767 43.0508 80.6999C42.6397 81.0025 42.2834 81.3861 41.8371 81.7802C42.0529 82.9321 42.2685 84.0367 42.5118 85.2999ZM41.6494 79.8534C41.9166 79.8109 42.0967 79.8372 42.2056 79.7629C50.4542 73.6324 58.7028 67.5019 66.9487 61.3602C67.0086 61.3218 67.0711 61.2472 67.0791 61.1861C67.0981 61.1224 67.0433 61.0414 66.9909 60.8298C66.8379 60.7259 66.6246 60.5188 66.3625 60.3946C63.8337 59.201 61.332 57.9769 58.7734 56.8498C47.3675 51.8629 35.9589 46.9122 24.5367 41.9531C24.2254 41.8175 23.8735 41.7982 23.3959 41.692C23.5751 42.4157 23.6801 42.9332 23.8287 43.44C24.3787 45.1944 24.9914 46.9215 25.4979 48.6867C27.8953 57.0618 30.4453 65.399 32.2377 73.9475C32.4005 74.6988 32.5716 75.4364 32.7889 76.1743C32.9155 76.5919 33.1265 76.9769 33.3295 77.4229C34.2236 77.2016 35.0141 77.0295 35.7936 76.8129C36.8757 76.5096 37.9357 76.1172 39.0124 75.8388C39.9282 75.6121 40.4091 75.9184 40.7524 76.8378C40.9063 77.2723 40.9947 77.7231 41.1159 78.1658C41.281 78.7393 41.4571 79.3102 41.6276 79.8588L41.6494 79.8534ZM38.9823 82.1207C38.416 80.4412 38.4417 78.7687 37.1294 77.5811C35.8015 77.7326 34.6157 77.9907 33.4803 78.7799C33.8728 80.786 34.246 82.7142 34.6302 84.6397C34.6467 84.7065 34.6987 84.7764 34.7561 84.8212C34.8107 84.855 34.8817 84.861 35.1628 84.9214C36.2871 84.0877 37.5312 83.1771 38.9686 82.1123L38.9823 82.1207ZM39.1119 83.7192C37.8344 84.4018 36.8432 85.0253 35.6542 86.1586C37.219 85.8421 38.4058 85.9619 39.5338 85.5172C39.5413 85.22 39.5898 84.9953 39.5402 84.7948C39.4712 84.5165 39.326 84.257 39.1091 83.7081L39.1119 83.7192Z" fill="#06DAEF" stroke="#06DAEF"/>
<path d="M129.194 81.1864C130.091 79.6648 131.652 79.0537 133.118 78.4309C134.134 78.0021 135.304 78.055 136.46 78.7969C136.342 79.6768 136.224 80.5567 136.096 81.5338C137.632 81.5672 138.736 80.3722 140.37 80.334C140.131 80.724 140.02 81.1178 139.772 81.2855C138.65 82.0358 137.534 82.8085 136.338 83.3999C135.431 83.849 134.925 84.4705 134.772 85.4419C134.638 86.255 134.242 87.0384 134.433 88.0428C136.033 87.6821 137.306 86.5161 139.171 86.2434C138.908 86.7694 138.816 87.1466 138.585 87.3811C137.342 88.7169 135.877 89.7648 134.18 90.4332C133.03 90.8833 131.86 90.9249 130.729 90.2832C130.349 88.8412 131.096 87.5574 131.19 86.2105C130.695 85.5178 129.824 86.3951 129.386 85.7001C129.41 85.5641 129.391 85.3917 129.464 85.3144C129.679 85.1076 129.913 84.8842 130.177 84.7833C131.75 84.1696 132.469 82.9634 132.596 81.1361C131.474 81.0946 130.362 82.2563 129.194 81.1864Z" fill="#06DAEF" stroke="#06DAEF"/>
<path d="M21.6823 92.9616C19.6316 90.9879 17.9353 88.9973 17.4455 86.2708C18.7555 85.5329 18.9301 85.537 19.5787 86.3808C20.3998 87.4537 21.2045 88.5542 22.1297 89.814C22.4423 89.394 22.7035 89.1403 22.8254 88.8383C23.2619 87.7968 23.6191 86.7157 24.0692 85.6826C24.3132 85.1259 24.6911 84.6425 25.5642 84.7572C25.6302 84.9771 25.7891 85.245 25.7844 85.5062C25.7509 86.2589 25.6846 87.0197 25.5693 87.7691C24.9443 91.835 23.8335 95.7612 22.4606 99.6105C22.2493 100.206 22.1587 101.009 21.2888 101.094C20.7925 101.146 20.5016 100.438 20.6237 99.1554C20.7381 98.0282 20.9698 96.9074 21.1551 95.7862C21.3055 94.8982 21.4887 94.0021 21.6742 92.9754L21.6823 92.9616Z" fill="#06DAEF" stroke="#06DAEF"/>
<path d="M7.00441 44.9348C6.5512 43.7117 6.94378 42.5865 7.23272 41.4633C7.51627 40.3651 7.8517 39.2895 8.1761 38.1694C7.65354 37.5543 7.13662 37.0088 6.69866 36.4082C6.33738 35.9305 6.0414 35.3893 5.78089 34.8512C5.70959 34.7034 5.81501 34.3346 5.94297 34.2439C6.16079 34.0954 6.50143 33.9756 6.74706 34.033C7.01449 34.0849 7.24971 34.3339 7.48204 34.5245C7.9412 34.8835 8.38946 35.2452 8.88145 35.6433C10.3478 34.1814 10.4014 31.6867 12.8432 30.8931C12.6816 31.6894 12.6258 32.2585 12.4444 32.7879C11.9952 34.1517 11.4941 35.4928 10.9957 36.8451C10.7573 37.4713 10.8351 38.0192 11.2647 38.5391C11.7846 39.1903 12.3263 39.836 12.7754 40.5283C13.0383 40.9359 13.1624 41.4369 13.4039 42.0388C11.8027 41.9744 11.1771 40.5223 10.0304 40.0972C9.16443 41.6941 8.35826 43.2053 7.52477 44.6996C7.46774 44.7964 7.27687 44.82 7.00441 44.9348Z" fill="#06DAEF" stroke="#06DAEF"/>
</g>
</g>
<defs>
<filter id="filter0_f_3382_726" x="0" y="0" width="146.379" height="121.533" filterUnits="userSpaceOnUse" color-interpolation-filters="sRGB">
<feFlood flood-opacity="0" result="BackgroundImageFix"/>
<feBlend mode="normal" in="SourceGraphic" in2="BackgroundImageFix" result="shape"/>
<feGaussianBlur stdDeviation="2" result="effect1_foregroundBlur_3382_726"/>
</filter>
<clipPath id="clip0_3382_726">
<rect width="121.018" height="87" fill="white" transform="translate(4 33.0823) rotate(-13.9051)"/>
</clipPath>
</defs>
</svg>
