<svg width="96" height="53" viewBox="0 0 96 53" fill="none" xmlns="http://www.w3.org/2000/svg">
<g filter="url(#filter0_f_3382_693)">
<path d="M50.4272 29.0824C52.8637 26.2523 55.682 23.9001 57.2906 20.1979C56.4403 20.2062 55.9156 20.0951 55.4756 20.2322C54.547 20.5401 53.6691 20.997 52.7742 21.3876C52.2697 21.6084 51.7996 21.9617 51.2768 22.0166C50.8032 22.071 50.2129 21.9439 49.8173 21.6821C49.3557 21.371 49.4755 20.4233 49.9435 19.8874C51.0735 18.6144 52.52 17.8364 54.1355 17.5218C56.6485 17.0325 58.8659 17.8412 60.8788 19.3494C61.7533 20.0051 61.9452 21.0328 61.3024 22.0022C60.5146 23.1723 59.5784 24.2276 58.7568 25.2983C58.9144 26.1935 59.5986 25.9544 60.0422 26.1327C60.7649 26.3914 61.5031 26.5835 62.1936 26.8923C65.0875 28.2093 65.6783 29.7811 64.1749 32.6851C62.7192 35.4724 60.6193 37.718 57.9059 39.2555C54.9165 40.9618 49.9981 39.9468 47.7422 37.2453C47.5764 37.0477 47.5882 36.6656 47.4853 36.2515C49.9001 35.763 51.3136 37.7586 53.3991 38.469C55.5663 37.7837 57.0173 35.9928 58.386 34.1528C59.6419 32.4635 60.6016 30.6109 60.4422 28.1714C59.8037 28.1111 59.1468 27.885 58.6089 28.0397C56.9463 28.5208 55.3014 29.118 53.7062 29.7645C52.5994 30.2237 51.6188 30.283 50.4272 29.0824Z" fill="#06DAEF" stroke="#66CCD6" stroke-width="0.5"/>
<path d="M12.5786 13.5248C12.2468 14.5244 11.9948 15.3572 11.6773 16.1739C9.56614 21.6578 8.42256 27.3647 7.88581 33.2152C7.53816 37.0545 7.17435 40.9106 6.67933 44.7348C6.4994 46.1314 5.9591 47.4818 5.48403 48.8149C5.38882 49.0649 4.76915 49.2203 4.40937 49.2238C4.19678 49.2259 3.88102 48.7972 3.82886 48.532C3.6893 47.7861 3.61476 47.0064 3.58929 46.2261C3.48777 43.1384 3.40262 40.0506 3.36652 36.9622C3.32625 30.7188 4.46575 24.6632 6.57281 18.8307C7.2383 16.9975 8.24837 15.2607 9.27558 13.5901C9.99769 12.4041 10.5054 12.4656 12.5953 13.5579L12.5786 13.5248Z" fill="#06DAEF" stroke="#66CCD6" stroke-width="0.5"/>
<path d="M70.8327 46.8017C70.0265 44.9995 69.9949 43.688 70.0453 42.4088C70.1503 40.1992 70.3373 38.0054 70.4914 35.7953C70.6881 33.0368 71.0322 30.2935 71.0491 27.5368C71.0779 21.6082 69.8339 15.9245 67.383 10.5348C66.7955 9.24523 66.1592 7.97276 65.5059 6.65063C67.1774 6.9333 67.2919 6.93219 68.2035 7.9695C70.7062 10.8014 72.673 13.954 73.795 17.5964C75.2227 22.199 75.7187 26.8604 74.7607 31.6522C74.0965 34.9964 73.5472 38.3728 72.8832 41.7336C72.6517 42.9149 72.2399 44.0647 71.8445 45.2143C71.7181 45.5975 71.3949 45.9327 70.8327 46.8017Z" fill="#06DAEF" stroke="#66CCD6" stroke-width="0.5"/>
<path d="M21.6836 27.2361C22.5227 26.2648 23.1354 25.5115 23.7978 24.8077C24.6217 23.9361 25.4622 23.0811 26.3686 22.2752C27.178 21.5533 28.1091 21.4612 29.0958 21.9166C29.2725 23.0441 28.7593 23.9126 28.2782 24.7309C27.1719 26.6347 26.0988 28.5714 24.8109 30.3276C23.861 31.6155 23.6462 32.8298 24.1379 34.3195C24.6293 35.7761 25.0555 37.2665 25.433 38.7739C25.5873 39.3868 25.5624 40.0513 25.6375 40.8809C22.898 40.1768 22.8663 37.4704 21.3253 35.7583C20.9527 36.0609 20.5142 36.3308 20.1914 36.6993C19.0622 38.0387 17.9827 39.4275 16.8369 40.7505C16.498 41.1357 15.9941 41.4063 15.5228 41.66C15.214 41.8291 14.5221 41.404 14.5508 41.055C14.6086 40.4068 14.6168 39.7093 14.8717 39.1256C15.4452 37.8248 16.1337 36.5561 16.8387 35.3038C17.5752 33.9515 18.3777 32.6485 19.1474 31.3291C18.2305 28.4486 16.6301 25.857 16.5128 22.8193C17.8097 22.7624 19.5387 24.2291 21.6998 27.2193L21.6836 27.2361Z" fill="#06DAEF" stroke="#66CCD6" stroke-width="0.5"/>
<path d="M76.9959 15.6722C78.4466 12.4532 81.2038 10.4669 81.9805 6.95551C81.1311 7.04679 80.5104 7.11925 79.9059 7.17494C79.1545 7.24866 78.3878 7.42217 77.6507 7.3297C77.1921 7.26773 76.6154 6.908 76.3818 6.51173C76.0811 5.96666 76.5335 5.4973 77.0208 5.21026C79.7653 3.53962 82.7615 3.80941 85.1416 5.94505C86.0011 6.71718 86.222 7.42908 85.7123 8.59645C85.3303 9.49688 84.7838 10.3159 84.2538 11.1513C83.7398 11.9534 83.1599 12.7063 82.4358 13.7263C85.7804 14.4245 88.8598 12.0199 92.0395 13.9983C91.5539 14.4348 91.2327 14.9361 90.809 15.073C88.1204 15.9295 85.4313 16.7361 82.7252 17.493C80.5244 18.1122 78.7318 17.2661 76.9796 15.6724L76.9959 15.6722Z" fill="#06DAEF" stroke="#66CCD6" stroke-width="0.5"/>
<path d="M34.2995 31.7466C32.8078 31.4622 31.3655 31.1939 29.6279 30.8621C31.2146 29.485 33.0382 30.1813 34.5651 29.2864C34.6728 28.7041 34.747 28.0557 34.9034 27.4398C35.1841 26.2747 35.4974 25.0926 35.8438 23.9434C36.0325 23.294 36.3685 22.6597 37.1375 22.6854C37.9228 22.711 38.6951 23.019 39.015 23.7964C39.3011 24.4911 39.4247 25.2703 39.5645 26.0328C39.7229 26.9944 39.7996 27.9568 39.9434 29.068C40.9908 29.1243 41.9074 29.1818 43.1512 29.2527C42.0374 30.509 40.6444 30.2735 39.3969 31.2819C38.8772 32.9974 38.2804 35.1121 37.5849 37.178C37.237 38.1944 36.7415 39.1789 36.2456 40.1303C36.1337 40.3472 35.629 40.5514 35.4155 40.4705C35.0541 40.3411 34.5431 39.9974 34.5233 39.6986C34.4085 38.2717 34.3918 36.8437 34.4078 35.4155C34.4265 34.2196 34.7887 33.0205 34.316 31.763L34.2995 31.7466Z" fill="#06DAEF" stroke="#66CCD6" stroke-width="0.5"/>
</g>
<defs>
<filter id="filter0_f_3382_693" x="0.115234" y="0.875488" width="95.3389" height="51.5984" filterUnits="userSpaceOnUse" color-interpolation-filters="sRGB">
<feFlood flood-opacity="0" result="BackgroundImageFix"/>
<feBlend mode="normal" in="SourceGraphic" in2="BackgroundImageFix" result="shape"/>
<feGaussianBlur stdDeviation="1.5" result="effect1_foregroundBlur_3382_693"/>
</filter>
</defs>
</svg>
