<svg xmlns="http://www.w3.org/2000/svg" xmlns:xlink="http://www.w3.org/1999/xlink" width="1080" zoomAndPan="magnify" viewBox="0 0 810 809.999993" height="1080" preserveAspectRatio="xMidYMid meet" version="1.0"><defs><clipPath id="8265f5d8ab"><path d="M 94 736 L 100 736 L 100 747 L 94 747 Z M 94 736 " clip-rule="nonzero"/></clipPath><clipPath id="ce04572c47"><path d="M -41.335938 558.550781 L 689.179688 27.742188 L 851.417969 251.023438 L 120.902344 781.832031 Z M -41.335938 558.550781 " clip-rule="nonzero"/></clipPath><clipPath id="a34092f6a8"><path d="M -41.335938 558.550781 L 689.179688 27.742188 L 851.417969 251.023438 L 120.902344 781.832031 Z M -41.335938 558.550781 " clip-rule="nonzero"/></clipPath><clipPath id="1513724c22"><path d="M 97 240 L 510 240 L 510 731 L 97 731 Z M 97 240 " clip-rule="nonzero"/></clipPath><clipPath id="2ff1c56a66"><path d="M -41.335938 558.550781 L 689.179688 27.742188 L 851.417969 251.023438 L 120.902344 781.832031 Z M -41.335938 558.550781 " clip-rule="nonzero"/></clipPath><clipPath id="e07636d857"><path d="M -41.335938 558.550781 L 689.179688 27.742188 L 851.417969 251.023438 L 120.902344 781.832031 Z M -41.335938 558.550781 " clip-rule="nonzero"/></clipPath><clipPath id="0918bb7455"><path d="M 491 232 L 502 232 L 502 240 L 491 240 Z M 491 232 " clip-rule="nonzero"/></clipPath><clipPath id="0ab1612b4a"><path d="M -41.335938 558.550781 L 689.179688 27.742188 L 851.417969 251.023438 L 120.902344 781.832031 Z M -41.335938 558.550781 " clip-rule="nonzero"/></clipPath><clipPath id="1fb96c0b95"><path d="M -41.335938 558.550781 L 689.179688 27.742188 L 851.417969 251.023438 L 120.902344 781.832031 Z M -41.335938 558.550781 " clip-rule="nonzero"/></clipPath><clipPath id="77941d2cb0"><path d="M 493 154 L 782 154 L 782 355 L 493 355 Z M 493 154 " clip-rule="nonzero"/></clipPath><clipPath id="3f0e5c683c"><path d="M -41.335938 558.550781 L 689.179688 27.742188 L 851.417969 251.023438 L 120.902344 781.832031 Z M -41.335938 558.550781 " clip-rule="nonzero"/></clipPath><clipPath id="b7c965837b"><path d="M -41.335938 558.550781 L 689.179688 27.742188 L 851.417969 251.023438 L 120.902344 781.832031 Z M -41.335938 558.550781 " clip-rule="nonzero"/></clipPath><clipPath id="697216f199"><path d="M 529 154 L 782 154 L 782 234 L 529 234 Z M 529 154 " clip-rule="nonzero"/></clipPath><clipPath id="64d0f17b10"><path d="M -41.335938 558.550781 L 689.179688 27.742188 L 851.417969 251.023438 L 120.902344 781.832031 Z M -41.335938 558.550781 " clip-rule="nonzero"/></clipPath><clipPath id="e3248eac2e"><path d="M -41.335938 558.550781 L 689.179688 27.742188 L 851.417969 251.023438 L 120.902344 781.832031 Z M -41.335938 558.550781 " clip-rule="nonzero"/></clipPath><clipPath id="e8c50d4ad4"><path d="M 572 154 L 782 154 L 782 348 L 572 348 Z M 572 154 " clip-rule="nonzero"/></clipPath><clipPath id="2ed2bf7aa9"><path d="M -41.335938 558.550781 L 689.179688 27.742188 L 851.417969 251.023438 L 120.902344 781.832031 Z M -41.335938 558.550781 " clip-rule="nonzero"/></clipPath><clipPath id="35b2165528"><path d="M -41.335938 558.550781 L 689.179688 27.742188 L 851.417969 251.023438 L 120.902344 781.832031 Z M -41.335938 558.550781 " clip-rule="nonzero"/></clipPath><clipPath id="5ff47aafb4"><path d="M 529 112 L 782 112 L 782 210 L 529 210 Z M 529 112 " clip-rule="nonzero"/></clipPath><clipPath id="aca72fbab3"><path d="M -41.335938 558.550781 L 689.179688 27.742188 L 851.417969 251.023438 L 120.902344 781.832031 Z M -41.335938 558.550781 " clip-rule="nonzero"/></clipPath><clipPath id="516ff9acf9"><path d="M -41.335938 558.550781 L 689.179688 27.742188 L 851.417969 251.023438 L 120.902344 781.832031 Z M -41.335938 558.550781 " clip-rule="nonzero"/></clipPath></defs><g clip-path="url(#8265f5d8ab)"><g clip-path="url(#ce04572c47)"><g clip-path="url(#a34092f6a8)"><path fill="#ffffff" d="M 97.90625 746.046875 C 97.535156 746.320312 97.117188 746.464844 96.660156 746.480469 C 96.199219 746.496094 95.773438 746.382812 95.382812 746.136719 C 94.992188 745.890625 94.707031 745.558594 94.519531 745.136719 C 94.335938 744.714844 94.285156 744.277344 94.367188 743.824219 C 94.386719 743.746094 94.722656 741.898438 95.453125 738.476562 C 95.519531 738.191406 95.636719 737.929688 95.808594 737.6875 C 95.980469 737.449219 96.1875 737.25 96.4375 737.09375 C 96.683594 736.933594 96.953125 736.832031 97.242188 736.777344 C 97.53125 736.726562 97.820312 736.730469 98.105469 736.789062 C 98.394531 736.851562 98.660156 736.964844 98.902344 737.128906 C 99.144531 737.292969 99.347656 737.496094 99.511719 737.742188 C 99.675781 737.988281 99.785156 738.253906 99.847656 738.539062 C 99.90625 738.828125 99.90625 739.117188 99.855469 739.40625 C 99.136719 742.765625 98.800781 744.617188 98.796875 744.625 C 98.6875 745.214844 98.390625 745.691406 97.90625 746.046875 Z M 97.90625 746.046875 " fill-opacity="1" fill-rule="nonzero"/></g></g></g><g clip-path="url(#1513724c22)"><g clip-path="url(#2ff1c56a66)"><g clip-path="url(#e07636d857)"><path fill="#ffffff" d="M 457.539062 537.378906 L 456.542969 538.105469 C 456.300781 538.28125 456.035156 538.402344 455.746094 538.472656 C 455.457031 538.542969 455.164062 538.554688 454.867188 538.507812 C 454.574219 538.460938 454.300781 538.359375 454.046875 538.203125 C 453.792969 538.046875 453.578125 537.847656 453.402344 537.609375 C 453.226562 537.367188 453.101562 537.101562 453.035156 536.8125 C 452.964844 536.519531 452.953125 536.226562 453 535.933594 C 453.046875 535.640625 453.148438 535.363281 453.300781 535.109375 C 453.457031 534.855469 453.65625 534.640625 453.898438 534.464844 C 456.742188 532.453125 459.523438 530.277344 462.230469 527.988281 C 462.457031 527.796875 462.714844 527.652344 463 527.5625 C 463.285156 527.46875 463.578125 527.4375 463.875 527.460938 C 464.171875 527.484375 464.457031 527.566406 464.722656 527.703125 C 464.988281 527.839844 465.21875 528.023438 465.410156 528.25 C 465.605469 528.480469 465.746094 528.738281 465.839844 529.023438 C 465.929688 529.308594 465.960938 529.601562 465.9375 529.898438 C 465.914062 530.195312 465.832031 530.480469 465.695312 530.746094 C 465.554688 531.011719 465.371094 531.242188 465.144531 531.433594 C 462.6875 533.484375 460.125 535.503906 457.539062 537.378906 Z M 447.550781 543.917969 L 447.367188 544.046875 C 444.179688 545.910156 440.921875 547.621094 437.691406 549.101562 C 437.417969 549.222656 437.132812 549.292969 436.835938 549.300781 C 436.539062 549.3125 436.25 549.265625 435.96875 549.160156 C 435.691406 549.054688 435.441406 548.902344 435.222656 548.699219 C 435.003906 548.492188 434.835938 548.257812 434.710938 547.984375 C 434.585938 547.710938 434.519531 547.429688 434.511719 547.128906 C 434.5 546.832031 434.546875 546.542969 434.652344 546.261719 C 434.757812 545.984375 434.910156 545.734375 435.113281 545.515625 C 435.316406 545.296875 435.554688 545.128906 435.828125 545.003906 C 438.949219 543.558594 442.082031 541.917969 445.148438 540.121094 C 445.398438 539.957031 445.671875 539.847656 445.964844 539.792969 C 446.257812 539.738281 446.550781 539.742188 446.84375 539.804688 C 447.136719 539.863281 447.40625 539.980469 447.652344 540.148438 C 447.898438 540.316406 448.105469 540.527344 448.265625 540.777344 C 448.429688 541.027344 448.539062 541.296875 448.59375 541.59375 C 448.648438 541.886719 448.648438 542.179688 448.585938 542.472656 C 448.523438 542.761719 448.410156 543.03125 448.242188 543.277344 C 448.070312 543.527344 447.863281 543.730469 447.613281 543.894531 Z M 472.9375 524.234375 C 472.710938 524.429688 472.453125 524.570312 472.167969 524.664062 C 471.882812 524.753906 471.59375 524.789062 471.296875 524.761719 C 470.996094 524.738281 470.714844 524.660156 470.449219 524.523438 C 470.183594 524.386719 469.953125 524.203125 469.757812 523.976562 C 469.566406 523.746094 469.421875 523.492188 469.332031 523.207031 C 469.238281 522.921875 469.203125 522.628906 469.230469 522.332031 C 469.253906 522.035156 469.332031 521.75 469.46875 521.484375 C 469.605469 521.21875 469.789062 520.988281 470.015625 520.796875 C 472.5 518.335938 474.921875 515.730469 477.214844 513.0625 C 477.402344 512.820312 477.632812 512.625 477.902344 512.476562 C 478.171875 512.328125 478.457031 512.238281 478.765625 512.207031 C 479.070312 512.175781 479.371094 512.207031 479.664062 512.300781 C 479.957031 512.394531 480.222656 512.539062 480.453125 512.742188 C 480.6875 512.941406 480.871094 513.179688 481.007812 513.457031 C 481.144531 513.730469 481.21875 514.023438 481.234375 514.332031 C 481.25 514.636719 481.207031 514.9375 481.097656 515.226562 C 480.992188 515.515625 480.832031 515.769531 480.621094 515.992188 C 478.253906 518.75 475.757812 521.441406 473.191406 523.984375 Z M 428.113281 552.867188 C 427.929688 553 427.730469 553.101562 427.511719 553.171875 C 424.039062 554.359375 420.511719 555.339844 416.925781 556.113281 C 416.625 556.203125 416.320312 556.226562 416.011719 556.1875 C 415.703125 556.148438 415.414062 556.046875 415.148438 555.890625 C 414.878906 555.730469 414.652344 555.523438 414.472656 555.273438 C 414.289062 555.019531 414.164062 554.742188 414.097656 554.4375 C 414.03125 554.132812 414.027344 553.828125 414.085938 553.519531 C 414.148438 553.214844 414.265625 552.933594 414.441406 552.675781 C 414.621094 552.421875 414.839844 552.210938 415.105469 552.046875 C 415.367188 551.878906 415.65625 551.773438 415.964844 551.730469 C 419.382812 550.988281 422.746094 550.050781 426.058594 548.921875 C 426.3125 548.832031 426.574219 548.792969 426.847656 548.800781 C 427.117188 548.804688 427.375 548.859375 427.625 548.960938 C 427.875 549.0625 428.101562 549.203125 428.300781 549.382812 C 428.5 549.5625 428.664062 549.773438 428.785156 550.011719 C 428.910156 550.253906 428.988281 550.507812 429.023438 550.773438 C 429.054688 551.042969 429.039062 551.308594 428.976562 551.570312 C 428.914062 551.832031 428.808594 552.074219 428.660156 552.300781 C 428.507812 552.523438 428.324219 552.714844 428.105469 552.871094 Z M 486.953125 507.945312 C 486.738281 508.101562 486.5 508.214844 486.242188 508.289062 C 485.984375 508.359375 485.71875 508.386719 485.453125 508.363281 C 485.1875 508.34375 484.929688 508.273438 484.6875 508.164062 C 484.445312 508.050781 484.230469 507.898438 484.039062 507.707031 C 483.851562 507.519531 483.699219 507.300781 483.589844 507.058594 C 483.476562 506.8125 483.410156 506.558594 483.390625 506.292969 C 483.371094 506.023438 483.398438 505.761719 483.472656 505.503906 C 483.542969 505.246094 483.660156 505.007812 483.820312 504.792969 C 485.90625 501.941406 487.882812 498.996094 489.710938 496.0625 C 489.863281 495.804688 490.0625 495.582031 490.304688 495.402344 C 490.546875 495.222656 490.8125 495.09375 491.105469 495.023438 C 491.398438 494.949219 491.695312 494.9375 491.992188 494.980469 C 492.289062 495.027344 492.566406 495.128906 492.824219 495.289062 C 493.082031 495.445312 493.300781 495.648438 493.476562 495.890625 C 493.652344 496.136719 493.773438 496.40625 493.839844 496.699219 C 493.910156 496.996094 493.917969 497.289062 493.867188 497.589844 C 493.8125 497.886719 493.707031 498.160156 493.546875 498.414062 C 491.664062 501.472656 489.621094 504.527344 487.460938 507.476562 C 487.304688 507.667969 487.128906 507.832031 486.925781 507.964844 Z M 407.171875 557.359375 C 406.835938 557.601562 406.464844 557.742188 406.050781 557.773438 C 402.363281 558.117188 398.671875 558.195312 394.972656 558.003906 C 394.675781 557.988281 394.390625 557.910156 394.121094 557.78125 C 393.855469 557.648438 393.621094 557.472656 393.421875 557.25 C 393.226562 557.027344 393.078125 556.773438 392.980469 556.492188 C 392.882812 556.210938 392.84375 555.917969 392.859375 555.621094 C 392.878906 555.324219 392.953125 555.039062 393.082031 554.769531 C 393.210938 554.503906 393.390625 554.269531 393.613281 554.070312 C 393.835938 553.871094 394.089844 553.722656 394.371094 553.625 C 394.652344 553.527344 394.941406 553.488281 395.238281 553.503906 C 398.707031 553.707031 402.171875 553.652344 405.632812 553.339844 C 406.136719 553.292969 406.605469 553.40625 407.035156 553.675781 C 407.464844 553.945312 407.769531 554.316406 407.949219 554.792969 C 408.125 555.269531 408.140625 555.75 407.992188 556.234375 C 407.84375 556.722656 407.566406 557.113281 407.152344 557.40625 Z M 498.140625 489.660156 C 497.9375 489.808594 497.714844 489.921875 497.472656 489.996094 C 497.230469 490.070312 496.984375 490.101562 496.730469 490.09375 C 496.480469 490.085938 496.234375 490.035156 496 489.945312 C 495.765625 489.855469 495.550781 489.726562 495.359375 489.5625 C 495.164062 489.402344 495.003906 489.210938 494.875 488.992188 C 494.746094 488.777344 494.65625 488.542969 494.605469 488.296875 C 494.554688 488.050781 494.546875 487.800781 494.578125 487.550781 C 494.613281 487.300781 494.6875 487.0625 494.796875 486.835938 C 496.390625 483.65625 497.824219 480.421875 499.054688 477.214844 C 499.160156 476.9375 499.316406 476.6875 499.523438 476.472656 C 499.726562 476.253906 499.96875 476.085938 500.242188 475.964844 C 500.515625 475.839844 500.800781 475.777344 501.097656 475.769531 C 501.398438 475.761719 501.6875 475.8125 501.964844 475.917969 C 502.246094 476.027344 502.492188 476.183594 502.710938 476.390625 C 502.925781 476.597656 503.09375 476.835938 503.214844 477.109375 C 503.335938 477.382812 503.402344 477.667969 503.40625 477.96875 C 503.414062 478.265625 503.363281 478.554688 503.253906 478.835938 C 501.972656 482.167969 500.472656 485.539062 498.820312 488.851562 C 498.671875 489.191406 498.449219 489.472656 498.160156 489.703125 Z M 505.824219 469.617188 C 505.441406 469.898438 505.007812 470.046875 504.53125 470.054688 C 504.054688 470.0625 503.621094 469.933594 503.226562 469.664062 C 502.832031 469.394531 502.554688 469.035156 502.390625 468.589844 C 502.226562 468.140625 502.203125 467.6875 502.328125 467.226562 C 503.226562 463.859375 503.902344 460.445312 504.355469 456.988281 C 504.394531 456.691406 504.488281 456.414062 504.636719 456.15625 C 504.789062 455.898438 504.980469 455.679688 505.214844 455.496094 C 505.453125 455.316406 505.714844 455.183594 506.003906 455.109375 C 506.292969 455.03125 506.582031 455.011719 506.878906 455.050781 C 507.175781 455.089844 507.453125 455.183594 507.710938 455.332031 C 507.96875 455.480469 508.191406 455.671875 508.371094 455.910156 C 508.554688 456.144531 508.683594 456.410156 508.761719 456.695312 C 508.839844 456.984375 508.859375 457.277344 508.820312 457.574219 C 508.335938 461.222656 507.617188 464.828125 506.664062 468.382812 C 506.542969 468.917969 506.261719 469.347656 505.820312 469.671875 Z M 385.824219 556.042969 C 385.277344 556.445312 384.671875 556.570312 384.007812 556.417969 C 380.378906 555.601562 376.851562 554.480469 373.421875 553.050781 C 373.164062 552.925781 372.9375 552.757812 372.746094 552.546875 C 372.550781 552.332031 372.40625 552.09375 372.304688 551.824219 C 372.203125 551.558594 372.15625 551.28125 372.160156 550.992188 C 372.164062 550.707031 372.222656 550.433594 372.332031 550.167969 C 372.441406 549.902344 372.597656 549.667969 372.796875 549.460938 C 372.996094 549.257812 373.226562 549.097656 373.488281 548.980469 C 373.75 548.863281 374.023438 548.796875 374.3125 548.785156 C 374.597656 548.773438 374.875 548.8125 375.144531 548.90625 C 378.34375 550.226562 381.625 551.265625 385 552.027344 C 385.429688 552.121094 385.800781 552.328125 386.109375 552.644531 C 386.417969 552.960938 386.617188 553.332031 386.707031 553.765625 C 386.796875 554.199219 386.761719 554.621094 386.601562 555.035156 C 386.441406 555.445312 386.183594 555.78125 385.824219 556.042969 Z M 508.464844 448.417969 C 508.085938 448.695312 507.664062 448.839844 507.199219 448.851562 C 506.898438 448.859375 506.609375 448.808594 506.332031 448.703125 C 506.054688 448.59375 505.804688 448.4375 505.589844 448.230469 C 505.371094 448.027344 505.203125 447.785156 505.082031 447.511719 C 504.960938 447.238281 504.898438 446.953125 504.890625 446.65625 C 504.8125 443.203125 504.40625 439.789062 503.679688 436.414062 C 503.605469 436.117188 503.589844 435.820312 503.636719 435.519531 C 503.683594 435.21875 503.785156 434.9375 503.945312 434.679688 C 504.105469 434.421875 504.308594 434.203125 504.558594 434.027344 C 504.804688 433.851562 505.078125 433.730469 505.375 433.664062 C 505.671875 433.601562 505.972656 433.59375 506.269531 433.652344 C 506.570312 433.707031 506.847656 433.816406 507.101562 433.984375 C 507.355469 434.152344 507.566406 434.363281 507.734375 434.617188 C 507.902344 434.871094 508.015625 435.148438 508.070312 435.445312 C 508.847656 439.09375 509.277344 442.78125 509.367188 446.507812 C 509.382812 446.882812 509.3125 447.238281 509.152344 447.574219 C 508.992188 447.914062 508.761719 448.195312 508.464844 448.417969 Z M 366.042969 547.878906 C 365.671875 548.148438 365.253906 548.292969 364.792969 548.308594 C 364.332031 548.320312 363.910156 548.203125 363.519531 547.953125 C 360.390625 545.960938 357.453125 543.714844 354.703125 541.222656 C 354.460938 541.027344 354.269531 540.792969 354.125 540.519531 C 353.984375 540.246094 353.898438 539.953125 353.875 539.644531 C 353.851562 539.335938 353.894531 539.035156 353.992188 538.742188 C 354.09375 538.449219 354.25 538.1875 354.460938 537.957031 C 354.667969 537.730469 354.914062 537.550781 355.199219 537.425781 C 355.480469 537.296875 355.777344 537.230469 356.085938 537.226562 C 356.394531 537.222656 356.695312 537.28125 356.980469 537.398438 C 357.265625 537.515625 357.519531 537.6875 357.734375 537.910156 C 360.300781 540.226562 363.039062 542.3125 365.949219 544.175781 C 366.199219 544.339844 366.410156 544.542969 366.578125 544.785156 C 366.75 545.03125 366.867188 545.296875 366.929688 545.589844 C 366.996094 545.878906 367 546.171875 366.949219 546.464844 C 366.898438 546.757812 366.792969 547.03125 366.636719 547.28125 C 366.476562 547.519531 366.28125 547.71875 366.042969 547.878906 Z M 101.304688 730.230469 C 100.925781 730.503906 100.5 730.648438 100.027344 730.65625 C 99.558594 730.664062 99.128906 730.539062 98.738281 730.277344 C 98.34375 730.015625 98.0625 729.664062 97.890625 729.226562 C 97.722656 728.789062 97.691406 728.339844 97.800781 727.882812 C 98.644531 724.453125 99.496094 720.957031 100.425781 717.410156 C 100.5 717.121094 100.628906 716.859375 100.808594 716.621094 C 100.988281 716.382812 101.207031 716.1875 101.464844 716.039062 C 101.722656 715.886719 102 715.792969 102.296875 715.75 C 102.589844 715.710938 102.882812 715.726562 103.171875 715.804688 C 103.460938 715.878906 103.722656 716.007812 103.960938 716.1875 C 104.199219 716.367188 104.394531 716.585938 104.542969 716.84375 C 104.695312 717.101562 104.789062 717.378906 104.832031 717.675781 C 104.871094 717.96875 104.855469 718.261719 104.777344 718.550781 C 103.863281 722.066406 102.984375 725.558594 102.167969 728.9375 C 102.039062 729.472656 101.753906 729.902344 101.304688 730.230469 Z M 503.824219 427.597656 C 503.714844 427.691406 503.597656 427.777344 503.476562 427.851562 C 503.203125 427.980469 502.917969 428.054688 502.617188 428.070312 C 502.316406 428.082031 502.027344 428.039062 501.742188 427.9375 C 501.460938 427.835938 501.207031 427.683594 500.984375 427.480469 C 500.765625 427.28125 500.589844 427.042969 500.464844 426.769531 C 499.285156 424.230469 497.875 421.828125 496.230469 419.566406 C 495.875 419.078125 495.523438 418.589844 495.171875 418.109375 C 494.988281 417.878906 494.851562 417.617188 494.769531 417.332031 C 494.6875 417.042969 494.664062 416.753906 494.699219 416.457031 C 494.734375 416.160156 494.824219 415.882812 494.96875 415.621094 C 495.113281 415.359375 495.304688 415.136719 495.539062 414.953125 C 495.773438 414.769531 496.03125 414.640625 496.320312 414.558594 C 496.605469 414.480469 496.894531 414.457031 497.191406 414.488281 C 497.484375 414.523438 497.761719 414.613281 498.023438 414.757812 C 498.285156 414.898438 498.507812 415.085938 498.695312 415.316406 C 499.089844 415.863281 499.484375 416.402344 499.875 416.941406 C 501.691406 419.441406 503.25 422.097656 504.546875 424.902344 C 504.652344 425.136719 504.714844 425.378906 504.738281 425.632812 C 504.757812 425.890625 504.738281 426.140625 504.675781 426.386719 C 504.609375 426.636719 504.507812 426.867188 504.367188 427.078125 C 504.222656 427.289062 504.050781 427.472656 503.84375 427.625 Z M 350.160156 533.535156 C 349.929688 533.703125 349.671875 533.820312 349.394531 533.894531 C 349.113281 533.964844 348.832031 533.980469 348.546875 533.945312 C 348.261719 533.90625 347.996094 533.820312 347.742188 533.679688 C 347.492188 533.542969 347.273438 533.359375 347.09375 533.136719 C 346.230469 532.074219 345.375 530.960938 344.550781 529.824219 C 343.226562 528.003906 341.949219 526.074219 340.753906 524.109375 C 340.597656 523.851562 340.496094 523.574219 340.453125 523.28125 C 340.40625 522.984375 340.421875 522.691406 340.492188 522.398438 C 340.5625 522.109375 340.6875 521.84375 340.863281 521.601562 C 341.042969 521.359375 341.257812 521.160156 341.515625 521.007812 C 341.769531 520.851562 342.046875 520.75 342.34375 520.707031 C 342.636719 520.660156 342.929688 520.675781 343.222656 520.746094 C 343.511719 520.816406 343.777344 520.941406 344.019531 521.117188 C 344.261719 521.296875 344.460938 521.511719 344.613281 521.769531 C 345.742188 523.640625 346.949219 525.457031 348.199219 527.175781 C 348.976562 528.242188 349.753906 529.3125 350.597656 530.292969 C 350.785156 530.523438 350.921875 530.78125 351.007812 531.066406 C 351.089844 531.351562 351.117188 531.644531 351.089844 531.941406 C 351.058594 532.238281 350.972656 532.515625 350.828125 532.777344 C 350.6875 533.042969 350.5 533.265625 350.269531 533.453125 Z M 106.746094 709.425781 C 106.355469 709.703125 105.921875 709.84375 105.445312 709.847656 C 104.96875 709.847656 104.53125 709.714844 104.140625 709.441406 C 103.746094 709.167969 103.46875 708.804688 103.308594 708.355469 C 103.144531 707.90625 103.125 707.453125 103.253906 706.992188 C 104.222656 703.5625 105.238281 700.074219 106.273438 696.632812 C 106.359375 696.347656 106.5 696.089844 106.6875 695.859375 C 106.878906 695.628906 107.105469 695.445312 107.371094 695.304688 C 107.632812 695.164062 107.914062 695.082031 108.210938 695.054688 C 108.507812 695.023438 108.800781 695.054688 109.085938 695.144531 C 109.371094 695.230469 109.628906 695.371094 109.859375 695.558594 C 110.085938 695.75 110.273438 695.976562 110.410156 696.242188 C 110.550781 696.503906 110.632812 696.785156 110.664062 697.082031 C 110.691406 697.378906 110.660156 697.671875 110.570312 697.957031 C 109.546875 701.382812 108.542969 704.839844 107.582031 708.25 C 107.445312 708.742188 107.175781 709.144531 106.765625 709.453125 Z M 112.917969 688.832031 C 112.523438 689.121094 112.085938 689.269531 111.597656 689.269531 C 111.109375 689.273438 110.664062 689.132812 110.269531 688.847656 C 109.871094 688.5625 109.597656 688.1875 109.445312 687.722656 C 109.292969 687.257812 109.292969 686.792969 109.441406 686.332031 C 110.527344 682.925781 111.660156 679.480469 112.816406 676.09375 C 112.914062 675.808594 113.0625 675.550781 113.265625 675.324219 C 113.464844 675.097656 113.699219 674.917969 113.972656 674.789062 C 114.242188 674.65625 114.53125 674.582031 114.832031 674.5625 C 115.132812 674.542969 115.425781 674.585938 115.710938 674.683594 C 116 674.78125 116.253906 674.929688 116.480469 675.132812 C 116.707031 675.332031 116.886719 675.566406 117.015625 675.839844 C 117.148438 676.109375 117.226562 676.398438 117.242188 676.699219 C 117.261719 677 117.222656 677.292969 117.121094 677.578125 C 115.988281 680.949219 114.863281 684.371094 113.808594 687.773438 C 113.636719 688.226562 113.351562 688.589844 112.945312 688.855469 Z M 490.640625 410.925781 C 490.230469 411.222656 489.773438 411.363281 489.265625 411.351562 C 488.761719 411.339844 488.308594 411.175781 487.914062 410.859375 C 485.230469 408.726562 482.371094 406.863281 479.335938 405.269531 C 479.085938 405.121094 478.871094 404.9375 478.691406 404.707031 C 478.511719 404.476562 478.382812 404.222656 478.304688 403.945312 C 478.222656 403.667969 478.199219 403.382812 478.226562 403.09375 C 478.257812 402.804688 478.339844 402.535156 478.476562 402.277344 C 478.609375 402.019531 478.789062 401.796875 479.007812 401.609375 C 479.230469 401.421875 479.476562 401.28125 479.753906 401.191406 C 480.027344 401.097656 480.308594 401.0625 480.597656 401.078125 C 480.890625 401.09375 481.164062 401.167969 481.425781 401.289062 C 484.734375 403.011719 487.847656 405.039062 490.765625 407.363281 C 490.902344 407.46875 491.023438 407.59375 491.128906 407.730469 C 491.238281 407.863281 491.328125 408.011719 491.398438 408.167969 C 491.472656 408.324219 491.527344 408.488281 491.5625 408.65625 C 491.597656 408.828125 491.613281 408.996094 491.609375 409.171875 C 491.605469 409.34375 491.582031 409.515625 491.539062 409.679688 C 491.496094 409.847656 491.433594 410.007812 491.355469 410.164062 C 491.273438 410.316406 491.175781 410.457031 491.0625 410.589844 C 490.949219 410.71875 490.824219 410.835938 490.683594 410.9375 Z M 339.039062 515.304688 C 338.914062 515.398438 338.777344 515.476562 338.636719 515.546875 C 338.359375 515.667969 338.074219 515.734375 337.769531 515.742188 C 337.46875 515.746094 337.179688 515.695312 336.898438 515.585938 C 336.617188 515.476562 336.367188 515.320312 336.148438 515.109375 C 335.933594 514.902344 335.765625 514.660156 335.644531 514.382812 C 334.15625 511.039062 332.855469 507.625 331.738281 504.136719 C 331.640625 503.851562 331.605469 503.5625 331.628906 503.261719 C 331.648438 502.960938 331.726562 502.675781 331.863281 502.40625 C 332 502.140625 332.179688 501.90625 332.410156 501.710938 C 332.636719 501.515625 332.894531 501.375 333.183594 501.28125 C 333.46875 501.1875 333.761719 501.15625 334.0625 501.179688 C 334.363281 501.207031 334.644531 501.289062 334.910156 501.429688 C 335.179688 501.566406 335.40625 501.753906 335.601562 501.984375 C 335.792969 502.214844 335.933594 502.472656 336.019531 502.761719 C 337.09375 506.085938 338.34375 509.339844 339.777344 512.523438 C 339.886719 512.761719 339.953125 513.011719 339.976562 513.273438 C 340 513.535156 339.976562 513.792969 339.910156 514.046875 C 339.84375 514.300781 339.734375 514.535156 339.585938 514.753906 C 339.4375 514.96875 339.253906 515.152344 339.039062 515.304688 Z M 119.777344 668.511719 C 119.375 668.792969 118.925781 668.929688 118.433594 668.921875 C 117.945312 668.910156 117.503906 668.757812 117.109375 668.460938 C 116.71875 668.164062 116.453125 667.777344 116.3125 667.308594 C 116.171875 666.835938 116.183594 666.367188 116.347656 665.90625 C 117.546875 662.566406 118.785156 659.152344 120.046875 655.777344 C 120.152344 655.496094 120.304688 655.25 120.507812 655.03125 C 120.710938 654.8125 120.949219 654.640625 121.21875 654.519531 C 121.492188 654.394531 121.777344 654.328125 122.074219 654.316406 C 122.375 654.304688 122.664062 654.351562 122.941406 654.457031 C 123.222656 654.5625 123.46875 654.714844 123.6875 654.917969 C 123.90625 655.121094 124.078125 655.359375 124.203125 655.632812 C 124.324219 655.902344 124.390625 656.1875 124.402344 656.488281 C 124.414062 656.785156 124.367188 657.074219 124.261719 657.351562 C 123.007812 660.710938 121.777344 664.097656 120.59375 667.414062 C 120.445312 667.855469 120.179688 668.214844 119.804688 668.488281 Z M 471.847656 400.921875 C 471.550781 401.136719 471.222656 401.269531 470.859375 401.324219 C 470.496094 401.378906 470.140625 401.351562 469.792969 401.234375 C 466.492188 400.105469 463.132812 399.183594 459.71875 398.464844 C 459.414062 398.417969 459.128906 398.3125 458.867188 398.148438 C 458.605469 397.984375 458.386719 397.773438 458.210938 397.519531 C 458.035156 397.265625 457.914062 396.984375 457.855469 396.683594 C 457.792969 396.378906 457.796875 396.078125 457.859375 395.773438 C 457.925781 395.472656 458.046875 395.195312 458.226562 394.941406 C 458.40625 394.6875 458.625 394.480469 458.890625 394.320312 C 459.152344 394.160156 459.4375 394.058594 459.746094 394.015625 C 460.050781 393.96875 460.355469 393.988281 460.652344 394.070312 C 464.246094 394.824219 467.785156 395.792969 471.261719 396.972656 C 471.65625 397.109375 471.988281 397.332031 472.257812 397.652344 C 472.523438 397.96875 472.691406 398.335938 472.757812 398.746094 C 472.824219 399.15625 472.777344 399.554688 472.621094 399.941406 C 472.464844 400.328125 472.21875 400.644531 471.882812 400.894531 Z M 127.335938 648.355469 C 126.929688 648.648438 126.480469 648.789062 125.980469 648.78125 C 125.484375 648.773438 125.039062 648.617188 124.644531 648.3125 C 124.25 648.011719 123.984375 647.617188 123.851562 647.136719 C 123.714844 646.660156 123.738281 646.1875 123.917969 645.722656 C 125.234375 642.386719 126.582031 639.023438 127.953125 635.71875 C 128.066406 635.441406 128.226562 635.199219 128.4375 634.988281 C 128.648438 634.773438 128.890625 634.613281 129.167969 634.496094 C 129.441406 634.382812 129.730469 634.324219 130.027344 634.324219 C 130.328125 634.324219 130.613281 634.378906 130.890625 634.496094 C 131.164062 634.609375 131.410156 634.769531 131.621094 634.980469 C 131.832031 635.191406 131.996094 635.433594 132.109375 635.710938 C 132.222656 635.984375 132.28125 636.273438 132.28125 636.570312 C 132.28125 636.871094 132.226562 637.15625 132.113281 637.433594 C 130.753906 640.722656 129.40625 644.058594 128.105469 647.363281 C 127.945312 647.769531 127.691406 648.101562 127.335938 648.355469 Z M 332.484375 494.910156 C 332.230469 495.089844 331.949219 495.214844 331.640625 495.277344 C 331.347656 495.339844 331.054688 495.34375 330.761719 495.289062 C 330.46875 495.234375 330.195312 495.128906 329.945312 494.964844 C 329.695312 494.804688 329.488281 494.597656 329.316406 494.351562 C 329.148438 494.109375 329.03125 493.839844 328.96875 493.546875 C 328.214844 490.058594 327.609375 486.4375 327.160156 482.773438 C 327.109375 482.46875 327.117188 482.167969 327.191406 481.871094 C 327.261719 481.574219 327.390625 481.300781 327.574219 481.054688 C 327.757812 480.808594 327.980469 480.609375 328.246094 480.453125 C 328.511719 480.300781 328.796875 480.203125 329.101562 480.167969 C 329.40625 480.128906 329.707031 480.152344 330 480.238281 C 330.296875 480.324219 330.5625 480.464844 330.800781 480.65625 C 331.039062 480.851562 331.226562 481.082031 331.371094 481.355469 C 331.511719 481.628906 331.59375 481.917969 331.621094 482.222656 C 332.058594 485.75 332.660156 489.253906 333.371094 492.605469 C 333.464844 493.042969 333.429688 493.472656 333.269531 493.890625 C 333.109375 494.308594 332.847656 494.648438 332.484375 494.910156 Z M 135.546875 628.507812 C 135.347656 628.652344 135.128906 628.761719 134.894531 628.835938 C 134.660156 628.914062 134.417969 628.945312 134.167969 628.941406 C 133.921875 628.9375 133.679688 628.890625 133.449219 628.804688 C 133.214844 628.722656 133.003906 628.601562 132.808594 628.445312 C 132.617188 628.292969 132.453125 628.109375 132.320312 627.902344 C 132.1875 627.691406 132.089844 627.46875 132.03125 627.226562 C 131.972656 626.984375 131.953125 626.742188 131.976562 626.496094 C 132 626.25 132.058594 626.011719 132.160156 625.785156 C 133.613281 622.503906 135.09375 619.203125 136.535156 615.933594 C 136.65625 615.660156 136.828125 615.421875 137.046875 615.21875 C 137.265625 615.015625 137.511719 614.863281 137.792969 614.757812 C 138.070312 614.652344 138.359375 614.605469 138.65625 614.617188 C 138.957031 614.628906 139.242188 614.695312 139.511719 614.816406 C 139.785156 614.941406 140.019531 615.109375 140.226562 615.328125 C 140.429688 615.546875 140.582031 615.792969 140.6875 616.074219 C 140.792969 616.351562 140.839844 616.640625 140.832031 616.9375 C 140.820312 617.234375 140.757812 617.519531 140.632812 617.792969 C 139.171875 621 137.703125 624.292969 136.28125 627.574219 C 136.125 627.953125 135.878906 628.261719 135.546875 628.507812 Z M 450.898438 396.351562 C 450.425781 396.695312 449.898438 396.832031 449.320312 396.765625 C 445.964844 396.378906 442.425781 396.113281 438.796875 395.96875 C 438.496094 395.964844 438.207031 395.898438 437.929688 395.777344 C 437.65625 395.65625 437.414062 395.484375 437.207031 395.265625 C 437 395.042969 436.84375 394.792969 436.738281 394.511719 C 436.632812 394.230469 436.585938 393.9375 436.59375 393.636719 C 436.605469 393.335938 436.675781 393.046875 436.804688 392.773438 C 436.929688 392.5 437.105469 392.261719 437.328125 392.058594 C 437.550781 391.855469 437.804688 391.703125 438.089844 391.601562 C 438.371094 391.5 438.664062 391.457031 438.964844 391.472656 C 442.710938 391.625 446.367188 391.894531 449.839844 392.292969 C 450.300781 392.347656 450.707031 392.527344 451.058594 392.832031 C 451.40625 393.136719 451.640625 393.511719 451.757812 393.960938 C 451.875 394.410156 451.855469 394.855469 451.699219 395.289062 C 451.542969 395.726562 451.273438 396.082031 450.898438 396.351562 Z M 144.457031 608.953125 C 144.253906 609.101562 144.03125 609.210938 143.792969 609.285156 C 143.554688 609.359375 143.308594 609.390625 143.058594 609.382812 C 142.808594 609.375 142.566406 609.324219 142.332031 609.238281 C 142.097656 609.148438 141.882812 609.023438 141.691406 608.863281 C 141.5 608.703125 141.335938 608.515625 141.207031 608.300781 C 141.078125 608.085938 140.984375 607.859375 140.933594 607.613281 C 140.878906 607.367188 140.867188 607.121094 140.898438 606.871094 C 140.925781 606.625 140.996094 606.386719 141.101562 606.160156 C 142.664062 602.902344 144.253906 599.644531 145.84375 596.472656 C 145.984375 596.222656 146.167969 596.003906 146.394531 595.820312 C 146.621094 595.636719 146.871094 595.503906 147.148438 595.417969 C 147.425781 595.332031 147.710938 595.300781 148 595.324219 C 148.289062 595.351562 148.5625 595.425781 148.824219 595.558594 C 149.082031 595.6875 149.308594 595.863281 149.5 596.082031 C 149.691406 596.296875 149.835938 596.542969 149.933594 596.816406 C 150.027344 597.09375 150.070312 597.375 150.058594 597.664062 C 150.046875 597.953125 149.980469 598.230469 149.859375 598.496094 C 148.28125 601.632812 146.707031 604.871094 145.164062 608.105469 C 144.996094 608.445312 144.761719 608.726562 144.457031 608.953125 Z M 329.792969 473.648438 C 329.429688 473.914062 329.023438 474.058594 328.574219 474.078125 C 328.273438 474.09375 327.984375 474.046875 327.703125 473.945312 C 327.421875 473.84375 327.171875 473.691406 326.953125 473.488281 C 326.734375 473.285156 326.5625 473.050781 326.433594 472.777344 C 326.308594 472.507812 326.242188 472.222656 326.226562 471.921875 C 326.078125 468.363281 326.058594 464.695312 326.175781 461.027344 C 326.183594 460.730469 326.25 460.445312 326.375 460.171875 C 326.496094 459.898438 326.667969 459.660156 326.886719 459.457031 C 327.101562 459.25 327.351562 459.097656 327.628906 458.992188 C 327.910156 458.886719 328.199219 458.839844 328.496094 458.847656 C 328.796875 458.859375 329.082031 458.925781 329.355469 459.046875 C 329.625 459.171875 329.863281 459.339844 330.066406 459.558594 C 330.273438 459.777344 330.425781 460.027344 330.53125 460.304688 C 330.636719 460.585938 330.683594 460.875 330.675781 461.171875 C 330.554688 464.730469 330.578125 468.285156 330.722656 471.738281 C 330.738281 472.109375 330.664062 472.460938 330.507812 472.792969 C 330.347656 473.128906 330.121094 473.40625 329.824219 473.625 Z M 429.453125 395.496094 C 429.074219 395.769531 428.648438 395.914062 428.179688 395.917969 C 424.746094 396 421.1875 396.183594 417.574219 396.449219 C 417.269531 396.488281 416.96875 396.46875 416.671875 396.382812 C 416.371094 396.300781 416.105469 396.160156 415.863281 395.964844 C 415.625 395.769531 415.433594 395.535156 415.289062 395.261719 C 415.148438 394.988281 415.0625 394.699219 415.039062 394.390625 C 415.015625 394.082031 415.054688 393.78125 415.15625 393.488281 C 415.253906 393.199219 415.410156 392.9375 415.617188 392.707031 C 415.824219 392.480469 416.070312 392.300781 416.351562 392.171875 C 416.632812 392.042969 416.925781 391.976562 417.234375 391.96875 C 420.925781 391.691406 424.5625 391.507812 428.074219 391.425781 C 428.566406 391.410156 429.015625 391.546875 429.417969 391.828125 C 429.824219 392.109375 430.105469 392.484375 430.261719 392.953125 C 430.421875 393.417969 430.425781 393.886719 430.273438 394.355469 C 430.125 394.828125 429.851562 395.207031 429.453125 395.496094 Z M 154.082031 589.746094 C 153.875 589.894531 153.652344 590.003906 153.410156 590.078125 C 153.164062 590.152344 152.917969 590.183594 152.664062 590.171875 C 152.410156 590.160156 152.164062 590.109375 151.929688 590.015625 C 151.695312 589.921875 151.480469 589.792969 151.289062 589.628906 C 151.097656 589.460938 150.9375 589.269531 150.808594 589.050781 C 150.683594 588.828125 150.597656 588.59375 150.546875 588.34375 C 150.5 588.097656 150.496094 587.847656 150.53125 587.59375 C 150.570312 587.34375 150.648438 587.105469 150.765625 586.882812 C 152.433594 583.699219 154.152344 580.503906 155.878906 577.382812 C 156.019531 577.121094 156.210938 576.898438 156.441406 576.710938 C 156.675781 576.523438 156.9375 576.390625 157.222656 576.304688 C 157.511719 576.222656 157.800781 576.199219 158.097656 576.230469 C 158.394531 576.265625 158.675781 576.355469 158.9375 576.5 C 159.199219 576.644531 159.421875 576.832031 159.609375 577.066406 C 159.792969 577.296875 159.929688 577.558594 160.011719 577.847656 C 160.09375 578.132812 160.117188 578.425781 160.085938 578.722656 C 160.050781 579.019531 159.960938 579.296875 159.816406 579.558594 C 158.117188 582.652344 156.402344 585.820312 154.746094 588.972656 C 154.585938 589.285156 154.363281 589.542969 154.082031 589.746094 Z M 408.074219 397.058594 C 407.757812 397.285156 407.40625 397.417969 407.023438 397.464844 C 403.601562 397.871094 400.058594 398.367188 396.472656 398.925781 C 396.183594 398.960938 395.898438 398.9375 395.617188 398.859375 C 395.339844 398.785156 395.082031 398.65625 394.851562 398.480469 C 394.621094 398.304688 394.433594 398.09375 394.28125 397.84375 C 394.132812 397.597656 394.039062 397.328125 393.992188 397.042969 C 393.945312 396.753906 393.957031 396.472656 394.019531 396.1875 C 394.085938 395.90625 394.203125 395.644531 394.367188 395.40625 C 394.53125 395.167969 394.738281 394.96875 394.980469 394.808594 C 395.222656 394.652344 395.484375 394.542969 395.769531 394.484375 C 399.410156 393.910156 403.019531 393.410156 406.492188 393 C 406.738281 392.972656 406.984375 392.984375 407.230469 393.035156 C 407.472656 393.089844 407.699219 393.179688 407.914062 393.308594 C 408.128906 393.433594 408.316406 393.59375 408.476562 393.785156 C 408.636719 393.976562 408.761719 394.1875 408.851562 394.417969 C 408.941406 394.652344 408.992188 394.890625 409.003906 395.140625 C 409.011719 395.390625 408.984375 395.632812 408.914062 395.871094 C 408.84375 396.109375 408.734375 396.332031 408.589844 396.535156 C 408.449219 396.738281 408.273438 396.914062 408.074219 397.058594 Z M 330.480469 452.195312 C 330.121094 452.457031 329.722656 452.601562 329.277344 452.625 C 328.835938 452.648438 328.421875 452.550781 328.035156 452.328125 C 327.652344 452.109375 327.359375 451.800781 327.15625 451.40625 C 326.953125 451.007812 326.878906 450.589844 326.925781 450.148438 C 327.261719 446.566406 327.757812 442.96875 328.355469 439.363281 C 328.410156 439.074219 328.515625 438.804688 328.671875 438.554688 C 328.832031 438.308594 329.03125 438.097656 329.273438 437.929688 C 329.515625 437.757812 329.78125 437.640625 330.066406 437.574219 C 330.355469 437.507812 330.644531 437.5 330.9375 437.546875 C 331.226562 437.597656 331.5 437.699219 331.75 437.851562 C 332 438.007812 332.214844 438.203125 332.386719 438.445312 C 332.5625 438.683594 332.683594 438.945312 332.753906 439.230469 C 332.824219 439.519531 332.835938 439.808594 332.792969 440.101562 C 332.21875 443.609375 331.746094 447.136719 331.398438 450.59375 C 331.335938 451.265625 331.027344 451.800781 330.480469 452.195312 Z M 164.453125 570.9375 C 164.246094 571.089844 164.015625 571.203125 163.769531 571.277344 C 163.523438 571.347656 163.269531 571.378906 163.011719 571.363281 C 162.753906 571.347656 162.503906 571.292969 162.265625 571.191406 C 162.027344 571.09375 161.8125 570.957031 161.621094 570.785156 C 161.433594 570.609375 161.273438 570.410156 161.152344 570.183594 C 161.03125 569.957031 160.949219 569.714844 160.910156 569.457031 C 160.871094 569.203125 160.875 568.949219 160.925781 568.695312 C 160.972656 568.441406 161.0625 568.203125 161.191406 567.980469 C 162.992188 564.871094 164.84375 561.753906 166.695312 558.710938 C 166.839844 558.441406 167.035156 558.210938 167.277344 558.019531 C 167.519531 557.828125 167.789062 557.691406 168.085938 557.613281 C 168.382812 557.535156 168.683594 557.515625 168.988281 557.558594 C 169.292969 557.601562 169.578125 557.707031 169.839844 557.867188 C 170.105469 558.027344 170.324219 558.230469 170.503906 558.484375 C 170.683594 558.734375 170.804688 559.011719 170.867188 559.3125 C 170.933594 559.613281 170.9375 559.914062 170.878906 560.214844 C 170.820312 560.519531 170.703125 560.796875 170.53125 561.050781 C 168.699219 564.074219 166.863281 567.164062 165.078125 570.25 C 164.917969 570.523438 164.710938 570.753906 164.453125 570.9375 Z M 386.875 400.371094 C 386.605469 400.566406 386.304688 400.695312 385.976562 400.757812 C 382.554688 401.40625 379.039062 402.136719 375.527344 402.910156 C 375.230469 402.984375 374.933594 402.996094 374.632812 402.953125 C 374.332031 402.90625 374.050781 402.800781 373.792969 402.640625 C 373.535156 402.480469 373.316406 402.277344 373.140625 402.03125 C 372.964844 401.78125 372.84375 401.507812 372.777344 401.210938 C 372.714844 400.914062 372.707031 400.617188 372.765625 400.316406 C 372.820312 400.019531 372.929688 399.742188 373.097656 399.488281 C 373.265625 399.234375 373.476562 399.023438 373.730469 398.855469 C 373.984375 398.6875 374.261719 398.574219 374.558594 398.515625 C 378.113281 397.726562 381.667969 397 385.15625 396.378906 C 385.40625 396.332031 385.65625 396.328125 385.910156 396.367188 C 386.160156 396.40625 386.402344 396.484375 386.625 396.601562 C 386.851562 396.722656 387.050781 396.875 387.222656 397.0625 C 387.398438 397.25 387.535156 397.460938 387.636719 397.695312 C 387.738281 397.929688 387.796875 398.175781 387.816406 398.429688 C 387.835938 398.683594 387.808594 398.933594 387.742188 399.179688 C 387.675781 399.425781 387.570312 399.65625 387.425781 399.863281 C 387.28125 400.074219 387.105469 400.253906 386.902344 400.40625 Z M 175.613281 552.585938 C 175.402344 552.742188 175.167969 552.855469 174.917969 552.929688 C 174.664062 553 174.40625 553.03125 174.144531 553.011719 C 173.882812 552.996094 173.632812 552.9375 173.390625 552.832031 C 173.152344 552.726562 172.933594 552.585938 172.746094 552.40625 C 172.554688 552.222656 172.398438 552.015625 172.28125 551.78125 C 172.160156 551.546875 172.085938 551.300781 172.054688 551.039062 C 172.023438 550.78125 172.035156 550.523438 172.09375 550.265625 C 172.152344 550.011719 172.253906 549.773438 172.394531 549.550781 C 174.332031 546.519531 176.320312 543.484375 178.308594 540.527344 C 178.476562 540.277344 178.683594 540.070312 178.929688 539.90625 C 179.179688 539.742188 179.449219 539.628906 179.746094 539.570312 C 180.039062 539.511719 180.332031 539.511719 180.625 539.574219 C 180.917969 539.632812 181.1875 539.746094 181.433594 539.910156 C 181.683594 540.078125 181.890625 540.285156 182.054688 540.535156 C 182.222656 540.785156 182.332031 541.054688 182.390625 541.347656 C 182.445312 541.640625 182.445312 541.933594 182.386719 542.226562 C 182.328125 542.519531 182.214844 542.789062 182.046875 543.039062 C 180.070312 545.964844 178.105469 548.972656 176.1875 551.980469 C 176.035156 552.21875 175.84375 552.421875 175.613281 552.585938 Z M 333.957031 431.03125 C 333.578125 431.308594 333.15625 431.453125 332.6875 431.464844 C 332.21875 431.472656 331.789062 431.351562 331.398438 431.09375 C 331.007812 430.835938 330.722656 430.488281 330.546875 430.054688 C 330.375 429.621094 330.335938 429.175781 330.441406 428.71875 C 331.238281 425.222656 332.132812 421.691406 333.128906 418.199219 C 333.207031 417.90625 333.339844 417.640625 333.523438 417.402344 C 333.707031 417.164062 333.929688 416.96875 334.191406 416.820312 C 334.453125 416.667969 334.734375 416.578125 335.035156 416.539062 C 335.332031 416.503906 335.628906 416.527344 335.917969 416.609375 C 336.207031 416.691406 336.472656 416.828125 336.707031 417.015625 C 336.945312 417.203125 337.132812 417.429688 337.277344 417.695312 C 337.421875 417.957031 337.511719 418.242188 337.542969 418.539062 C 337.574219 418.839844 337.546875 419.136719 337.460938 419.425781 C 336.484375 422.84375 335.613281 426.328125 334.832031 429.707031 C 334.707031 430.257812 334.414062 430.699219 333.957031 431.03125 Z M 187.59375 534.769531 C 187.378906 534.925781 187.144531 535.042969 186.886719 535.113281 C 186.628906 535.1875 186.367188 535.214844 186.101562 535.195312 C 185.835938 535.175781 185.582031 535.109375 185.335938 535 C 185.09375 534.886719 184.878906 534.738281 184.6875 534.550781 C 184.5 534.363281 184.347656 534.148438 184.234375 533.90625 C 184.121094 533.664062 184.050781 533.410156 184.027344 533.144531 C 184.003906 532.878906 184.027344 532.617188 184.097656 532.359375 C 184.167969 532.101562 184.28125 531.863281 184.4375 531.648438 C 186.511719 528.714844 188.644531 525.773438 190.78125 522.910156 C 190.953125 522.65625 191.167969 522.445312 191.425781 522.277344 C 191.6875 522.113281 191.964844 522.003906 192.269531 521.949219 C 192.574219 521.898438 192.875 521.910156 193.171875 521.984375 C 193.472656 522.054688 193.746094 522.183594 193.992188 522.367188 C 194.238281 522.550781 194.4375 522.777344 194.59375 523.042969 C 194.746094 523.308594 194.84375 523.59375 194.878906 523.898438 C 194.914062 524.207031 194.890625 524.503906 194.804688 524.800781 C 194.71875 525.097656 194.578125 525.363281 194.382812 525.601562 C 192.269531 528.433594 190.167969 531.34375 188.117188 534.246094 C 187.96875 534.445312 187.792969 534.617188 187.589844 534.761719 Z M 365.914062 404.988281 C 365.679688 405.15625 365.421875 405.277344 365.140625 405.347656 C 361.714844 406.203125 358.261719 407.144531 354.867188 408.140625 C 354.582031 408.226562 354.289062 408.25 353.992188 408.21875 C 353.699219 408.183594 353.417969 408.097656 353.15625 407.953125 C 352.894531 407.808594 352.671875 407.621094 352.484375 407.390625 C 352.296875 407.15625 352.164062 406.898438 352.078125 406.609375 C 351.996094 406.324219 351.96875 406.03125 352.003906 405.734375 C 352.035156 405.441406 352.121094 405.160156 352.265625 404.898438 C 352.410156 404.636719 352.597656 404.414062 352.828125 404.226562 C 353.0625 404.039062 353.320312 403.902344 353.605469 403.820312 C 357.050781 402.820312 360.558594 401.859375 364.042969 400.988281 C 364.292969 400.921875 364.550781 400.90625 364.8125 400.929688 C 365.070312 400.957031 365.320312 401.023438 365.554688 401.136719 C 365.792969 401.25 366 401.398438 366.1875 401.582031 C 366.371094 401.769531 366.519531 401.980469 366.628906 402.214844 C 366.738281 402.453125 366.804688 402.699219 366.832031 402.960938 C 366.855469 403.222656 366.835938 403.476562 366.769531 403.730469 C 366.703125 403.984375 366.597656 404.21875 366.453125 404.433594 C 366.304688 404.648438 366.125 404.835938 365.914062 404.988281 Z M 200.421875 517.550781 C 200.203125 517.710938 199.960938 517.828125 199.699219 517.902344 C 199.4375 517.976562 199.171875 518.003906 198.898438 517.980469 C 198.625 517.957031 198.367188 517.886719 198.121094 517.769531 C 197.875 517.652344 197.65625 517.496094 197.46875 517.296875 C 197.28125 517.101562 197.132812 516.878906 197.023438 516.628906 C 196.914062 516.375 196.855469 516.113281 196.84375 515.84375 C 196.832031 515.570312 196.867188 515.304688 196.949219 515.042969 C 197.035156 514.785156 197.160156 514.546875 197.332031 514.335938 C 199.566406 511.5 201.847656 508.671875 204.117188 505.933594 C 204.308594 505.703125 204.535156 505.519531 204.800781 505.378906 C 205.066406 505.242188 205.347656 505.160156 205.644531 505.132812 C 205.941406 505.105469 206.230469 505.132812 206.515625 505.222656 C 206.800781 505.3125 207.058594 505.453125 207.289062 505.644531 C 207.519531 505.832031 207.703125 506.0625 207.839844 506.324219 C 207.980469 506.589844 208.0625 506.871094 208.089844 507.167969 C 208.117188 507.464844 208.085938 507.757812 208 508.042969 C 207.910156 508.328125 207.769531 508.582031 207.578125 508.8125 C 205.355469 511.539062 203.074219 514.3125 200.875 517.113281 C 200.742188 517.277344 200.589844 517.421875 200.417969 517.542969 Z M 345.324219 411.003906 C 345.140625 411.144531 344.9375 411.25 344.71875 411.320312 C 341.367188 412.445312 337.992188 413.652344 334.695312 414.902344 C 334.417969 415.007812 334.128906 415.054688 333.828125 415.046875 C 333.53125 415.035156 333.246094 414.96875 332.972656 414.847656 C 332.703125 414.722656 332.464844 414.554688 332.257812 414.335938 C 332.054688 414.117188 331.898438 413.871094 331.792969 413.589844 C 331.6875 413.3125 331.640625 413.023438 331.648438 412.722656 C 331.660156 412.425781 331.726562 412.140625 331.847656 411.867188 C 331.96875 411.597656 332.140625 411.359375 332.359375 411.152344 C 332.574219 410.949219 332.824219 410.792969 333.101562 410.6875 C 334.203125 410.277344 335.320312 409.851562 336.441406 409.449219 C 336.214844 408.921875 336.195312 408.386719 336.386719 407.84375 C 337.550781 404.453125 338.820312 401.027344 340.132812 397.691406 C 340.25 397.425781 340.414062 397.191406 340.625 396.988281 C 340.832031 396.785156 341.074219 396.628906 341.34375 396.519531 C 341.613281 396.410156 341.894531 396.351562 342.183594 396.351562 C 342.476562 396.351562 342.757812 396.40625 343.027344 396.511719 C 343.296875 396.621094 343.539062 396.777344 343.75 396.980469 C 343.960938 397.179688 344.125 397.414062 344.242188 397.679688 C 344.363281 397.945312 344.429688 398.226562 344.4375 398.515625 C 344.449219 398.808594 344.40625 399.089844 344.308594 399.363281 C 343.191406 402.144531 342.132812 404.972656 341.144531 407.792969 L 343.265625 407.070312 C 343.523438 406.988281 343.78125 406.953125 344.050781 406.960938 C 344.316406 406.972656 344.574219 407.027344 344.824219 407.128906 C 345.070312 407.230469 345.292969 407.371094 345.488281 407.550781 C 345.6875 407.730469 345.847656 407.941406 345.96875 408.179688 C 346.09375 408.417969 346.167969 408.667969 346.203125 408.933594 C 346.234375 409.199219 346.222656 409.460938 346.160156 409.722656 C 346.097656 409.984375 345.996094 410.226562 345.847656 410.449219 C 345.699219 410.671875 345.519531 410.863281 345.304688 411.019531 Z M 214.140625 501.019531 C 213.917969 501.183594 213.671875 501.300781 213.40625 501.375 C 213.136719 501.445312 212.863281 501.46875 212.589844 501.441406 C 212.3125 501.414062 212.050781 501.335938 211.804688 501.210938 C 211.554688 501.085938 211.339844 500.921875 211.152344 500.71875 C 210.964844 500.511719 210.820312 500.28125 210.71875 500.023438 C 210.621094 499.765625 210.566406 499.5 210.566406 499.222656 C 210.5625 498.945312 210.609375 498.675781 210.707031 498.414062 C 210.804688 498.15625 210.945312 497.921875 211.128906 497.714844 C 213.5 495.011719 215.9375 492.316406 218.367188 489.707031 C 218.570312 489.484375 218.804688 489.3125 219.074219 489.1875 C 219.347656 489.0625 219.628906 488.992188 219.929688 488.980469 C 220.226562 488.964844 220.515625 489.011719 220.792969 489.113281 C 221.074219 489.214844 221.324219 489.367188 221.542969 489.566406 C 221.765625 489.769531 221.9375 490.003906 222.0625 490.273438 C 222.191406 490.542969 222.261719 490.828125 222.273438 491.125 C 222.285156 491.425781 222.242188 491.714844 222.140625 491.992188 C 222.039062 492.273438 221.890625 492.523438 221.6875 492.742188 C 219.292969 495.328125 216.890625 497.988281 214.539062 500.664062 C 214.417969 500.796875 214.285156 500.910156 214.136719 501.011719 Z M 325.269531 418.613281 C 325.128906 418.710938 324.980469 418.792969 324.824219 418.859375 C 321.585938 420.234375 318.320312 421.695312 315.109375 423.203125 C 314.84375 423.320312 314.5625 423.382812 314.269531 423.386719 C 313.980469 423.394531 313.695312 423.347656 313.421875 423.246094 C 313.152344 423.140625 312.90625 422.992188 312.691406 422.792969 C 312.476562 422.59375 312.308594 422.363281 312.183594 422.101562 C 312.058594 421.835938 311.988281 421.558594 311.972656 421.265625 C 311.953125 420.976562 311.992188 420.691406 312.085938 420.414062 C 312.179688 420.136719 312.324219 419.890625 312.515625 419.667969 C 312.707031 419.449219 312.929688 419.269531 313.191406 419.136719 C 316.457031 417.597656 319.777344 416.109375 323.0625 414.722656 C 323.320312 414.613281 323.585938 414.550781 323.863281 414.539062 C 324.140625 414.527344 324.410156 414.566406 324.671875 414.652344 C 324.9375 414.742188 325.175781 414.875 325.390625 415.050781 C 325.601562 415.226562 325.777344 415.4375 325.914062 415.675781 C 326.050781 415.917969 326.140625 416.175781 326.183594 416.453125 C 326.222656 416.726562 326.214844 417 326.15625 417.269531 C 326.097656 417.542969 325.988281 417.792969 325.835938 418.023438 C 325.683594 418.257812 325.496094 418.453125 325.269531 418.613281 Z M 228.761719 485.300781 C 228.535156 485.496094 228.277344 485.640625 227.992188 485.730469 C 227.710938 485.824219 227.417969 485.859375 227.121094 485.835938 C 226.820312 485.8125 226.539062 485.734375 226.273438 485.597656 C 226.003906 485.460938 225.773438 485.28125 225.582031 485.054688 C 225.386719 484.828125 225.242188 484.570312 225.148438 484.285156 C 225.058594 484.003906 225.023438 483.710938 225.042969 483.414062 C 225.066406 483.113281 225.148438 482.832031 225.28125 482.566406 C 225.417969 482.300781 225.597656 482.066406 225.824219 481.875 C 228.386719 479.277344 230.953125 476.757812 233.53125 474.304688 C 233.75 474.097656 233.996094 473.941406 234.277344 473.832031 C 234.558594 473.722656 234.851562 473.675781 235.152344 473.683594 C 235.453125 473.691406 235.742188 473.753906 236.015625 473.875 C 236.289062 474 236.53125 474.167969 236.738281 474.386719 C 236.945312 474.605469 237.105469 474.855469 237.210938 475.136719 C 237.320312 475.417969 237.371094 475.707031 237.363281 476.007812 C 237.355469 476.3125 237.289062 476.597656 237.167969 476.875 C 237.042969 477.148438 236.875 477.390625 236.65625 477.597656 C 234.113281 480.023438 231.558594 482.535156 229.050781 485.070312 Z M 305.855469 427.75 C 305.769531 427.820312 305.679688 427.886719 305.585938 427.945312 C 302.46875 429.566406 299.324219 431.269531 296.230469 433.027344 C 295.96875 433.175781 295.691406 433.269531 295.394531 433.308594 C 295.09375 433.34375 294.800781 433.324219 294.511719 433.246094 C 294.222656 433.164062 293.957031 433.03125 293.722656 432.847656 C 293.484375 432.664062 293.292969 432.441406 293.144531 432.179688 C 292.996094 431.917969 292.902344 431.640625 292.863281 431.339844 C 292.828125 431.042969 292.847656 430.75 292.929688 430.460938 C 293.007812 430.171875 293.140625 429.90625 293.324219 429.671875 C 293.511719 429.433594 293.734375 429.242188 293.996094 429.09375 C 297.144531 427.304688 300.347656 425.589844 303.496094 423.933594 C 303.75 423.777344 304.023438 423.675781 304.320312 423.625 C 304.613281 423.578125 304.90625 423.589844 305.199219 423.65625 C 305.492188 423.726562 305.757812 423.847656 306 424.023438 C 306.242188 424.195312 306.445312 424.410156 306.601562 424.664062 C 306.757812 424.917969 306.859375 425.195312 306.910156 425.488281 C 306.957031 425.785156 306.949219 426.078125 306.878906 426.371094 C 306.8125 426.660156 306.6875 426.929688 306.515625 427.171875 C 306.339844 427.414062 306.125 427.613281 305.871094 427.769531 Z M 244.316406 470.503906 C 244.085938 470.691406 243.824219 470.828125 243.539062 470.914062 C 243.253906 470.996094 242.960938 471.023438 242.664062 470.992188 C 242.367188 470.960938 242.085938 470.871094 241.824219 470.730469 C 241.5625 470.585938 241.335938 470.398438 241.148438 470.164062 C 240.960938 469.933594 240.828125 469.671875 240.742188 469.386719 C 240.660156 469.101562 240.632812 468.808594 240.664062 468.511719 C 240.695312 468.214844 240.785156 467.933594 240.925781 467.671875 C 241.070312 467.410156 241.257812 467.183594 241.492188 466.996094 C 244.191406 464.589844 246.921875 462.226562 249.699219 459.921875 C 249.925781 459.730469 250.183594 459.589844 250.46875 459.5 C 250.757812 459.414062 251.046875 459.382812 251.34375 459.410156 C 251.644531 459.4375 251.925781 459.519531 252.1875 459.660156 C 252.453125 459.796875 252.683594 459.984375 252.875 460.210938 C 253.0625 460.441406 253.203125 460.699219 253.292969 460.984375 C 253.382812 461.269531 253.414062 461.5625 253.386719 461.859375 C 253.359375 462.15625 253.273438 462.4375 253.136719 462.703125 C 252.996094 462.96875 252.8125 463.195312 252.582031 463.386719 C 249.882812 465.640625 247.171875 467.988281 244.519531 470.359375 Z M 287.203125 438.34375 L 287.0625 438.445312 C 284.070312 440.296875 281.058594 442.242188 278.109375 444.21875 C 277.859375 444.382812 277.589844 444.496094 277.296875 444.554688 C 277.003906 444.613281 276.710938 444.613281 276.417969 444.554688 C 276.125 444.496094 275.855469 444.386719 275.605469 444.21875 C 275.359375 444.054688 275.152344 443.847656 274.984375 443.601562 C 274.820312 443.351562 274.707031 443.082031 274.648438 442.789062 C 274.589844 442.496094 274.589844 442.203125 274.648438 441.910156 C 274.703125 441.617188 274.816406 441.347656 274.980469 441.097656 C 275.148438 440.851562 275.355469 440.644531 275.601562 440.476562 C 278.59375 438.46875 281.621094 436.515625 284.691406 434.617188 C 284.941406 434.449219 285.210938 434.335938 285.503906 434.277344 C 285.796875 434.21875 286.089844 434.21875 286.382812 434.273438 C 286.675781 434.332031 286.945312 434.441406 287.195312 434.609375 C 287.441406 434.773438 287.652344 434.980469 287.816406 435.226562 C 287.984375 435.476562 288.097656 435.746094 288.15625 436.039062 C 288.214844 436.332031 288.214844 436.621094 288.160156 436.914062 C 288.101562 437.207031 287.992188 437.480469 287.824219 437.730469 C 287.660156 437.976562 287.453125 438.183594 287.207031 438.351562 Z M 260.792969 456.742188 C 260.554688 456.921875 260.289062 457.050781 260 457.125 C 259.714844 457.199219 259.421875 457.214844 259.125 457.175781 C 258.832031 457.132812 258.554688 457.039062 258.296875 456.886719 C 258.039062 456.734375 257.820312 456.539062 257.640625 456.300781 C 257.460938 456.0625 257.335938 455.800781 257.261719 455.511719 C 257.183594 455.222656 257.167969 454.929688 257.210938 454.636719 C 257.25 454.339844 257.347656 454.0625 257.5 453.808594 C 257.648438 453.550781 257.84375 453.332031 258.082031 453.152344 C 260.800781 451.042969 263.574219 448.949219 266.339844 446.941406 L 266.726562 446.660156 C 266.964844 446.484375 267.230469 446.363281 267.523438 446.292969 C 267.8125 446.222656 268.105469 446.210938 268.398438 446.257812 C 268.695312 446.304688 268.96875 446.40625 269.222656 446.5625 C 269.476562 446.71875 269.691406 446.917969 269.867188 447.15625 C 270.042969 447.398438 270.164062 447.664062 270.234375 447.953125 C 270.304688 448.246094 270.316406 448.539062 270.269531 448.832031 C 270.222656 449.125 270.121094 449.402344 269.964844 449.65625 C 269.808594 449.910156 269.609375 450.125 269.371094 450.300781 L 268.984375 450.582031 C 266.261719 452.558594 263.523438 454.625 260.851562 456.703125 Z M 347.773438 390.460938 C 347.570312 390.609375 347.351562 390.71875 347.113281 390.792969 C 346.875 390.867188 346.632812 390.902344 346.382812 390.894531 C 346.136719 390.886719 345.894531 390.839844 345.660156 390.753906 C 345.425781 390.667969 345.214844 390.542969 345.019531 390.386719 C 344.828125 390.230469 344.667969 390.042969 344.535156 389.832031 C 344.402344 389.621094 344.308594 389.394531 344.253906 389.152344 C 344.199219 388.910156 344.183594 388.664062 344.207031 388.417969 C 344.234375 388.167969 344.296875 387.929688 344.402344 387.707031 C 345.847656 384.429688 347.449219 381.183594 349.101562 377.949219 C 349.253906 377.714844 349.445312 377.511719 349.667969 377.347656 C 349.894531 377.183594 350.144531 377.066406 350.414062 376.992188 C 350.683594 376.921875 350.960938 376.902344 351.238281 376.929688 C 351.515625 376.960938 351.78125 377.042969 352.027344 377.171875 C 352.277344 377.296875 352.492188 377.46875 352.679688 377.675781 C 352.863281 377.886719 353.003906 378.125 353.101562 378.386719 C 353.199219 378.648438 353.246094 378.917969 353.242188 379.199219 C 353.238281 379.480469 353.183594 379.75 353.082031 380.007812 C 351.464844 383.171875 349.925781 386.382812 348.457031 389.585938 C 348.300781 389.933594 348.070312 390.222656 347.765625 390.453125 Z M 357.496094 371.328125 C 357.285156 371.472656 357.058594 371.582031 356.816406 371.648438 C 356.570312 371.71875 356.320312 371.746094 356.066406 371.726562 C 355.8125 371.710938 355.566406 371.65625 355.332031 371.554688 C 355.097656 371.457031 354.886719 371.320312 354.699219 371.152344 C 354.507812 370.980469 354.351562 370.78125 354.230469 370.558594 C 354.109375 370.335938 354.027344 370.097656 353.988281 369.847656 C 353.945312 369.59375 353.949219 369.34375 353.992188 369.09375 C 354.035156 368.84375 354.121094 368.605469 354.246094 368.382812 C 356 365.273438 357.847656 362.136719 359.722656 359.085938 C 359.882812 358.832031 360.082031 358.617188 360.324219 358.441406 C 360.566406 358.269531 360.832031 358.148438 361.121094 358.078125 C 361.414062 358.011719 361.707031 358 362 358.050781 C 362.292969 358.097656 362.570312 358.199219 362.820312 358.359375 C 363.074219 358.515625 363.289062 358.714844 363.464844 358.957031 C 363.636719 359.199219 363.757812 359.464844 363.828125 359.757812 C 363.894531 360.046875 363.90625 360.339844 363.855469 360.632812 C 363.808594 360.929688 363.707031 361.203125 363.550781 361.457031 C 361.679688 364.472656 359.859375 367.550781 358.132812 370.609375 C 357.972656 370.898438 357.761719 371.136719 357.496094 371.328125 Z M 368.800781 353.101562 C 368.589844 353.257812 368.355469 353.371094 368.101562 353.445312 C 367.84375 353.519531 367.585938 353.546875 367.320312 353.527344 C 367.058594 353.511719 366.804688 353.449219 366.5625 353.339844 C 366.320312 353.234375 366.105469 353.089844 365.914062 352.902344 C 365.722656 352.71875 365.570312 352.507812 365.453125 352.273438 C 365.335938 352.035156 365.265625 351.78125 365.238281 351.519531 C 365.210938 351.257812 365.226562 350.996094 365.292969 350.738281 C 365.355469 350.480469 365.460938 350.242188 365.609375 350.023438 C 367.597656 347.066406 369.695312 344.085938 371.820312 341.164062 C 371.996094 340.921875 372.210938 340.722656 372.464844 340.570312 C 372.71875 340.414062 372.996094 340.3125 373.289062 340.265625 C 373.585938 340.21875 373.875 340.234375 374.167969 340.300781 C 374.457031 340.371094 374.722656 340.496094 374.964844 340.671875 C 375.203125 340.847656 375.402344 341.0625 375.558594 341.316406 C 375.714844 341.570312 375.816406 341.84375 375.859375 342.140625 C 375.90625 342.433594 375.894531 342.726562 375.828125 343.015625 C 375.757812 343.308594 375.632812 343.574219 375.457031 343.8125 C 373.367188 346.691406 371.304688 349.625 369.347656 352.535156 C 369.1875 352.746094 369 352.925781 368.78125 353.070312 Z M 381.433594 335.746094 C 381.214844 335.90625 380.972656 336.019531 380.710938 336.089844 C 380.453125 336.164062 380.1875 336.1875 379.917969 336.164062 C 379.648438 336.140625 379.390625 336.070312 379.148438 335.953125 C 378.902344 335.835938 378.6875 335.679688 378.5 335.484375 C 378.3125 335.289062 378.164062 335.070312 378.054688 334.820312 C 377.945312 334.574219 377.886719 334.316406 377.871094 334.046875 C 377.855469 333.773438 377.890625 333.511719 377.96875 333.253906 C 378.050781 332.996094 378.171875 332.757812 378.339844 332.546875 C 380.542969 329.730469 382.832031 326.910156 385.15625 324.152344 C 385.34375 323.914062 385.570312 323.71875 385.839844 323.570312 C 386.105469 323.421875 386.390625 323.328125 386.695312 323.296875 C 387 323.265625 387.296875 323.292969 387.589844 323.382812 C 387.882812 323.472656 388.144531 323.617188 388.378906 323.816406 C 388.613281 324.011719 388.800781 324.246094 388.9375 324.519531 C 389.078125 324.792969 389.15625 325.082031 389.175781 325.386719 C 389.195312 325.691406 389.15625 325.988281 389.054688 326.277344 C 388.953125 326.566406 388.800781 326.824219 388.59375 327.050781 C 386.335938 329.804688 384.0625 332.570312 381.851562 335.285156 C 381.722656 335.449219 381.578125 335.59375 381.410156 335.71875 Z M 395.238281 319.320312 C 395.011719 319.519531 394.761719 319.671875 394.476562 319.769531 C 394.195312 319.871094 393.902344 319.910156 393.605469 319.894531 C 393.304688 319.878906 393.019531 319.804688 392.75 319.675781 C 392.480469 319.546875 392.246094 319.371094 392.042969 319.148438 C 391.84375 318.925781 391.695312 318.671875 391.59375 318.390625 C 391.492188 318.105469 391.453125 317.816406 391.46875 317.515625 C 391.484375 317.21875 391.554688 316.933594 391.683594 316.664062 C 391.816406 316.390625 391.992188 316.15625 392.214844 315.957031 C 394.589844 313.304688 397.0625 310.640625 399.550781 308.035156 C 399.753906 307.816406 399.996094 307.648438 400.269531 307.527344 C 400.539062 307.40625 400.824219 307.34375 401.125 307.335938 C 401.421875 307.328125 401.710938 307.378906 401.988281 307.488281 C 402.269531 307.59375 402.515625 307.75 402.730469 307.957031 C 402.945312 308.164062 403.117188 308.402344 403.234375 308.675781 C 403.355469 308.949219 403.421875 309.234375 403.429688 309.53125 C 403.433594 309.832031 403.386719 310.117188 403.277344 310.398438 C 403.167969 310.675781 403.011719 310.921875 402.808594 311.140625 C 400.34375 313.71875 397.90625 316.347656 395.558594 318.964844 C 395.457031 319.085938 395.34375 319.195312 395.214844 319.292969 Z M 410.03125 303.765625 C 409.800781 303.957031 409.546875 304.101562 409.261719 304.191406 C 408.976562 304.285156 408.683594 304.316406 408.386719 304.292969 C 408.085938 304.265625 407.804688 304.1875 407.539062 304.050781 C 407.273438 303.910156 407.042969 303.730469 406.851562 303.5 C 406.65625 303.273438 406.515625 303.015625 406.425781 302.730469 C 406.332031 302.445312 406.300781 302.15625 406.324219 301.855469 C 406.351562 301.558594 406.429688 301.277344 406.566406 301.011719 C 406.707031 300.746094 406.886719 300.515625 407.117188 300.320312 C 409.652344 297.824219 412.277344 295.316406 414.914062 292.851562 C 415.136719 292.648438 415.386719 292.492188 415.667969 292.390625 C 415.949219 292.285156 416.242188 292.238281 416.542969 292.25 C 416.839844 292.261719 417.128906 292.328125 417.402344 292.453125 C 417.675781 292.578125 417.914062 292.753906 418.117188 292.972656 C 418.320312 293.191406 418.476562 293.445312 418.582031 293.726562 C 418.683594 294.007812 418.730469 294.296875 418.71875 294.597656 C 418.710938 294.898438 418.640625 295.1875 418.515625 295.460938 C 418.390625 295.730469 418.21875 295.972656 417.996094 296.175781 C 415.382812 298.597656 412.789062 301.070312 410.296875 303.550781 Z M 425.746094 289.144531 C 425.511719 289.328125 425.253906 289.464844 424.964844 289.546875 C 424.679688 289.628906 424.386719 289.65625 424.089844 289.621094 C 423.792969 289.589844 423.515625 289.5 423.253906 289.355469 C 422.992188 289.210938 422.765625 289.023438 422.582031 288.789062 C 422.394531 288.554688 422.257812 288.296875 422.175781 288.007812 C 422.09375 287.722656 422.070312 287.429688 422.101562 287.132812 C 422.136719 286.835938 422.222656 286.558594 422.367188 286.296875 C 422.511719 286.035156 422.699219 285.8125 422.933594 285.625 C 425.59375 283.28125 428.355469 280.917969 431.105469 278.574219 C 431.335938 278.382812 431.59375 278.242188 431.878906 278.15625 C 432.164062 278.066406 432.453125 278.035156 432.753906 278.0625 C 433.050781 278.089844 433.332031 278.171875 433.597656 278.3125 C 433.859375 278.449219 434.089844 278.636719 434.28125 278.867188 C 434.472656 279.09375 434.609375 279.351562 434.699219 279.636719 C 434.789062 279.921875 434.820312 280.214844 434.792969 280.511719 C 434.765625 280.8125 434.683594 281.09375 434.542969 281.355469 C 434.402344 281.621094 434.21875 281.847656 433.988281 282.039062 C 431.214844 284.347656 428.523438 286.65625 425.914062 289.019531 Z M 486.179688 244.640625 L 486.042969 244.742188 C 483.019531 246.613281 479.992188 248.535156 477.019531 250.464844 C 476.769531 250.625 476.496094 250.734375 476.203125 250.789062 C 475.910156 250.84375 475.617188 250.839844 475.324219 250.78125 C 475.03125 250.71875 474.761719 250.601562 474.515625 250.433594 C 474.269531 250.261719 474.0625 250.054688 473.902344 249.804688 C 473.738281 249.550781 473.628906 249.28125 473.574219 248.988281 C 473.519531 248.691406 473.523438 248.398438 473.585938 248.105469 C 473.648438 247.816406 473.765625 247.546875 473.933594 247.300781 C 474.101562 247.050781 474.3125 246.847656 474.5625 246.683594 C 477.585938 244.722656 480.632812 242.789062 483.695312 240.882812 C 483.945312 240.71875 484.214844 240.605469 484.507812 240.542969 C 484.800781 240.484375 485.09375 240.484375 485.386719 240.542969 C 485.679688 240.597656 485.949219 240.710938 486.199219 240.875 C 486.445312 241.039062 486.65625 241.246094 486.820312 241.496094 C 486.988281 241.742188 487.101562 242.011719 487.160156 242.304688 C 487.21875 242.597656 487.21875 242.890625 487.164062 243.183594 C 487.105469 243.476562 486.996094 243.746094 486.828125 243.996094 C 486.664062 244.246094 486.457031 244.453125 486.210938 244.617188 Z M 442.21875 275.394531 C 441.980469 275.574219 441.71875 275.699219 441.429688 275.777344 C 441.140625 275.851562 440.847656 275.867188 440.554688 275.828125 C 440.257812 275.789062 439.980469 275.691406 439.722656 275.539062 C 439.46875 275.390625 439.25 275.195312 439.066406 274.957031 C 438.886719 274.71875 438.761719 274.457031 438.683594 274.167969 C 438.609375 273.878906 438.589844 273.589844 438.632812 273.292969 C 438.671875 272.996094 438.769531 272.71875 438.917969 272.464844 C 439.070312 272.207031 439.265625 271.988281 439.5 271.804688 C 442.328125 269.574219 445.175781 267.371094 448.058594 265.210938 C 448.300781 265.035156 448.566406 264.914062 448.855469 264.84375 C 449.144531 264.773438 449.4375 264.761719 449.730469 264.808594 C 450.027344 264.855469 450.300781 264.957031 450.554688 265.113281 C 450.808594 265.269531 451.023438 265.46875 451.199219 265.707031 C 451.375 265.949219 451.496094 266.214844 451.566406 266.507812 C 451.636719 266.796875 451.648438 267.089844 451.601562 267.382812 C 451.554688 267.679688 451.453125 267.953125 451.296875 268.207031 C 451.140625 268.460938 450.945312 268.675781 450.703125 268.851562 C 447.820312 271.011719 444.972656 273.214844 442.25 275.371094 Z M 468.175781 256.34375 L 468.125 256.378906 C 465.152344 258.410156 462.195312 260.464844 459.363281 262.492188 C 459.121094 262.667969 458.855469 262.789062 458.566406 262.859375 C 458.277344 262.929688 457.984375 262.941406 457.6875 262.894531 C 457.394531 262.847656 457.121094 262.746094 456.863281 262.589844 C 456.609375 262.433594 456.394531 262.234375 456.21875 261.992188 C 456.046875 261.753906 455.921875 261.488281 455.851562 261.195312 C 455.785156 260.90625 455.773438 260.613281 455.820312 260.320312 C 455.863281 260.023438 455.964844 259.75 456.121094 259.496094 C 456.277344 259.242188 456.476562 259.027344 456.71875 258.851562 C 459.585938 256.765625 462.601562 254.699219 465.574219 252.671875 C 465.820312 252.5 466.085938 252.382812 466.378906 252.316406 C 466.667969 252.253906 466.960938 252.246094 467.253906 252.296875 C 467.550781 252.347656 467.820312 252.453125 468.074219 252.613281 C 468.324219 252.773438 468.535156 252.976562 468.707031 253.21875 C 468.878906 253.464844 468.996094 253.730469 469.0625 254.023438 C 469.128906 254.3125 469.136719 254.605469 469.082031 254.898438 C 469.03125 255.195312 468.925781 255.464844 468.765625 255.71875 C 468.609375 255.96875 468.40625 256.183594 468.164062 256.355469 Z M 468.175781 256.34375 " fill-opacity="1" fill-rule="nonzero"/></g></g></g><g clip-path="url(#0918bb7455)"><g clip-path="url(#0ab1612b4a)"><g clip-path="url(#1fb96c0b95)"><path fill="#ffffff" d="M 500.210938 236.238281 L 500.011719 236.378906 C 498.449219 237.289062 496.902344 238.191406 495.375 239.09375 C 495.121094 239.246094 494.84375 239.34375 494.546875 239.386719 C 494.25 239.429688 493.957031 239.414062 493.667969 239.339844 C 493.378906 239.265625 493.113281 239.136719 492.875 238.957031 C 492.632812 238.777344 492.4375 238.558594 492.289062 238.300781 C 492.140625 238.042969 492.046875 237.765625 492.003906 237.472656 C 491.964844 237.175781 491.984375 236.886719 492.058594 236.597656 C 492.132812 236.308594 492.257812 236.046875 492.4375 235.808594 C 492.613281 235.570312 492.828125 235.371094 493.085938 235.21875 L 497.769531 232.480469 C 498.019531 232.320312 498.292969 232.210938 498.585938 232.15625 C 498.878906 232.101562 499.171875 232.105469 499.464844 232.164062 C 499.753906 232.226562 500.023438 232.34375 500.269531 232.511719 C 500.515625 232.679688 500.722656 232.890625 500.882812 233.136719 C 501.046875 233.386719 501.15625 233.660156 501.210938 233.953125 C 501.265625 234.246094 501.265625 234.539062 501.203125 234.832031 C 501.140625 235.125 501.027344 235.394531 500.859375 235.640625 C 500.691406 235.886719 500.484375 236.089844 500.234375 236.253906 Z M 500.210938 236.238281 " fill-opacity="1" fill-rule="nonzero"/></g></g></g><g clip-path="url(#77941d2cb0)"><g clip-path="url(#3f0e5c683c)"><g clip-path="url(#b7c965837b)"><path fill="#ffffff" d="M 780.878906 158.796875 L 780.820312 158.839844 L 575.71875 299.496094 L 496.625 353.726562 C 496.234375 353.996094 495.800781 354.125 495.328125 354.121094 C 494.855469 354.117188 494.425781 353.976562 494.042969 353.699219 C 493.660156 353.425781 493.386719 353.0625 493.230469 352.617188 C 493.074219 352.171875 493.058594 351.71875 493.1875 351.265625 L 525.714844 235.703125 C 525.820312 235.335938 526.003906 235.019531 526.265625 234.746094 C 526.53125 234.472656 526.84375 234.28125 527.203125 234.164062 L 778.875 154.835938 C 779.132812 154.753906 779.390625 154.722656 779.65625 154.734375 C 779.925781 154.746094 780.179688 154.804688 780.425781 154.910156 C 780.671875 155.011719 780.890625 155.15625 781.085938 155.335938 C 781.28125 155.519531 781.4375 155.730469 781.558594 155.96875 C 781.679688 156.207031 781.753906 156.457031 781.785156 156.722656 C 781.816406 156.988281 781.800781 157.25 781.738281 157.507812 C 781.675781 157.765625 781.570312 158.007812 781.421875 158.230469 C 781.273438 158.453125 781.09375 158.640625 780.878906 158.796875 Z M 499.230469 346.539062 L 573.214844 295.820312 L 765.855469 163.707031 L 529.71875 238.089844 Z M 499.230469 346.539062 " fill-opacity="1" fill-rule="nonzero"/></g></g></g><g clip-path="url(#697216f199)"><g clip-path="url(#64d0f17b10)"><g clip-path="url(#e3248eac2e)"><path fill="#ffffff" d="M 780.878906 158.796875 C 780.679688 158.941406 780.464844 159.050781 780.234375 159.121094 L 544.167969 233.539062 C 543.910156 233.621094 543.640625 233.652344 543.371094 233.636719 C 543.097656 233.621094 542.835938 233.558594 542.585938 233.449219 C 542.339844 233.339844 542.117188 233.1875 541.921875 233 C 541.726562 232.808594 541.570312 232.589844 541.453125 232.34375 L 530.171875 208.226562 C 530.097656 208.074219 530.042969 207.914062 530.007812 207.746094 C 529.972656 207.578125 529.953125 207.410156 529.957031 207.238281 C 529.960938 207.070312 529.980469 206.902344 530.023438 206.734375 C 530.0625 206.570312 530.121094 206.410156 530.199219 206.257812 C 530.273438 206.105469 530.367188 205.964844 530.476562 205.832031 C 530.585938 205.703125 530.707031 205.585938 530.84375 205.480469 C 530.980469 205.378906 531.125 205.292969 531.28125 205.222656 C 531.4375 205.152344 531.597656 205.097656 531.765625 205.066406 L 779.113281 154.777344 C 779.363281 154.726562 779.613281 154.71875 779.863281 154.753906 C 780.117188 154.789062 780.355469 154.867188 780.582031 154.984375 C 780.808594 155.097656 781.007812 155.25 781.183594 155.433594 C 781.359375 155.621094 781.5 155.828125 781.605469 156.0625 C 781.707031 156.292969 781.769531 156.535156 781.792969 156.789062 C 781.8125 157.042969 781.792969 157.292969 781.730469 157.539062 C 781.667969 157.789062 781.566406 158.015625 781.421875 158.230469 C 781.28125 158.441406 781.109375 158.625 780.90625 158.777344 Z M 544.660156 228.675781 L 737.910156 167.761719 L 535.460938 208.910156 Z M 544.660156 228.675781 " fill-opacity="1" fill-rule="nonzero"/></g></g></g><g clip-path="url(#e8c50d4ad4)"><g clip-path="url(#2ed2bf7aa9)"><g clip-path="url(#35b2165528)"><path fill="#ffffff" d="M 598.121094 347.242188 C 597.988281 347.34375 597.84375 347.425781 597.6875 347.488281 C 597.535156 347.554688 597.378906 347.605469 597.214844 347.636719 C 597.050781 347.667969 596.882812 347.679688 596.71875 347.671875 C 596.550781 347.667969 596.386719 347.640625 596.226562 347.601562 C 596.0625 347.558594 595.910156 347.496094 595.761719 347.421875 C 595.613281 347.34375 595.476562 347.25 595.347656 347.144531 C 595.222656 347.035156 595.105469 346.914062 595.003906 346.78125 C 594.90625 346.648438 594.820312 346.507812 594.75 346.355469 L 572.410156 298.570312 C 572.300781 298.332031 572.238281 298.078125 572.21875 297.8125 C 572.199219 297.550781 572.222656 297.292969 572.292969 297.035156 C 572.363281 296.78125 572.476562 296.546875 572.628906 296.332031 C 572.785156 296.117188 572.96875 295.933594 573.1875 295.78125 L 778.285156 155.121094 C 778.511719 154.929688 778.769531 154.789062 779.054688 154.699219 C 779.339844 154.609375 779.628906 154.574219 779.929688 154.601562 C 780.226562 154.625 780.507812 154.707031 780.773438 154.84375 C 781.039062 154.984375 781.265625 155.167969 781.460938 155.394531 C 781.652344 155.625 781.792969 155.878906 781.882812 156.164062 C 781.976562 156.449219 782.007812 156.742188 781.980469 157.039062 C 781.957031 157.335938 781.875 157.617188 781.738281 157.882812 C 781.601562 158.148438 781.417969 158.378906 781.191406 158.570312 L 598.417969 346.996094 C 598.328125 347.089844 598.230469 347.171875 598.121094 347.242188 Z M 577.300781 298.410156 L 597.480469 341.492188 L 762.324219 171.523438 Z M 577.300781 298.410156 " fill-opacity="1" fill-rule="nonzero"/></g></g></g><g clip-path="url(#5ff47aafb4)"><g clip-path="url(#aca72fbab3)"><g clip-path="url(#516ff9acf9)"><path fill="#ffffff" d="M 780.878906 158.796875 C 780.621094 158.980469 780.339844 159.101562 780.035156 159.167969 L 532.660156 209.480469 C 532.246094 209.5625 531.839844 209.53125 531.441406 209.390625 C 531.046875 209.246094 530.714844 209.007812 530.453125 208.679688 C 530.191406 208.347656 530.035156 207.972656 529.980469 207.550781 C 529.929688 207.132812 529.988281 206.730469 530.160156 206.34375 L 572.066406 113.777344 C 572.171875 113.546875 572.3125 113.335938 572.488281 113.152344 C 572.667969 112.964844 572.867188 112.816406 573.097656 112.699219 C 573.324219 112.582031 573.566406 112.507812 573.820312 112.472656 C 574.074219 112.441406 574.324219 112.449219 574.574219 112.5 L 780.003906 154.761719 C 780.4375 154.851562 780.8125 155.054688 781.128906 155.367188 C 781.445312 155.683594 781.648438 156.058594 781.742188 156.492188 C 781.835938 156.925781 781.804688 157.351562 781.644531 157.769531 C 781.488281 158.183594 781.226562 158.523438 780.867188 158.785156 Z M 536.078125 204.191406 L 768.335938 156.96875 L 575.425781 117.269531 Z M 536.078125 204.191406 " fill-opacity="1" fill-rule="nonzero"/></g></g></g></svg>