<svg width="283" height="110" viewBox="0 0 283 110" fill="none" xmlns="http://www.w3.org/2000/svg">
<g clip-path="url(#clip0_735_25102)">
<path d="M257.198 86.4221C254.308 79.5767 254.872 73.0189 255.746 66.5621C256.979 56.9702 258.467 47.355 259.827 37.7515C260.082 35.8323 260.121 33.8898 260.229 32.2426C258.494 30.5914 257.212 31.5704 256.018 32.1103C252.058 33.8079 248.233 33.2094 244.486 31.5698C238.598 29.0055 236.315 25.0777 237.022 18.6792C237.927 10.1945 244.495 3.2174 252.925 2.14554C256.823 1.6601 260.829 1.42329 264.747 1.62549C268.231 1.78105 271.303 3.52553 273.752 5.97317C274.648 6.88229 275.173 8.42852 275.336 9.74941C275.625 12.0066 275.618 14.2909 275.525 16.5831C274.96 28.8284 274.009 41.066 271.192 53.0432C269.426 60.5294 267.969 68.1167 265.941 75.5407C265.075 78.7652 263.429 81.8886 261.629 84.7246C260.953 85.7774 258.863 85.8822 257.29 86.4998L257.198 86.4221ZM246.823 26.6166C251.069 25.7116 253.453 22.6931 255.64 19.391C258.499 14.9933 258.974 13.6142 258.828 9.62046C249.532 13.9168 245.95 18.8544 246.819 26.5739L246.823 26.6166Z" fill="#06DAEF"/>
<path d="M102.883 77.6856C111.368 63.4671 122.684 51.6612 126.71 35.9972C125.293 34.0586 123.894 34.7034 122.758 35.4104C119.59 37.3372 116.519 39.3845 113.443 41.389C111.786 42.4883 110.237 43.8363 108.413 44.52C107.297 44.9667 105.601 44.6908 104.476 44.1041C103.035 43.331 103.182 41.6371 103.789 40.2891C104.357 38.9876 105.149 37.795 106.034 36.68C108.723 33.2459 112.238 30.8995 115.99 28.7902C122.148 25.3406 127.986 26.4015 133.765 29.6651C136.748 31.3746 138.015 33.5425 137.022 36.7786C135.762 40.8577 134.244 44.9174 132.176 48.5964C128.518 55.0491 124.36 61.2027 120.473 67.5039C119.276 69.4231 118.209 71.3733 117.166 73.1059C117.479 73.7236 117.591 74.015 117.78 74.2131C117.97 74.4113 118.24 74.5589 118.456 74.5822C126.685 74.6059 134.914 74.6296 143.487 74.665C143.07 75.7372 143.004 76.9066 142.51 77.1241C133.28 81.199 123.66 83.3275 113.499 82.317C109.783 81.9672 106.341 80.8598 102.968 77.6779L102.883 77.6856Z" fill="#06DAEF"/>
<path d="M16.8731 67.5769C12.9443 61.5589 7.2538 56.9084 4.48405 50.4398C5.86337 48.1594 7.67141 48.7267 9.06991 49.5037C11.0093 50.5761 12.8134 52.0485 14.49 53.5327C16.5839 55.3665 18.5232 57.3867 20.5862 59.3526C23.4258 58.0591 24.2604 55.4406 25.7556 53.4943C27.8265 50.806 29.8047 48.04 32.0108 45.4256C33.1699 44.027 34.8621 43.7862 36.6624 44.2681C39.3783 44.9247 40.8656 46.6847 39.9769 49.1788C38.3734 53.7202 36.5536 58.2384 34.5946 62.6399C33.2037 65.7401 31.4071 68.6187 29.8616 71.4314C32.9443 76.6218 35.8262 81.4859 38.6656 86.3539C38.766 86.5171 38.5381 86.8395 38.2637 87.5971C35.2194 87.5736 33.6587 85.0017 31.6228 83.335C29.7221 81.742 27.9798 80.0054 25.8743 78.0434C19.8123 85.4051 16.5976 94.4025 8.13658 99.8721C7.50304 98.5512 6.45998 97.4401 6.48708 96.3173C6.47189 90.4588 8.91764 85.2803 11.2745 80.0668C13.1291 75.9333 15.6135 72.13 16.877 67.6196L16.8731 67.5769Z" fill="#06DAEF"/>
<path d="M148.816 40.6991C155.276 40.1089 158.633 44.5418 162.967 47.4634C164.776 44.713 166.182 42.2578 167.909 40.0318C170.219 37.1492 172.673 34.426 175.308 31.8154C176.803 30.3431 178.804 30.2033 180.89 31.0037C183.154 31.874 184.36 33.3581 183.444 35.5531C181.62 40.0285 179.619 44.4339 177.347 48.6917C175.519 52.1765 173.201 55.4475 170.837 59.1536C174.325 64.5655 177.659 69.6899 181.441 75.5059C174.22 75.2608 171.373 69.3594 166.467 66.7485C162.41 69.2736 160.474 74.4055 155.336 76.34C151.859 69.1604 156.399 63.4459 157.833 57.0241C154.928 51.9036 150.647 47.2104 148.774 40.703L148.816 40.6991Z" fill="#06DAEF"/>
<path d="M61.2394 70.1585C57.1945 68.072 53.1843 69.214 50.9939 65.8379C50.5806 64.1091 51.7358 63.1418 52.9721 62.598C55.2825 61.6113 57.7435 60.8694 60.5251 59.8827C61.2709 57.7033 61.9934 55.2675 62.9439 52.9831C63.9253 50.5667 66.1777 49.887 68.4957 51.3556C69.6315 52.0705 70.6668 53.0962 71.536 54.1801C72.2082 54.9804 72.5636 56.0682 73.0349 57.0162C77.8448 57.1368 82.3147 57.2886 86.6532 57.4092C87.1862 60.4628 85.3511 61.4922 83.5816 62.3002C80.2475 63.8113 76.8052 65.0738 73.4169 66.4605C71.2764 70.7494 71.1758 75.3259 70.4222 79.7897C69.8039 83.3793 68.7568 86.9651 67.6131 90.4304C67.3774 91.1414 65.8397 91.6697 64.8623 91.759C64.3098 91.8095 63.2011 90.9197 63.1045 90.3253C62.3513 86.7317 61.5981 83.1381 61.2699 79.5057C60.9919 76.4288 61.2238 73.3053 61.1969 70.1623L61.2394 70.1585Z" fill="#06DAEF"/>
<path d="M194.728 58.0047C205.588 55.3751 217.955 53.7712 224.372 54.1328C221.767 58.9811 217.661 60.9506 207.944 62.0107C203.107 62.5389 198.541 62.2667 194.728 58.0047Z" fill="#06DAEF"/>
<path d="M193.716 44.9124C200.96 41.1482 209.321 40.2551 218.152 42.6797C211.484 45.7019 205.55 48.7863 198.588 48.5606C196.266 48.4712 194.106 47.8067 193.678 44.959L193.716 44.9124Z" fill="#06DAEF"/>
</g>
<defs>
<clipPath id="clip0_735_25102">
<rect width="275.505" height="84.4016" fill="white" transform="matrix(0.995852 -0.0909921 0.0899921 0.995942 0.0576172 25.1641)"/>
</clipPath>
</defs>
</svg>
