<svg width="111" height="57" viewBox="0 0 111 57" fill="none" xmlns="http://www.w3.org/2000/svg">
<path d="M59.0696 31.5118C62.0585 28.0402 65.5156 25.1548 67.4889 20.6135C66.4457 20.6236 65.8021 20.4873 65.2624 20.6555C64.1233 21.0332 63.0464 21.5937 61.9486 22.0728C61.3298 22.3437 60.7531 22.777 60.1119 22.8444C59.5308 22.9111 58.8068 22.7552 58.3215 22.434C57.7553 22.0525 57.9022 20.8899 58.4763 20.2325C59.8625 18.6709 61.6369 17.7167 63.6186 17.3307C66.7012 16.7304 69.4212 17.7225 71.8905 19.5726C72.9632 20.377 73.1986 21.6376 72.41 22.8267C71.4437 24.262 70.2952 25.5565 69.2874 26.87C69.4808 27.9681 70.32 27.6748 70.8642 27.8935C71.7507 28.2108 72.6563 28.4465 73.5033 28.8253C77.0532 30.4408 77.7779 32.3689 75.9337 35.9312C74.148 39.3504 71.572 42.105 68.2436 43.991C64.5766 46.084 58.5433 44.839 55.776 41.5251C55.5726 41.2827 55.5872 40.814 55.4608 40.306C58.4231 39.7069 60.157 42.1548 62.7152 43.0262C65.3736 42.1856 67.1536 39.9887 68.8325 37.7317C70.3732 35.6593 71.5504 33.3868 71.3549 30.3943C70.5716 30.3204 69.7658 30.0431 69.106 30.2328C67.0665 30.823 65.0488 31.5556 63.0919 32.3486C61.7342 32.9118 60.5313 32.9846 59.0696 31.5118Z" fill="#06DAEF" stroke="#06DAEF" stroke-width="0.5"/>
<path d="M12.6419 12.4277C12.2349 13.6539 11.9259 14.6754 11.5363 15.6773C8.94664 22.4042 7.54384 29.4048 6.88542 36.5815C6.45896 41.2911 6.01269 46.0213 5.40546 50.7123C5.18473 52.4256 4.52197 54.082 3.93921 55.7173C3.82242 56.0239 3.06227 56.2147 2.62094 56.2189C2.36016 56.2215 1.97283 55.6956 1.90884 55.3703C1.73764 54.4553 1.64621 53.4988 1.61496 52.5417C1.49044 48.7541 1.38598 44.9663 1.34169 41.1779C1.2923 33.5192 2.6901 26.0909 5.27479 18.9362C6.09113 16.6876 7.33017 14.5571 8.59022 12.5078C9.47603 11.0529 10.0988 11.1284 12.6624 12.4683L12.6419 12.4277Z" fill="#06DAEF" stroke="#06DAEF" stroke-width="0.5"/>
<path d="M84.1007 53.2478C83.1118 51.037 83.073 49.4282 83.1349 47.8591C83.2637 45.1486 83.4931 42.4575 83.6821 39.7465C83.9234 36.3627 84.3455 32.9975 84.3661 29.6159C84.4015 22.3434 82.8755 15.3713 79.8691 8.75986C79.1484 7.178 78.3678 5.61708 77.5664 3.99526C79.6168 4.342 79.7573 4.34064 80.8756 5.61309C83.9456 9.08692 86.3582 12.9542 87.7346 17.4222C89.4858 23.0681 90.0943 28.7862 88.9192 34.6642C88.1044 38.7665 87.4306 42.9082 86.6161 47.0308C86.3321 48.4799 85.8269 49.8903 85.3419 51.3006C85.1869 51.7706 84.7904 52.1818 84.1007 53.2478Z" fill="#06DAEF" stroke="#06DAEF" stroke-width="0.5"/>
<path d="M23.8128 29.247C24.8421 28.0555 25.5937 27.1316 26.4062 26.2681C27.4169 25.1991 28.4479 24.1502 29.5598 23.1616C30.5526 22.276 31.6948 22.1631 32.9051 22.7217C33.1219 24.1047 32.4923 25.1701 31.9022 26.174C30.5452 28.5094 29.2288 30.8851 27.6489 33.0393C26.4837 34.6191 26.2203 36.1087 26.8234 37.9361C27.4261 39.7228 27.9491 41.5511 28.4121 43.4002C28.6014 44.1521 28.5708 44.9672 28.663 45.9848C25.3024 45.1212 25.2636 41.8012 23.3732 39.7011C22.9161 40.0722 22.3783 40.4034 21.9824 40.8553C20.5972 42.4984 19.2729 44.202 17.8674 45.8249C17.4516 46.2974 16.8336 46.6294 16.2554 46.9405C15.8767 47.1479 15.0279 46.6265 15.0631 46.1984C15.134 45.4033 15.1441 44.5477 15.4567 43.8317C16.1603 42.236 17.0048 40.6796 17.8696 39.1435C18.7731 37.4847 19.7575 35.8863 20.7016 34.2679C19.5769 30.7344 17.6138 27.5554 17.4699 23.829C19.0607 23.7593 21.1816 25.5584 23.8326 29.2264L23.8128 29.247Z" fill="#06DAEF" stroke="#06DAEF" stroke-width="0.5"/>
<path d="M91.6604 15.0618C93.4399 11.1131 96.8221 8.67659 97.7749 4.36924C96.7329 4.48122 95.9716 4.5701 95.2301 4.63841C94.3082 4.72885 93.3678 4.94169 92.4637 4.82825C91.901 4.75224 91.1937 4.31097 90.9071 3.82487C90.5382 3.15624 91.0932 2.58048 91.691 2.22838C95.0576 0.179034 98.7329 0.509986 101.653 3.12973C102.707 4.07688 102.978 4.95016 102.353 6.38215C101.884 7.48668 101.214 8.49133 100.564 9.51615C99.933 10.5 99.2216 11.4236 98.3334 12.6748C102.436 13.5312 106.214 10.5816 110.114 13.0085C109.518 13.5439 109.124 14.1588 108.605 14.3268C105.307 15.3774 102.008 16.3668 98.6883 17.2954C95.9888 18.0549 93.7898 17.0171 91.6403 15.062L91.6604 15.0618Z" fill="#06DAEF" stroke="#06DAEF" stroke-width="0.5"/>
<path d="M39.2871 34.78C37.4574 34.4311 35.688 34.102 33.5566 33.6949C35.503 32.0057 37.7399 32.8598 39.613 31.762C39.7451 31.0478 39.8361 30.2525 40.0279 29.4969C40.3723 28.0677 40.7566 26.6177 41.1815 25.208C41.4129 24.4113 41.8252 23.6332 42.7685 23.6648C43.7318 23.6962 44.6792 24.074 45.0715 25.0276C45.4225 25.8797 45.5742 26.8357 45.7456 27.771C45.9399 28.9506 46.034 30.1311 46.2104 31.4942C47.4952 31.5632 48.6196 31.6338 50.1453 31.7208C48.779 33.2618 47.0703 32.9729 45.54 34.21C44.9025 36.3143 44.1705 38.9084 43.3173 41.4426C42.8905 42.6893 42.2827 43.897 41.6744 45.0641C41.5371 45.3302 40.9181 45.5806 40.6561 45.4813C40.2129 45.3227 39.586 44.901 39.5617 44.5346C39.4208 42.7841 39.4003 41.0325 39.42 39.2805C39.443 37.8136 39.8872 36.3426 39.3074 34.8001L39.2871 34.78Z" fill="#06DAEF" stroke="#06DAEF" stroke-width="0.5"/>
</svg>
