<svg width="130" height="25" viewBox="0 0 130 25" fill="none" xmlns="http://www.w3.org/2000/svg">
<g clip-path="url(#clip0_735_25591)">
<path opacity="0.7" d="M29.1348 15.6331C26.6145 13.9442 9.53755 16.0664 8.40778 15.6331C7.36491 14.9997 8.48382 3.43306 9.36374 1.71084C9.67877 1.09973 10.059 0.988618 10.9715 1.24417C12.0578 1.62195 25.5499 0.777507 30.7317 0.488618C30.9815 0.844173 31.6876 -0.355826 31.8289 0.077507C32.133 0.766396 58.8456 0.233063 64.538 0.31084C66.0805 0.333062 64.8421 0.977507 66.6563 0.777507C70.5236 0.366396 78.91 1.35528 81.8431 0.899729C84.2004 0.533062 84.7001 0.544174 86.927 1.09973C88.8933 1.58862 101.375 2.01084 102.831 1.34417C103.189 1.15528 103.439 1.25528 103.428 1.51084C103.656 1.55528 104.525 1.6664 104.764 1.68862C104.949 1.71084 111.978 2.54417 111.999 2.73306C112.043 2.99973 112.293 3.14417 112.553 2.98862C113.02 2.74417 122.211 2.73306 122.298 3.49973C122.548 5.67751 120.516 14.5886 119.299 16.6886C118.028 18.9108 112.466 15.6775 107.589 16.6553C83.0163 14.6108 85.6886 15.0331 80.898 15.6331C80.3874 14.8331 78.2582 16.6108 77.0415 15.1997C76.5418 14.6219 72.794 14.3553 71.9467 14.8775C71.5882 15.0997 66.6237 14.6775 61.4963 14.4553C56.3688 14.2331 51.0785 14.2108 50.1008 14.9553C46.2661 13.4775 31.2097 15.4219 29.1239 15.5997L29.1348 15.6331Z" fill="#00AABB"/>
<path opacity="0.7" d="M24.2028 24.9998C21.5305 23.322 1.77029 24.5331 0.336351 23.9776C-0.815149 23.2887 1.27059 11.8109 2.37863 10.1331C2.76971 9.53312 3.2151 9.45534 4.21452 9.76646C5.81141 10.3665 24.4527 9.96646 26.5058 9.9109C26.7774 10.2776 27.603 9.08868 27.7551 9.53312C28.2765 10.6776 63.5385 9.78868 64.6248 9.78868C66.3629 9.77757 64.9833 10.4442 67.0256 10.1887C71.3709 9.66646 80.8653 10.3109 84.146 9.67757C86.7858 9.16646 87.3398 9.17757 89.8818 9.58868C92.4672 9.99979 106.253 9.47757 107.784 8.6109C108.165 8.39979 108.458 8.46646 108.469 8.72201C108.632 8.73312 118.18 8.95534 118.213 9.1109C118.289 9.36646 118.593 9.48868 118.865 9.3109C119.365 9.05534 129.652 7.97757 129.848 8.72201C130.391 10.8553 129.207 19.9442 128.066 22.1776C126.871 24.5442 120.06 21.9665 114.639 23.422C84.8956 23.6776 91.5547 23.222 83.8744 24.4442C83.2444 23.6776 80.887 25.5665 79.4096 24.2109C78.8013 23.6553 74.4886 23.5665 73.5326 24.122C72.707 24.5998 50.633 23.1776 48.3626 24.6553C44.3323 23.2998 27.9724 24.7998 24.1702 24.9998H24.2028Z" fill="#00AABB"/>
</g>
<defs>
<clipPath id="clip0_735_25591">
<rect width="130" height="25" fill="white" transform="translate(0 -0.000331879)"/>
</clipPath>
</defs>
</svg>
