<svg width="156" height="114" viewBox="0 0 156 114" fill="none" xmlns="http://www.w3.org/2000/svg">
<path d="M154.143 81.1846C147.598 84.2659 141.007 87.0497 134.419 89.8321C139.269 85.5579 144.063 80.6829 147.979 74.0526C157.578 57.7285 153.329 38.9432 143.499 26.8134C134.283 15.4502 123.198 9.73155 112.264 5.61427C88.08 -2.79493 62.6189 -2.09638 38.8904 10.0142C25.3869 17.1773 10.5463 29.5795 2.90864 51.0997C-2.0283 65.6893 0.104817 80.7628 7.81745 90.7082C14.9974 99.9565 24.0685 103.101 32.7339 105.403C38.4106 106.819 44.1427 107.453 49.8696 107.851C72.6837 108.603 95.6716 106.676 118.115 99.1973C107.918 105.027 97.3368 108.924 86.6269 110.364C83.3016 110.72 79.9523 111.087 76.6252 110.651C75.906 110.491 77.6803 113.593 78.0246 113.785C78.0876 113.846 78.2044 114 78.2999 114C78.328 114 78.3544 113.987 78.3774 113.953C84.0268 112.667 89.7307 112.117 95.3554 110.463C101.623 108.755 107.823 106.331 113.924 103.316C116.695 101.953 119.438 100.418 122.165 98.8096C126.477 95.6291 131.108 94.4081 135.636 92.4768C142.045 89.3496 149.856 87.5041 155.511 83.3246C155.156 82.4855 154.72 81.5442 154.143 81.1846ZM101.505 101.912C90.9008 104.407 80.2157 105.792 69.5245 106.52C56.7232 107.34 43.818 107.392 31.1275 104.032C21.938 101.333 10.4968 97.1579 4.30544 84.1105C-2.97597 67.224 4.97528 46.9987 12.8464 35.6991C21.0142 23.7188 30.8855 15.8335 41.061 10.4775C54.1367 3.82944 67.7365 0.74518 81.3457 0.74518C87.9888 0.74518 94.6353 1.48073 101.221 2.8941C116.143 6.40015 140.767 16.0584 149.846 38.3231C157.107 57.4177 147.322 74.2761 138.089 83.5718C133.71 87.9821 129.256 92.5582 124.218 94.1358C116.733 97.4317 109.158 100.112 101.503 101.912H101.505Z" fill="#00AABB"/>
</svg>
