<svg width="151" height="156" viewBox="0 0 151 156" fill="none" xmlns="http://www.w3.org/2000/svg">
<g clip-path="url(#clip0_735_25191)">
<path d="M34.5384 101.348C30.7781 101.701 27.2706 101.996 23.7801 102.369C17.4877 103.043 11.1959 103.765 4.90371 104.455C3.43952 104.618 2.63944 104.091 2.43215 102.874C2.19953 101.547 2.8285 100.612 4.36092 100.226C10.1196 98.7997 15.8701 97.3494 21.646 96.0174C25.5335 95.1236 29.4629 94.3955 33.3921 93.6437C34.3012 93.4726 34.6132 93.104 34.6238 92.1695C34.6928 77.2906 34.7776 62.4115 34.8941 47.532C34.9019 46.3917 34.5798 46.032 33.4077 46.1118C26.344 46.6146 19.2704 46.9829 12.2157 47.5648C10.6243 47.6979 9.06515 48.4403 7.51899 48.9766C6.83271 49.2159 5.53544 48.8461 4.8824 48.0634C4.22924 47.2729 4.17109 45.9514 5.04941 45.274C6.18638 44.3871 7.46778 43.6248 8.79147 43.052C14.0942 40.7607 19.7523 40.0796 25.437 39.5882C28.0417 39.3617 30.6481 39.246 33.2545 39.1382C34.1497 39.1019 34.5112 38.8751 34.3942 37.8791C34.0431 34.891 33.795 31.8936 33.4995 28.9047C33.4619 28.4856 33.3848 28.0749 33.2888 27.4428C32.2229 28.8751 31.3852 30.1933 30.3629 31.3399C28.0762 33.9057 25.3203 35.7892 21.8812 36.4392C17.3432 37.2946 13.5341 35.8673 10.7017 32.2964C7.82896 28.6706 7.81134 24.5852 9.83198 20.5741C11.0119 18.2297 12.4547 15.9687 14.0505 13.8876C16.2225 11.0621 19.2443 9.48372 22.8334 9.35424C27.4603 9.18647 30.7046 11.6035 32.9697 15.4199C33.6841 16.6213 34.0446 18.0257 34.6195 19.4508C36.5657 18.6159 37.6928 19.8511 38.6967 21.3494C40.7932 24.4476 41.6432 27.975 42.1538 31.6022C42.4269 33.5542 42.5499 35.5399 42.6884 37.5095C42.7392 38.3006 42.9972 38.6137 43.8446 38.5543C56.4847 37.7596 69.126 37.044 81.7575 36.194C85.8518 35.9149 89.9257 35.3115 94.0887 34.8493C94.1376 34.3735 94.1884 34.0403 94.1995 33.6996C94.3584 24.6788 94.5015 15.6582 94.6763 6.63721C94.6954 5.7343 94.7618 4.81488 94.9476 3.93338C95.2679 2.46407 96.5699 1.47983 98.0522 1.47489C99.5344 1.46996 100.919 2.41655 101.162 3.88589C101.491 5.8687 101.646 7.88561 101.785 9.89483C102.301 17.3147 102.778 24.743 103.27 32.1631C103.299 32.5507 103.352 32.93 103.398 33.3807C106.24 33.0954 108.978 32.7562 111.734 32.5592C118.259 32.0956 124.789 31.9487 131.179 33.7278C133.757 34.4439 136.151 35.5505 138.205 37.3112C139.617 38.5187 139.974 39.6776 139.343 41.0563C138.713 42.4429 137.469 43.0858 135.706 42.8255C132.465 42.3483 129.237 41.6888 125.982 41.3464C118.639 40.5863 111.295 40.8792 103.876 41.482C104.339 56.3693 104.792 71.1854 105.255 86.1439C105.683 86.1616 106.104 86.1953 106.516 86.1975C116.965 86.2569 127.405 86.2927 137.854 86.3997C140.621 86.4243 143.39 86.623 146.151 86.806C148.206 86.9435 149.422 88.2725 149.466 90.2751C149.51 92.3094 148.286 93.7518 146.212 93.9313C141.366 94.3397 136.512 94.7324 131.658 95.0538C123.287 95.6224 114.916 96.1514 106.544 96.6409C105.364 96.7129 105.364 97.3067 105.36 98.1777C105.301 113.175 105.218 128.181 105.135 143.179C105.128 143.844 105.09 144.525 104.957 145.185C104.698 146.518 103.577 147.389 102.253 147.368C100.937 147.347 99.8865 146.515 99.607 145.236C99.4969 144.738 99.4342 144.217 99.4033 143.71C98.6768 131.464 97.9582 119.217 97.2396 106.97C97.0729 104.122 96.8587 101.282 96.7237 98.4334C96.6801 97.5868 96.43 97.2735 95.5191 97.3259C83.3937 98.0897 71.2677 98.8059 59.1421 99.5539C54.01 99.8712 48.8789 100.268 43.7464 100.561C42.6534 100.624 42.2612 100.923 42.3172 102.094C42.7927 111.7 42.975 121.317 43.7197 130.903C44.2043 137.199 45.4489 143.429 46.4165 149.687C46.652 151.22 46.4564 152.537 45.242 153.551C44.2156 154.413 43.0392 154.746 41.7009 154.274C40.5618 153.878 40.0103 152.991 39.7416 151.918C37.9017 144.501 36.4172 136.992 35.8823 129.366C35.2596 120.57 35.0012 111.745 34.5844 102.931C34.5621 102.472 34.5714 102.004 34.5621 101.339L34.5384 101.348ZM94.218 42.3775C92.1363 42.5967 90.1816 42.83 88.218 42.9921C80.2213 43.6663 72.226 44.4355 64.219 44.9436C57.5109 45.3702 50.7825 45.4803 44.056 45.725C43.2875 45.7516 42.7253 45.7991 42.7006 46.8605C42.5904 51.4465 42.2663 56.0356 42.2434 60.6204C42.1945 70.7086 42.2725 80.8029 42.3029 90.89C42.3076 91.2225 42.3678 91.5621 42.4134 91.9891C43.3233 91.8655 44.0987 91.7596 44.882 91.6615C52.8418 90.6156 60.7832 89.3879 68.7623 88.5872C77.3746 87.7223 86.0318 87.2288 94.6718 86.6406C95.7805 86.5617 96.0293 86.2177 95.9906 85.1494C95.4077 71.2773 94.8645 57.3968 94.3134 43.5243C94.3011 43.2156 94.2651 42.9073 94.218 42.3775V42.3775ZM19.5109 30.2013C21.9201 30.1597 23.7068 29.2557 25.1685 27.7863C27.4586 25.4659 28.7605 22.7713 27.7859 19.4119C26.8283 16.1236 22.5321 14.4418 19.8102 17.6234C18.9914 18.585 18.3009 19.6557 17.4901 20.6251C16.8898 21.3462 16.1774 21.9817 15.5451 22.6794C15.2094 23.0483 14.755 23.4348 14.6424 23.8798C13.6351 27.7974 15.7317 30.3414 19.5188 30.2012L19.5109 30.2013Z" fill="#06DAEF"/>
<path d="M128.566 116.61C129.544 115.156 130.469 113.789 131.393 112.414C132.565 110.671 133.722 108.929 134.918 107.202C135.796 105.923 136.964 104.996 138.497 104.618C140.069 104.232 141.407 104.664 142.446 105.893C143.454 107.082 143.545 108.483 142.762 109.76C142.134 110.783 141.219 111.643 140.407 112.549C139.814 113.214 139.085 113.771 138.564 114.491C137.35 116.147 136.217 117.873 135.06 119.576C134.843 119.896 134.649 120.231 134.416 120.598C135.97 121.709 137.459 122.733 138.909 123.821C140.647 125.127 142.096 126.675 142.665 128.86C143.21 130.958 141.555 132.819 139.47 132.199C137.766 131.692 136.121 130.82 134.625 129.851C133.146 128.898 131.875 127.618 130.359 126.356C129.22 128.209 128.039 129.928 127.074 131.77C125.252 135.232 123.542 138.756 121.799 142.257C120.72 144.433 118.52 144.694 117.175 142.662C116.682 141.924 116.46 140.787 116.582 139.891C117.085 136.242 118.521 132.896 120.355 129.719C121.818 127.188 123.336 124.689 124.916 122.03C122.955 120.632 121.024 119.21 119.047 117.844C117.454 116.742 115.745 115.792 114.222 114.602C113.541 114.073 112.878 113.172 112.732 112.351C112.335 110.028 114.287 108.528 116.356 109.624C120.093 111.59 123.715 113.772 127.382 115.875C127.75 116.083 128.102 116.332 128.558 116.626L128.566 116.61Z" fill="#06DAEF"/>
<path d="M89.5891 124.409C89.3467 131.436 84.3725 136.803 77.3227 137.733C72.3379 138.389 67.9238 137.342 64.6098 133.342C59.7074 127.425 61.1071 117.571 67.4678 113.286C69.4074 111.976 71.4662 110.688 73.6597 109.961C76.8394 108.902 79.8371 110.127 82.5401 111.824C86.4828 114.302 89.0834 117.734 89.5469 122.525C89.6111 123.15 89.5645 123.784 89.5734 124.417L89.5891 124.409ZM68.3678 123.772C68.4393 126.044 69.165 128.053 71.0004 129.492C73.6294 131.553 77.7853 131.147 80.3502 128.64C82.6727 126.375 82.8843 122.809 80.9181 119.954C79.6559 118.127 78.0107 117.255 75.7557 117.548C74.2682 117.743 72.7629 117.804 71.267 117.967C70.99 117.995 70.6513 118.15 70.4798 118.359C69.2337 119.944 68.2826 121.652 68.3678 123.772Z" fill="#06DAEF"/>
<path d="M11.3886 119.741C11.427 119.653 11.5345 119.406 11.6341 119.159C12.3152 117.416 13.7135 116.517 15.5487 116.808C20.4744 117.594 23.9306 120.428 25.9667 124.873C28.1663 129.672 28.3547 134.634 26.0839 139.457C23.8207 144.263 19.8362 146.718 14.5504 146.824C9.39148 146.927 5.13527 144.137 3.25459 139.468C0.823602 133.429 1.36113 127.665 5.45038 122.5C6.33052 121.387 7.79498 120.678 9.09312 119.979C9.67526 119.662 10.5098 119.816 11.3727 119.741L11.3886 119.741ZM11.4992 122.542C10.9194 123.596 10.2078 124.857 9.51218 126.125C7.94349 129.014 7.66863 132.026 8.56905 135.189C9.34438 137.91 11.116 139.888 13.1949 140.033C15.3451 140.177 17.2707 139.564 18.8104 138.007C22.9374 133.839 20.5045 125.401 14.7426 123.772C13.708 123.477 12.7186 123.016 11.4993 122.55L11.4992 122.542Z" fill="#06DAEF"/>
<path d="M76.9901 67.0617C79.107 68.7898 81.1189 70.3769 83.0607 72.0521C84.0316 72.8936 84.9955 73.7986 85.7393 74.8333C86.4994 75.8995 86.4143 77.1834 85.6928 78.3021C84.9248 79.5005 83.6737 79.5972 82.4199 79.496C80.3565 79.327 78.896 78.0568 77.5288 76.6587C76.009 75.1122 74.4971 73.5656 72.8967 71.9332C71.2135 73.9996 69.5689 75.9943 67.9485 78.0202C67.185 78.9731 66.3885 79.8315 65.0488 79.8266C62.7817 79.8267 61.2854 77.7018 62.3342 75.6126C63.5374 73.2283 65.0759 71.0135 66.5107 68.7526C66.9062 68.1294 67.4456 67.5914 67.8821 67.0627C66.8365 65.9846 65.8786 64.945 64.8661 63.9615C63.4195 62.5565 61.9183 61.2077 60.4639 59.8029C59.2745 58.6477 59.0921 57.5101 59.8699 56.4461C60.6943 55.3181 62.1946 54.9011 63.4591 55.7623C66.0361 57.5157 68.4965 59.429 71.0035 61.2784C71.3158 61.5036 71.5971 61.7768 71.974 62.0882C73.1267 60.6231 74.1767 59.1911 75.3313 57.8605C76.3142 56.7303 77.3852 55.6622 78.5049 54.6726C79.0843 54.1577 79.8162 53.7832 80.5413 53.4801C81.8888 52.9149 83.122 53.2381 84.1273 54.2692C85.1166 55.2846 85.5386 56.5535 84.8751 57.8535C84.312 58.9619 83.5578 60.0098 82.7306 60.9398C80.9514 62.9522 79.06 64.8711 76.998 67.0616L76.9901 67.0617Z" fill="#06DAEF"/>
</g>
<defs>
<clipPath id="clip0_735_25191">
<rect width="148.218" height="152.224" fill="white" transform="translate(0 2.84888) rotate(-0.80284)"/>
</clipPath>
</defs>
</svg>
