<svg width="92" height="67" viewBox="0 0 92 67" fill="none" xmlns="http://www.w3.org/2000/svg">
<g clip-path="url(#clip0_735_25139)">
<path d="M78.3026 58.418C78.5828 59.1117 78.7441 59.9355 78.4894 60.924C77.1732 60.6639 75.9164 60.4471 74.6596 60.1696C70.2355 59.1984 65.8283 58.1752 61.4042 57.2387C56.3686 56.1808 51.3076 55.227 46.2636 54.1604C42.833 53.432 39.4363 52.5302 36.0057 51.7932C31.8023 50.9 27.565 50.1283 23.3532 49.2525C20.0839 48.5761 16.8231 47.8564 13.5793 47.076C11.6941 46.6251 11.1677 45.9401 11.329 44.0237C11.5583 41.2923 11.2611 38.5955 11.1337 35.8901C10.9808 32.4823 10.7855 29.0831 10.6921 25.6753C10.5563 20.7067 10.4883 15.738 10.4034 10.7694C10.3949 10.1364 10.4119 9.49472 10.4714 8.86172C10.5733 7.73446 11.3969 7.27488 12.382 7.7518C12.5348 7.82984 12.6537 7.95991 12.8066 8.03795C16.407 10.1191 19.7952 12.5297 23.2003 14.9229C29.9597 19.6748 36.4812 24.7475 42.9688 29.8809C50.3396 35.7166 57.7698 41.4744 65.149 47.3015C68.1041 49.634 71.0082 52.036 73.9039 54.4379C74.9568 55.3137 75.9334 56.2762 76.9524 57.1954C77.3685 57.5769 77.7931 57.9498 78.3026 58.4007V58.418ZM19.1923 45.6799C19.9141 45.8447 20.4066 45.9661 20.8991 46.0615C24.1769 46.6945 27.4631 47.2841 30.7324 47.9691C37.7635 49.4433 44.7945 50.9694 51.8256 52.4782C55.528 53.276 59.2388 54.065 62.9412 54.8628C65.4887 55.4091 68.0277 55.9727 70.5752 56.493C70.9148 56.5624 71.3054 56.7965 71.73 56.389C71.5347 56.2069 71.3904 56.0594 71.2205 55.9207C62.2449 48.3247 52.9805 41.1015 43.7925 33.7743C43.4868 33.5315 43.1302 33.3667 42.8754 33.2106C41.3215 33.887 39.8779 34.546 38.4088 35.1357C32.4137 37.5636 26.4186 39.9742 20.4235 42.4022C20.0669 42.5496 19.7357 42.7664 19.3366 42.9745C19.2857 43.859 19.2432 44.7087 19.1923 45.6799ZM19.5489 41.5264C19.7527 41.5437 19.8801 41.5958 19.9735 41.5611C27.1404 38.5608 34.3074 35.5606 41.4743 32.5516C41.5253 32.5343 41.5847 32.4909 41.6017 32.4476C41.6272 32.4042 41.6017 32.3348 41.6017 32.1701C41.5083 32.066 41.3894 31.8753 41.2196 31.7365C39.5807 30.4012 37.9673 29.0484 36.2944 27.7564C28.8303 22.0247 21.3576 16.319 13.8765 10.6046C13.6727 10.4486 13.4179 10.3705 13.0868 10.2058C13.0868 10.7694 13.0698 11.1683 13.0868 11.5672C13.1717 12.9546 13.3076 14.3333 13.3585 15.7207C13.5963 22.3022 13.9529 28.8837 13.7152 35.4825C13.6982 36.0635 13.6897 36.6358 13.7152 37.2168C13.7321 37.5463 13.8171 37.8671 13.885 38.2313C14.5813 38.2313 15.1927 38.2487 15.8041 38.2313C16.6533 38.2053 17.5024 38.1099 18.3431 38.1012C19.0564 38.1012 19.3536 38.4134 19.4385 39.1505C19.4725 39.4973 19.4555 39.8442 19.464 40.191C19.481 40.6419 19.5065 41.0928 19.5319 41.5264H19.5489ZM17.1797 42.7057C17.0694 41.3703 17.392 40.1477 16.6448 39.0377C15.6428 38.9077 14.7257 38.8817 13.7491 39.2545C13.6727 40.798 13.5963 42.2808 13.5283 43.7636C13.5283 43.8156 13.5538 43.8763 13.5878 43.9197C13.6217 43.9543 13.6727 43.9717 13.868 44.0671C14.8445 43.6595 15.923 43.2173 17.1713 42.697L17.1797 42.7057ZM16.9844 43.9023C15.923 44.1711 15.0823 44.4486 14.0039 45.0643C15.2097 45.1163 16.0588 45.4198 16.9675 45.2984C17.0269 45.0816 17.1033 44.9255 17.1033 44.7694C17.1033 44.5527 17.0439 44.3359 16.9844 43.8937V43.9023Z" fill="#06DAEF" stroke="#06DAEF"/>
<path d="M83.5504 58.4092C84.4845 57.4553 85.7413 57.2906 86.9301 57.0998C87.7538 56.9697 88.603 57.2212 89.3163 57.9756C89.07 58.5999 88.8237 59.2243 88.552 59.918C89.6729 60.2215 90.7004 59.5451 91.9062 59.8139C91.6599 60.0567 91.5071 60.3255 91.2948 60.4036C90.3352 60.7504 89.3757 61.1146 88.3907 61.3314C87.6434 61.4961 87.1594 61.8603 86.8707 62.5454C86.6244 63.1177 86.1913 63.6206 86.1489 64.3924C87.3886 64.4184 88.535 63.794 89.9531 63.9328C89.6644 64.271 89.5285 64.5311 89.3163 64.6612C88.1614 65.4156 86.8961 65.9185 85.529 66.1006C84.6034 66.222 83.7372 66.0399 83.0239 65.3635C83.007 64.2363 83.7882 63.4298 84.1024 62.4587C83.8646 61.8603 83.0664 62.3459 82.8711 61.7563C82.9136 61.6609 82.9305 61.5308 82.9985 61.4875C83.1938 61.3748 83.4061 61.2534 83.6184 61.2273C84.8836 61.0626 85.6309 60.3082 86.0555 58.9902C85.2403 58.756 84.2128 59.4064 83.5504 58.4092Z" fill="#06DAEF" stroke="#06DAEF"/>
<path d="M2.51393 47.5182C1.36755 45.6972 0.484424 43.9283 0.620291 41.8385C1.71571 41.535 1.84309 41.5697 2.16577 42.3067C2.57337 43.2432 2.96398 44.1971 3.41404 45.2897C3.71974 45.0382 3.9575 44.8995 4.10186 44.7C4.61136 44.015 5.06991 43.2866 5.5879 42.6102C5.86812 42.246 6.23326 41.9599 6.85315 42.2027C6.86164 42.3761 6.92958 42.6016 6.87863 42.7923C6.71729 43.3386 6.53047 43.8849 6.30969 44.4139C5.11237 47.2841 3.58387 49.9635 1.87705 52.5388C1.61381 52.9377 1.40152 53.51 0.747665 53.4146C0.374033 53.3626 0.289117 52.7903 0.611799 51.8712C0.900515 51.0647 1.27415 50.2843 1.61381 49.4952C1.88554 48.8709 2.18275 48.2466 2.50543 47.5268L2.51393 47.5182Z" fill="#06DAEF" stroke="#06DAEF"/>
<path d="M0.467874 9.60734C0.357483 8.62749 0.849998 7.87309 1.26609 7.10135C1.67369 6.34695 2.11525 5.61856 2.55682 4.85549C2.28508 4.3092 2.00486 3.81493 1.79257 3.29466C1.61425 2.87844 1.49536 2.42753 1.40195 1.9853C1.37648 1.8639 1.52084 1.61243 1.63123 1.56908C1.81804 1.49971 2.08978 1.47369 2.25961 1.5604C2.44643 1.64712 2.5738 1.87257 2.70967 2.05467C2.9814 2.40152 3.24464 2.74837 3.53335 3.1299C4.87503 2.32348 5.36755 0.50251 7.30364 0.36377C7.0404 0.918731 6.89604 1.32628 6.66677 1.6818C6.08934 2.60096 5.47794 3.4941 4.86654 4.39591C4.57783 4.81213 4.53537 5.22835 4.75615 5.68793C5.01939 6.26023 5.29961 6.83254 5.50341 7.42218C5.6223 7.76903 5.6223 8.15924 5.69023 8.64483C4.52688 8.30665 4.33157 7.12736 3.56732 6.60708C2.64173 7.62162 1.77559 8.58413 0.892456 9.5293C0.833015 9.59 0.688657 9.57266 0.467874 9.60734Z" fill="#06DAEF" stroke="#06DAEF"/>
</g>
<defs>
<clipPath id="clip0_735_25139">
<rect width="91.4889" height="65.7716" fill="white" transform="translate(0.416992 0.36377)"/>
</clipPath>
</defs>
</svg>
